<?xml version="1.0" encoding="utf-8"?>
<!-- Generator: Adobe Illustrator 22.0.0, SVG Export Plug-In . SVG Version: 6.00 Build 0)  -->
<svg version="1.1" id="Layer_1" xmlns="http://www.w3.org/2000/svg" xmlns:xlink="http://www.w3.org/1999/xlink" x="0px" y="0px"
	 viewBox="0 0 2000 1672" style="enable-background:new 0 0 2000 1672;" xml:space="preserve">
<style type="text/css">
	.st0{fill:#FFFFFF;}
	.st1{fill:#E894AD;}
	.st2{fill:url(#SVGID_1_);}
	.st3{fill:url(#SVGID_2_);}
	.st4{fill:url(#SVGID_3_);}
</style>
<g>
	<g>
		<g>
			<g>
				<g>
					<path class="st0" d="M972.6,790.8c0.7-1.8,1.8-3.3,3.2-4.6l-127.9-16.8l-3.6,27.5c47,10.8,80.1,3.2,128.3,5.7
						c-1-2.5-1.4-5.2-1-7.9C971.9,793.5,972.3,792.1,972.6,790.8z"/>
					<path d="M645,603c-0.5,1.3-1,2.7-1.6,4c-3.3,7-8.5,13.3-13.3,19.4c-8.8,11.2-18.5,21.6-27.5,32.7c-5.3,6.6-10.6,13.2-16.1,19.8
						c61.9,27.2,227,102.4,233.4,104.9c52,20.5,92.4,15.8,148.3,18.9c18.4,1,41-4.5,64.7-13.6l17.8-135.7
						C953.7,708,709.7,623.9,645,603z"/>
				</g>
			</g>
		</g>
		<g>
			<path d="M598.3,678.4c-20.2,5.7-41.3,3.5-52.4-1c-12.8-5.2-19.4-17.4-18.1-33.4l1.3-15.3c-3.3-6.1-5.9-15.9-0.4-29.5
				c5.6-13.7,14.4-18.9,20.9-20.9l9.7-11.8c5.3-6.4,11.3-10.6,17.8-12.4c6.1-1.7,12.3-1.3,18.5,1.2c10.1,4.1,28.8,13.3,41.1,28.8
				c12.8,16.2,15.3,35.1,7.3,54.7c-7.7,18.8-22.5,32.3-42.9,38.8C600.2,677.8,599.3,678.1,598.3,678.4z"/>
			<path class="st0" d="M634.2,634.7c-7.4,18.1-21.4,27.9-36.3,32.7c-18.5,6-38.3,4-48,0.1c-10.6-4.3-12.2-14.4-11.5-22.7
				c6.6,4.2,12.4,6,12.8,6.1c4.7,1.5,9.4-0.6,10.5-4.6c1.1-4-1.8-8.5-6.6-10c-0.1,0-11.5-3.8-16.6-12.4c-3.4-5.7-3.4-12.7-0.1-20.8
				c3.3-8.1,8.2-13.1,14.6-14.9c9.6-2.6,20.4,2.7,20.5,2.7c4.4,2.3,9.7,1.2,11.7-2.5c2-3.6,0.1-8.4-4.3-10.7
				c-0.4-0.2-5.8-2.9-13.5-4.6c5.3-6.4,13.5-12.5,24.1-8.2c9.5,3.9,26.2,12.2,36.7,25.5C637.2,601.7,641.7,616.3,634.2,634.7z"/>
		</g>
	</g>
	<g>
		<path class="st0" d="M775.6,911.7c34.3-44,163.8-185.1,201-284.9c0,0,0,0,0,0c0,0,0,0,0,0c16-42.9,29.7-82,39-110.1
			c-4.3,4.1-8.9,7.8-13.9,11c-10.3,6.7-21.7,11.4-33.4,14c-0.2,1-0.3,1.9-0.4,2.9l-5.2-1.9c-2.8,0.5-5.7,0.8-8.5,1
			c-8.2,0.6-16.3,0.2-24.4-1.5c5.1-2.1,10.2-4,15.1-5.9c1.9-0.7,3.7-1.5,5.5-2.2c4.2-1.7,8.3-3.4,12.4-5.2c2.6-1.1,5.1-2.3,7.6-3.5
			c7.7-3.7,15-7.8,21.9-12.3c9.3-6,17.9-12.9,26-20.8c2.3-2.3,4.6-4.5,6.8-6.9c-14-4.7-31.3-5.6-52.7-0.1c-0.1,0-0.2,0-0.3,0.1
			c-1.7,0.5-3.4,0.9-5.2,1.4c-0.3,0.1-0.5,0.2-0.8,0.2c-7.3,2.1-14.6,3-22,2.8c-22.5-0.5-125.3,1.5-146-14.5
			c-59.5-45.9-46.1-179-40.1-211.8c2.3-12.6,6.2-26.4,11.3-40.5c-1.5,3.6-3.1,7.3-4.6,11.1c-7.8,19.2-78.1,78.3-92.6,93.1
			c-15.6,16.1-32,34.6-42.6,46.4c0,0-2.5,6.8-2.4,17.6c11.4,0.5,25.4,4.8,35.4-1.6c4.3,12.5-8.6,11.5-13.6,16.7
			c-7.8,7.9-19,18.3-14.3,33.2c5.2,16.3,20.3,26.6,36.2,29.6c22,4,31.1,3.2,49-12.8c-0.4,1.1-13.3,13-13.8,13.2
			c-0.5,0.2-1,0.3-1.5,0.5c-0.5,0.2-1.1,0.3-1.7,0.4c-0.5,0.1-1.1,0.3-1.6,0.4c-0.5,0.1-1,0.2-1.5,0.3c-0.6,0.1-1.2,0.3-1.9,0.4
			c-0.5,0.1-1,0.1-1.5,0.2c-0.6,0.1-1.3,0.2-2,0.3c-0.6,0.1-1.2,0.1-1.9,0.1c-0.6,0-1.1,0.1-1.7,0.1c-0.7,0-1.4,0-2.1,0
			c-0.5,0-1,0-1.5,0c-0.7,0-1.4,0-2-0.1c-0.6,0-1.1,0-1.7-0.1c-0.6,0-1.3-0.1-1.9-0.2c-0.6,0-1.2-0.1-1.8-0.1
			c-0.6-0.1-1.3-0.2-1.9-0.2c-0.6-0.1-1.2-0.1-1.9-0.2c-0.6-0.1-1.2-0.2-1.8-0.3c-0.7-0.1-1.3-0.2-2-0.4c-0.6-0.1-1.2-0.3-1.8-0.4
			c-0.7-0.2-1.4-0.3-2-0.5c-0.6-0.2-1.2-0.3-1.8-0.5c-0.7-0.2-1.3-0.4-2-0.6c-0.6-0.2-1.3-0.4-1.9-0.6c-0.6-0.2-1.3-0.4-1.9-0.6
			c-0.7-0.2-1.3-0.5-2-0.7c-0.6-0.2-1.3-0.5-1.9-0.7c-0.6-0.2-1.2-0.5-1.9-0.8c-0.6-0.3-1.3-0.5-1.9-0.8c-0.7-0.3-1.3-0.6-2-0.9
			c-0.6-0.3-1.2-0.6-1.8-0.9c-0.7-0.3-1.3-0.7-2-1c-0.6-0.3-1.2-0.6-1.8-0.9c-0.6-0.4-1.3-0.8-1.9-1.1c-0.6-0.4-1.2-0.7-1.8-1.1
			c-0.7-0.4-1.3-0.9-2-1.3c-0.6-0.4-1.1-0.7-1.7-1.1c-0.6-0.4-1.3-0.9-1.9-1.4c-0.6-0.4-1.1-0.8-1.7-1.2c-0.6-0.5-1.2-0.9-1.8-1.4
			c-0.6-0.4-1.1-0.9-1.7-1.3c-0.6,0.3-1.5-8.8-1.9-8.5c-0.1,0-5.8,4.4-5.8,4.5c1,20.2,15.9,52.7,49.6,71.4
			c46.7,25.8,95.4,6.3,113.3-2.7c0.2,44.5-1.7,118-4,189.1c0,0,0,0.1,0,0.1c0,0,0,0,0,0.1v0C779.2,805.4,775.4,910.2,775.6,911.7z"
			/>
	</g>
	<g>
		<g>
			<path d="M1117.8,1171.4c-10.2,34.7-78.3,27.8-88.5,62.5c-0.2,109.5,144.4,172.9,70.9,258.4c-18.5,5.6-30.6,14.3-43.2,30.5
				c-7.1,9-7.2,24.7,3.1,33.8c1.8,1.6,5.1,4.7,7.2,6.3c2.9,9.4,8.2,14,16.9,18c0.2,0.1,0.7,0.3,1,0.3c10.3,2.3,19.4,1.9,29.6-0.8
				c3.5,0,8.6,1.2,11.8,0.9c18-1.7,41.5-0.7,52.5-15.8c3.7-5.1,6.1-12.4,7.8-18.5c7.9-9.9,13.7-16.2,19.8-28.2
				c10.1-19.7,1-58.2,0.7-81.3C1206.9,1392.3,1168.8,1185.7,1117.8,1171.4z"/>
			<path class="st0" d="M1161.3,1540c-0.7,7-3.6,12.6-6.5,17.2c-6.7,10.6-12.6,8.5-22.9,10.8c1.4-1,7-8.2,7.2-8.6
				c2.2-4.4,2.9-7.3-1.9-8.4c-4.8-1-6.9,1-11.4,6.1c-0.1,0.1-9.1,10.6-14.3,10.9c-3.4,0.2-13.3,1.5-18.1-0.1s-8.6-8-10.2-11.1
				c-2.5-4.7,5.2-15,5.3-15c3.4-4.5,5-6.9,1-9.3c-4-2.4-6.8-0.5-10.9,2.9c-0.4,0.3-5.8,7.6-6.2,9.6c-3-8.8-10-9.3-0.9-19.3
				c13-14.3,29.5-25.6,51-25.2c3.3,0.1,7.8,0.5,11.2,1.5C1152.7,1507.5,1163.2,1520.5,1161.3,1540z"/>
		</g>
		<path d="M1065.2,990c0,0-126.9,306.9,70.4,387.9c0,0,19.2-121.9,19.9-130.3s-7.9-192.2-7.9-192.2L1065.2,990z"/>
	</g>
	<path d="M1005.2,1285.2c23.7-5.1,47-12.1,69.5-21.1c36.8-14.7,53.4-33.6,64.4-70.4c5.5-18.5,10.9-37,15.6-55.7
		c9.2-37.4,15.4-75.7,14.3-114.3c-2.5-82.2-37-158.2-86.1-223c-0.1-0.1-0.2-0.3-0.3-0.4c-0.6-0.8-19.8-87.1-27.6-124.8
		c0,0,0-0.1,0-0.1c0,0,0-0.1,0-0.1c-0.8-5.6-1.7-11.3-2.9-17c0-0.1-0.1-0.1-0.1-0.2c-1.8-4.6-4.6-35.6-3.3-73c0,0-13.3-0.4-32.4-0.9
		c-59.5-1.8-113.4,34.6-134.1,90.4c-0.1,0.4-0.3,0.7-0.4,1.2c-32,85.9-74.4,188.9-103.9,226.7c-0.1-1.3,3.3-83.7,6.1-170.3
		c-7.9,46.5-23.6,118.1-25.8,131.1c-3.1,18-5.9,35.1-8.3,51.7c-16.7,118.5,21.9,239.3,99.1,330.1c14.2,16.7,30.2,32.7,50.4,41.1
		c22.3,9.2,47.4,8.3,71.4,5.2C982.1,1289.7,993.7,1287.7,1005.2,1285.2z"/>
	<g>
		<path d="M1484.7,1025.7c-11.8-6.4-28.9-13.3-42.8-18.2c-30.8-10.8-55.6-31.5-82.5-48.2c-24.3-15.1-51.7-24.1-79.2-25.4
			c-54.2-2.4-165.9,50.5-194.3,95.1c-11.9,18.7-20.1,38.5-27.2,59.9h101.9c7.8-13.9,28.1-43.1,40.1-54.7
			c37-35.6,124.8-40.9,155.3,0.8c8.7,11.9,18.8,23.9,30.7,33.8c6.2,5.1,12.4,11,21.4,14.1c23.2,8.1,45.8,12.5,71,5.6
			c13.6-3.7,26.3-13.1,28.3-29.2C1509.4,1042.5,1500.6,1034.2,1484.7,1025.7z"/>
		<path d="M1503.8,1020.1c-5.1-4.2-9.9-7.4-15.9-10.5c-6-3.1-12.2-5-19.2-6.4c-7-1.4-15.2-1.3-22.4-1.4c7.8-2.9,16.5-5,24.7-4.8
			c8.2,0.2,15.7,1.9,22.5,5.5c6.7,3.5,11.5,7.6,16,13.3c4.5,5.6,6.5,11.7,8.1,18.5C1513.3,1029.2,1508.9,1024.3,1503.8,1020.1z"/>
		<path d="M1432.9,1108.8c-7.8-3-14.3-7.3-20.6-12.7c7.3,2.4,14.9,4.9,22.4,6.4c7.5,1.6,14.8,2.7,22.3,2.8c7.6,0.1,14.6-0.8,22-2.7
			c7.4-1.9,14.5-5.4,21.4-8.7c-5.5,6.3-11.4,11.5-19.2,14.9c-7.8,3.4-15.9,5-24.3,4.9C1448.6,1113.5,1440.7,1111.8,1432.9,1108.8z"
			/>
		<path d="M1496.9,993.4c-4-1.9-7.8-3.1-12.2-4.2c-4.4-1.1-9.2-1.4-13.8-1.9c4.5-2.7,9-4.5,14.3-4.6c5.3-0.1,10.4,0.9,15.1,3.2
			c4.7,2.3,8.7,5.4,12.1,9.2c3.5,3.9,5.7,8.2,7.2,13.1c-3.8-2.7-7.7-5.7-11.5-8.2C1504.5,997.5,1500.9,995.4,1496.9,993.4z"/>
		<path class="st0" d="M1480.6,1030.6c12.6,7.2,21.6,12.7,18.9,28.5c-2.1,12.3-11.6,19.1-24.1,22.6c-6,1.7-14.5,3.1-21.7,2.9
			c-16.1-0.5-30.8-3-46-9.4c-6.4-2.7-12.6-7.1-18.1-11.6c-2.8-24-3.7-50.3,2.8-73.7c15.8,9.7,30.1,17.5,48.2,23.3
			C1453.4,1017.5,1468.6,1023.7,1480.6,1030.6z"/>
	</g>
	<g>
		<path d="M1113.1,1169c0.8-4.6,1.6-9.2,2.3-13.9c0.2-1.2,0.3-2.4,0.3-3.5c-6-1.8-9.8-2.9-10.4-3.2c1.6,6.7,4.2,13.5,7.3,20.6
			H1113.1z"/>
	</g>
	<g>
		<g>
			<path d="M952.8,1209.7c-10.2,34.7-78.3,27.8-88.5,62.5c-0.2,109.5,144.4,172.9,70.9,258.4c-18.5,5.6-30.6,14.3-43.2,30.5
				c-7.1,9-7.2,24.7,3.1,33.8c1.8,1.6,5.1,4.7,7.2,6.3c2.9,9.4,8.2,14,16.9,18c0.2,0.1,0.7,0.3,1,0.3c10.3,2.3,19.4,1.9,29.6-0.8
				c3.5,0,8.6,1.2,11.8,0.9c18-1.7,41.5-0.7,52.5-15.8c3.7-5.1,6.1-12.4,7.8-18.5c7.9-9.9,13.7-16.2,19.8-28.2
				c10.1-19.7,1-58.2,0.7-81.3C1041.9,1430.6,1003.8,1224,952.8,1209.7z"/>
			<path class="st0" d="M996.2,1578.2c-0.7,7-3.6,12.6-6.5,17.2c-6.7,10.6-12.6,8.5-22.9,10.8c1.4-1,7-8.2,7.2-8.6
				c2.2-4.4,2.9-7.3-1.9-8.4c-4.8-1-6.9,1-11.4,6.1c-0.1,0.1-9.1,10.6-14.3,10.9c-3.4,0.2-13.3,1.5-18.1-0.1
				c-4.7-1.6-8.6-8-10.2-11.1c-2.5-4.7,5.2-15,5.3-15c3.4-4.5,5-6.9,1-9.3c-4-2.4-6.8-0.5-10.9,2.9c-0.4,0.3-5.8,7.6-6.2,9.6
				c-3-8.8-10-9.3-0.9-19.3c13-14.3,29.5-25.6,51-25.2c3.3,0.1,7.8,0.5,11.2,1.5C987.6,1545.8,998.1,1558.8,996.2,1578.2z"/>
		</g>
		<path d="M891.7,1016.2c0,0-126.9,306.9,70.4,387.9c0,0,19.2-121.9,19.9-130.3c0.7-8.4-7.9-192.2-7.9-192.2L891.7,1016.2z"/>
	</g>
	<g>
		<g>
			<g>
				<path class="st0" d="M545.5,631.6l-11.7,6.6c-8-0.1-18.7,2.4-29.4,13.2c-0.3,0.3-0.6,0.6-0.9,0.9
					c-10.9,11.6-12.8,22.9-12.2,31.1l-5.8,12.1c-8.3,17.2-6,33.8,6.4,45.4c14.2,13.3,28.8,22,43,26.1c0,0,0,0,0,0c0,0,0,0,0,0
					c5.8,1.7,11.5,2.6,17.1,2.7c0,0,0,0,0,0l0,0c34.3,8.4,258.5,73.5,266.1,75.3c54.4,12.7,93.7,2.2,149.5-2.8
					c13-1.2,27.6-5.9,42.9-13l-35-113.1c-112.3,27.6-305.5-16.1-359-25c0,0,0,0,0,0c-0.3-2.9-0.7-5.9-1.3-8.9
					c-4.4-22.3-15.8-39.4-24.2-47.2C578.8,623.5,562.2,622.2,545.5,631.6z"/>
			</g>
			<g>
				<path class="st0" d="M970,833.4c0.4-1.9,1.3-3.6,2.5-5l-150.2-2.9L804.5,851c54.4,12.2,118.2,5.8,167.1-5.8
					c-1.4-2.4-2.1-4.9-2.2-7.7C969.6,836.1,969.8,834.8,970,833.4z"/>
				<path d="M1027.3,686.1c-89.1,68.9-347.7,19.2-411.1,8.7c0,0,0,0,0,0c-0.3-2.9-0.7-5.9-1.3-8.9c-4.4-22.3-15.8-39.4-24.2-47.2
					c-12.4-11.6-29-12.8-45.7-3.4l-11.7,6.6c-8-0.1-18.7,2.4-29.4,13.2c-0.3,0.3-0.6,0.6-0.9,0.9c-10.9,11.6-12.8,22.9-12.2,31.1
					l-5.8,12.1c-8.3,17.2-6,33.8,6.4,45.4c14.2,13.3,28.8,22,43,26.1c0,0,0,0,0,0c0,0,0,0,0,0c5.8,1.7,11.5,2.6,17.1,2.7
					c0,0,0,0,0,0l0,0c34.3,8.4,258.5,73.5,266.1,75.3c54.4,12.7,93.7,2.2,149.5-2.8c18.4-1.6,40-10.4,62.1-22.8L1027.3,686.1z"/>
				<path class="st0" d="M584.3,741.6c13.3-14.2,16.4-31.1,14.6-46.7c-2.3-19.3-12.3-36.5-19.9-43.6c-8.3-7.8-18.2-5.1-25.4-1
					c6.6,4.3,10.6,8.8,10.9,9.1c3.3,3.7,3.3,8.8,0.2,11.5c-3.2,2.7-8.5,1.9-11.8-1.8c-0.1-0.1-8.2-8.9-18.2-9.9
					c-6.6-0.7-13,2.2-19,8.6c-6,6.4-8.5,13-7.4,19.5c1.6,9.9,10.9,17.4,11,17.5c3.9,3.1,5.1,8.3,2.6,11.7c-2.4,3.4-7.6,3.6-11.5,0.6
					c-0.4-0.3-5.1-4.1-9.8-10.3c-3.6,7.4-5.7,17.5,2.6,25.3c7.5,7,22,18.7,38.5,22.7C555.6,758,570.7,756.1,584.3,741.6z"/>
			</g>
		</g>
	</g>
	<g>
		<g>
			<path d="M1087.9,87.9c-12.4,85.3-43.5,101.3-43.5,101.3c20.9-75.6-28.5-138.1-28.5-138.1c14.6,92.5-55.8,130-55.8,130
				c-59.1-27.1-116.7-7.8-156.7,15.2c-27.5,15.8-56.5,51.6-76,86.8c-6.9,12.5-12.6,24.9-16.6,36.3c-10.6,30,18.6,122.7,67.7,174.6
				c17.1,18.1,36.6,31.2,57.6,35c6.9,1.3,13.9,1.5,21,0.6c0.3,0,0.5,0,0.8-0.1c1.7-0.2,3.4-0.4,5.1-0.6c0.1,0,0.2,0,0.3,0
				c20.9-2,37,1.4,49.5,7.9c-2.4,1.9-4.9,3.7-7.4,5.5c-8.8,6.2-51.5,33.4-56.9,38.4c0,0,0,0,0,0c35.9-8.5,73.4-6.3,107.3,8.2
				c35.1,15,73.5,31.5,73.5,31.5c40.1-61.2,81.3-165,86.1-249.7c1.5-26.6-11.1-98.2-4.9-112.7C1143.5,181,1087.9,87.9,1087.9,87.9z"
				/>
			<path d="M650.7,466.2c0.6,0.3,1.1,0.6,1.7,0.9c0.6,0.3,1.1,0.6,1.7,0.9c0.6,0.3,1.2,0.5,1.8,0.8c0.6,0.2,1.1,0.5,1.7,0.7
				c0.6,0.3,1.2,0.5,1.9,0.7c0.5,0.2,1.1,0.4,1.6,0.6c0.6,0.2,1.2,0.4,1.8,0.6c0.6,0.2,1.1,0.4,1.7,0.6c0.6,0.2,1.1,0.3,1.7,0.5
				c0.6,0.2,1.2,0.4,1.8,0.5c0.6,0.2,1.1,0.3,1.7,0.4c0.6,0.1,1.2,0.3,1.8,0.4c0.5,0.1,1,0.2,1.5,0.3c0.6,0.1,1.3,0.3,1.9,0.4
				c0.5,0.1,1,0.1,1.5,0.2c0.7,0.1,1.3,0.2,2,0.3c0.5,0.1,1.1,0.1,1.6,0.1c0.6,0,1.2,0.1,1.8,0.1c0.6,0,1.2,0,1.9,0.1
				c0.5,0,1,0,1.4,0c0.6,0,1.2,0,1.8-0.1c0.5,0,1,0,1.4,0c0.5,0,1-0.1,1.6-0.1c0.5,0,1.1-0.1,1.6-0.2c0.5-0.1,1-0.2,1.5-0.2
				c0.5-0.1,1.1-0.2,1.6-0.3c0.5-0.1,1-0.2,1.5-0.3c0.5-0.1,1-0.2,1.5-0.3c0.5-0.1,1-0.3,1.5-0.4c0.5-0.1,1-0.3,1.4-0.4
				c0.5-0.2,1-0.4,1.5-0.6c0.4-0.2,0.9-0.3,1.3-0.5c0.5-0.2,1-0.5,1.4-0.7c0.4-0.2,0.8-0.4,1.2-0.6c0.4-0.2,0.8-0.5,1.2-0.7
				c0.4-0.3,0.9-0.5,1.3-0.8c0.4-0.2,0.7-0.5,1.1-0.8c0.4-0.3,0.9-0.6,1.3-0.9c0.4-0.3,0.7-0.6,1-0.9c0.4-0.3,0.8-0.7,1.2-1
				c0.4-0.3,0.7-0.7,1-1c0.4-0.4,0.7-0.7,1.1-1.1c0.3-0.4,0.7-0.8,1-1.2c0.3-0.4,0.6-0.7,0.9-1.1c0.3-0.3,0.5-0.7,0.8-1.1
				c0.3-0.5,0.7-0.9,1-1.4c0.6-0.9,1.1-1.8,1.6-2.7c-19.1,12.4-38.2,14.9-58.2,7.8c-14.5-5.1-23.3-15.3-25.8-31.4
				c-2.2-14.7,9-18.8,17.5-25c5.5-4.1,12.4-7.3,10.2-19.7c-10.4,4.5-26.6,5.3-37.2,3.1c-1.2,8.3-1.1,19.3,3.1,32c0,0-5.3,9.9-6.8,24
				c0,0,1.6-0.6,1.9-0.8c0.5,0.5,2.4,2.6,2.9,3.1c0.5,0.5,0.9,0.9,1.4,1.4c0.5,0.5,1,1.1,1.6,1.6c0.5,0.4,0.9,0.8,1.4,1.3
				c0.5,0.5,1.1,1,1.7,1.5c0.5,0.4,1,0.8,1.5,1.3c0.5,0.4,1.1,0.9,1.6,1.3c0.5,0.4,1,0.8,1.5,1.2c0.6,0.4,1.1,0.9,1.7,1.3
				c0.5,0.4,1,0.7,1.6,1.1c0.6,0.4,1.1,0.8,1.7,1.2c0.6,0.4,1.1,0.7,1.7,1.1c0.5,0.3,1.1,0.7,1.6,1c0.5,0.3,1.1,0.6,1.7,0.9
				C649.5,465.5,650.1,465.8,650.7,466.2z"/>
		</g>
		<path class="st1" d="M1098.5,255.3c11.6-33,7.4-87.2-1.9-112.9c-13.3,45.4-33,56.8-35.7,58.2l-10.2,5.2
			C1074.8,214.1,1088.8,249.3,1098.5,255.3z"/>
		
			<radialGradient id="SVGID_1_" cx="420.951" cy="50.01" r="36.6053" gradientTransform="matrix(0.9877 0.1561 -0.1561 0.9877 403.4199 210.5444)" gradientUnits="userSpaceOnUse">
			<stop  offset="0" style="stop-color:#767E59"/>
			<stop  offset="1" style="stop-color:#F4C256"/>
		</radialGradient>
		<path class="st2" d="M798.6,352.5c-2.6-4.5-0.9-16.6,4.6-29.4c6.3-14.7,15.2-24.8,19.8-22.4c4.6,2.4,3.2,16.2-3.1,31
			c-1.7,4-3.6,7.6-5.6,10.8c12.4-1.9,28.5-13,30.4-25.2c0.5-3.2,0.4-6.4-0.1-9.4c-0.7-3.5-2-6.8-3.9-9.8c0,0,0,0,0,0
			c-4.1-6.3-10.8-11-18.8-12.2c-4.8-0.8-9.4-0.2-13.7,1.3c0,0-0.1,0-0.1,0c-7.7,1.9-14.8,7.1-19.7,14.8
			c-17.6,27.7-7.1,60.4-7.1,60.4C788.1,359.3,793.2,356.2,798.6,352.5z"/>
	</g>
</g>
</svg>
