<?xml version="1.0" encoding="utf-8"?>
<!-- Generator: Adobe Illustrator 22.0.0, SVG Export Plug-In . SVG Version: 6.00 Build 0)  -->
<svg version="1.1" id="Layer_1" xmlns="http://www.w3.org/2000/svg" xmlns:xlink="http://www.w3.org/1999/xlink" x="0px" y="0px"
	 viewBox="0 0 2000 1672" style="enable-background:new 0 0 2000 1672;" xml:space="preserve">
<style type="text/css">
	.st0{fill:#FFFFFF;}
	.st1{fill:#E894AD;}
	.st2{fill:url(#SVGID_1_);}
	.st3{fill:url(#SVGID_2_);}
	.st4{fill:url(#SVGID_3_);}
</style>
<g>
	<path class="st0" d="M566.2,461.7c0,0,27.4,50.8,65.8,66c16.8,6.6,29.7,20.6,35.8,37.7c16.3,45.3,42.3,126.4,40.6,177.4
		c-2.5,73.7,16.8,2.2,18.8,0c2-2.2-9.9-115-6.9-118c2.9-3-15-133.8-15-146.8s-34.3-68.2-34.3-68.2L566.2,461.7z"/>
	<path class="st0" d="M714.7,325.3l-37.1-8.1c0,0-81.2,48.3-104.6,92.6v9.8l4.5,11l-6.6,30l24.7,24.5c0,0,28.3,7.7,32.9,5.4
		c4.7-2.2,18.7-4.7,26.7-10.6c0,0,64.4,137.2,53.3,262.8s-17.1,162.6-17.1,172.5c0,10,51.9,113.8,65.9,95.8
		c14-18,70.5-101.8,82.7-146.8c12.2-44.9,28.6-210.8,29.8-231.6c1.2-20.8-39.3-137.5-39.3-137.5L714.7,325.3z"/>
	<g>
		<g>
			<g>
				<path d="M1038.5,1176.8c-10,34.3-77.3,27.5-87.4,61.7c-0.2,108.2,142.7,170.9,70,255.3c-18.3,5.5-30.2,14.1-42.7,30.1
					c-7,8.9-7.1,24.4,3,33.4c1.8,1.6,5.1,4.6,7.1,6.2c2.8,9.3,8.1,13.8,16.7,17.8c0.2,0.1,0.6,0.3,0.9,0.3
					c10.1,2.3,19.2,1.9,29.2-0.8c3.4,0,8.5,1.2,11.7,0.9c17.8-1.7,41-0.7,51.9-15.6c3.7-5,6.1-12.3,7.7-18.3
					c7.8-9.7,13.5-16,19.6-27.9c10-19.4,1-57.5,0.7-80.3C1126.6,1395.1,1088.9,1190.9,1038.5,1176.8z"/>
				<path class="st0" d="M1081.5,1540.9c-0.7,6.9-3.5,12.4-6.4,17c-6.6,10.5-12.5,8.4-22.6,10.7c1.4-1,6.9-8.1,7.1-8.5
					c2.1-4.3,2.9-7.2-1.9-8.3c-4.8-1-6.8,1-11.2,6.1c-0.1,0.1-9,10.5-14.1,10.8c-3.4,0.2-13.2,1.5-17.9-0.1
					c-4.7-1.6-8.5-7.9-10.1-10.9c-2.5-4.6,5.2-14.8,5.2-14.9c3.3-4.5,4.9-6.9,1-9.2c-3.9-2.3-6.8-0.5-10.7,2.9
					c-0.4,0.3-5.7,7.5-6.1,9.4c-2.9-8.7-9.9-9.2-0.9-19.1c12.8-14.1,29.1-25.3,50.3-24.9c3.3,0.1,7.7,0.5,11.1,1.5
					C1073,1508.9,1083.3,1521.7,1081.5,1540.9z"/>
			</g>
			<path d="M986.6,997.6c0,0-125.4,303.3,69.6,383.3c0,0,19-120.4,19.7-128.8c0.7-8.3-7.8-189.9-7.8-189.9L986.6,997.6z"/>
		</g>
		<path d="M927.2,1289.2c23.4-5,46.4-12,68.6-20.9c36.4-14.5,52.8-33.2,63.6-69.6c5.4-18.3,10.8-36.5,15.4-55
			c9.1-36.9,15.3-74.8,14.1-113c-2.5-81.3-36.5-156.3-85.1-220.4c-0.1-0.1-0.2-0.3-0.3-0.4c-0.6-0.8-19.6-86.1-27.3-123.3
			c0,0,0-0.1,0-0.1c0,0,0-0.1,0-0.1c-0.8-5.6-1.7-11.2-2.9-16.8c0-0.1-0.1-0.1-0.1-0.2c-1.8-4.6-4.6-35.2-3.3-72.1
			c0,0-13.1-0.4-32-0.9c-58.8-1.7-112,34.2-132.5,89.3c-0.1,0.4-0.3,0.7-0.4,1.1c-31.6,84.9-73.5,186.6-102.7,224
			c-0.1-1.3,3.3-82.7,6-168.3c-7.8,46-23.3,116.7-25.5,129.5c-3,17.8-5.9,34.6-8.2,51c-16.5,117.1,21.6,236.5,97.9,326.1
			c14,16.5,29.8,32.3,49.8,40.6c22,9.1,46.9,8.2,70.5,5.1C904.4,1293.6,915.9,1291.7,927.2,1289.2z"/>
		<g>
			<g>
				<path d="M1041.8,328.9c-7.2,13.1-1.9,82-5.8,106.9C1023.6,515.4,975,609.6,914.7,659c0,0-51.6-45.2-100.8-59.9l0,0c0,0,0,0,0,0
					c-4.7,2.6-9.6,4.8-14.6,6.5c-10.5,3.5-21.5,5.1-32.4,4.6c-0.5,0-0.9,0-1.4-0.1c-0.4,0-0.8-0.1-1.2-0.1c0-0.2,0.1-0.3,0.1-0.5
					c0.8-3.7-0.1-8.2-2.6-11.2c1-0.2,2-0.3,3-0.5c2.5-0.4,5-0.8,7.5-1.3c7.5-1.5,14.8-3.4,22-5.8c9.5-3.1,18.6-7.2,27.4-12.2
					c2.5-1.4,5-2.9,7.5-4.5c-11.1-7.3-26.1-12-46-12c-0.1,0-0.2,0-0.3,0c-1.6,0-3.2,0-4.8,0.1c-0.2,0-0.5,0-0.7,0
					c-6.8,0.2-13.4-0.7-19.8-2.5c-19.5-5.6-36.7-19.7-51.2-38.4c-41.6-53.6-60.6-143.9-47.8-171.2c4.9-10.4,11.4-21.6,19.1-32.8
					c17.1-24.9,39.9-49.6,62.2-64.9c-13.1,23.9-21.6,45.8-29.6,61.7h111.5c0.1-0.3,0.3-0.6,0.4-1c13.5-33.1,27.1-63.2,38.2-86.7
					c0.1-0.2,0.2-0.5,0.4-0.7c1.3,0.2,2.7,0.5,4,0.7c-11.1,23.6-24.8,53.6-38.2,86.7h0.1c13.2-31,31.2-59.3,41.5-82.1
					c0.5-1.2,1.1-2.4,1.6-3.5c12.4,3,24.8,7.8,37.1,15c0,0,70-28.9,64.7-117.6c0,0,40.9,63.6,14.2,133.1c0,0,30.9-12.2,50.4-91.7
					C1036.1,166.1,1080.1,259.3,1041.8,328.9z"/>
				<path d="M588.1,483.1c0.5,0.3,1,0.7,1.5,1c0.5,0.3,1,0.7,1.5,1c0.5,0.3,1.1,0.6,1.6,0.9c0.5,0.3,1,0.6,1.5,0.9
					c0.6,0.3,1.1,0.6,1.7,0.9c0.5,0.3,1,0.5,1.5,0.8c0.6,0.3,1.1,0.5,1.7,0.8c0.5,0.2,1,0.5,1.5,0.7c0.5,0.2,1.1,0.4,1.6,0.6
					c0.5,0.2,1.1,0.4,1.6,0.6c0.5,0.2,1,0.4,1.6,0.5c0.5,0.2,1.1,0.4,1.6,0.6c0.5,0.2,1,0.3,1.4,0.4c0.6,0.2,1.2,0.4,1.8,0.5
					c0.5,0.1,0.9,0.2,1.4,0.3c0.6,0.1,1.2,0.3,1.8,0.4c0.5,0.1,1,0.2,1.5,0.3c0.6,0.1,1.1,0.2,1.7,0.3c0.6,0.1,1.2,0.1,1.8,0.2
					c0.5,0.1,0.9,0.1,1.4,0.2c0.6,0.1,1.2,0.1,1.7,0.1c0.5,0,0.9,0.1,1.4,0.1c0.5,0,1,0,1.5,0c0.5,0,1,0,1.6,0c0.5,0,1-0.1,1.4-0.1
					c0.5,0,1,0,1.5-0.1c0.5,0,1-0.1,1.5-0.2c0.5-0.1,1-0.1,1.4-0.2c0.5-0.1,1-0.2,1.4-0.3c0.5-0.1,0.9-0.2,1.4-0.3
					c0.5-0.1,1-0.3,1.5-0.4c0.4-0.1,0.9-0.2,1.3-0.4c0.5-0.2,1-0.3,1.4-0.5c0.4-0.1,0.8-0.3,1.2-0.4c0.4-0.2,0.8-0.4,1.2-0.6
					c0.4-0.2,0.9-0.4,1.3-0.6c0.4-0.2,0.7-0.4,1.1-0.6c0.4-0.2,0.9-0.5,1.3-0.7c0.4-0.2,0.7-0.5,1.1-0.7c0.4-0.3,0.8-0.5,1.2-0.8
					c0.4-0.3,0.7-0.6,1.1-0.9c0.4-0.3,0.8-0.6,1.1-0.9c0.4-0.3,0.7-0.7,1.1-1c0.3-0.3,0.7-0.6,1-1c0.3-0.3,0.5-0.6,0.8-0.9
					c0.4-0.4,0.7-0.8,1.1-1.3c0.6-0.8,1.2-1.6,1.7-2.4c-19.2,9.9-37.4,10.5-55.7,2c-13.2-6.2-20.6-16.6-21.4-32
					c-0.8-14.1,10.3-16.9,18.9-22c5.6-3.3,12.4-5.7,11.5-17.6c-10.2,3.3-25.6,2.6-35.4-0.5c-1.9,7.7-2.8,18.1-0.1,30.5
					c0,0-5.9,8.9-8.6,22c0,0,1.5-0.4,1.9-0.5c0.4,0.5,2,2.7,2.4,3.2c0.4,0.5,0.8,1,1.2,1.4c0.4,0.5,0.9,1.1,1.3,1.6
					c0.4,0.5,0.8,0.9,1.2,1.3c0.5,0.5,0.9,1.1,1.4,1.6c0.4,0.5,0.9,0.9,1.3,1.3c0.5,0.5,0.9,1,1.4,1.4c0.4,0.4,0.9,0.8,1.3,1.2
					c0.5,0.5,1,0.9,1.5,1.4c0.5,0.4,0.9,0.8,1.4,1.2c0.5,0.4,1,0.9,1.5,1.3c0.5,0.4,1,0.8,1.5,1.2c0.5,0.4,1,0.8,1.4,1.1
					c0.5,0.4,1,0.7,1.5,1C587.1,482.4,587.6,482.7,588.1,483.1z"/>
			</g>
			<path class="st1" d="M1030.7,325.3c14-30.1,15.1-81.7,8.7-106.8c-16.7,41.6-36.4,50.6-39.1,51.7l-10.1,4
				C1012.1,284.2,1022,318.7,1030.7,325.3z"/>
			
				<radialGradient id="SVGID_1_" cx="487.1176" cy="935.9388" r="34.7456" gradientTransform="matrix(0.9678 0.2516 -0.2516 0.9678 516.9583 -663.1702)" gradientUnits="userSpaceOnUse">
				<stop  offset="0" style="stop-color:#767E59"/>
				<stop  offset="1" style="stop-color:#F4C256"/>
			</radialGradient>
			<path class="st2" d="M738.4,389.4c-2.1-4.5,0.7-15.8,7.1-27.4c7.3-13.3,16.6-22,20.8-19.3c4.1,2.7,1.6,15.6-5.8,29
				c-2,3.6-4.1,6.9-6.3,9.7c11.9-0.6,28.1-9.7,31.1-21c0.8-3,1-6,0.7-8.9c-0.3-3.4-1.2-6.6-2.8-9.6c0,0,0,0,0,0
				c-3.3-6.4-9.2-11.4-16.6-13.3c-4.4-1.2-8.9-1.1-13.1,0c0,0-0.1,0-0.1,0c-7.4,1.1-14.6,5.3-20,12.1
				c-19.2,24.5-12.3,56.4-12.3,56.4C727.8,394.8,732.9,392.4,738.4,389.4z"/>
		</g>
		<g>
			<path d="M1401,1032.8c-11.7-6.3-28.5-13.1-42.3-17.9c-30.4-10.7-54.9-31.1-81.5-47.6c-24-14.9-51.1-23.8-78.3-25.1
				c-53.5-2.4-164,49.9-192,94c-11.8,18.5-19.9,38.1-26.9,59.1h100.6c7.7-13.7,27.8-42.6,39.6-54c36.5-35.2,123.3-40.4,153.5,0.8
				c8.6,11.7,18.5,23.6,30.3,33.4c6.1,5.1,12.3,10.9,21.2,14c22.9,8,45.2,12.4,70.1,5.6c13.5-3.7,26-12.9,27.9-28.9
				C1425.4,1049.4,1416.7,1041.2,1401,1032.8z"/>
			<path d="M1419.9,1027.2c-5.1-4.1-9.8-7.3-15.7-10.4c-5.9-3.1-12-5-18.9-6.3c-6.9-1.4-15-1.3-22.1-1.3c7.7-2.8,16.3-5,24.4-4.8
				c8.1,0.2,15.5,1.9,22.2,5.4c6.7,3.5,11.4,7.6,15.8,13.1c4.5,5.6,6.5,11.5,8,18.3C1429.3,1036.3,1424.9,1031.4,1419.9,1027.2z"/>
			<path d="M1349.8,1114.9c-7.7-2.9-14.2-7.2-20.3-12.5c7.3,2.4,14.8,4.8,22.2,6.4c7.4,1.6,14.6,2.6,22.1,2.7s14.5-0.8,21.8-2.7
				c7.3-1.9,14.3-5.3,21.1-8.6c-5.4,6.2-11.3,11.4-18.9,14.7c-7.7,3.4-15.7,4.9-24,4.8C1365.3,1119.6,1357.5,1117.8,1349.8,1114.9z"
				/>
			<path d="M1413.1,1000.9c-4-1.9-7.7-3.1-12-4.2c-4.3-1.1-9.1-1.4-13.6-1.9c4.5-2.6,8.9-4.4,14.2-4.5c5.2-0.1,10.3,0.9,14.9,3.2
				c4.7,2.3,8.6,5.3,12,9.1c3.4,3.8,5.6,8.1,7.1,12.9c-3.7-2.7-7.6-5.6-11.4-8.1C1420.6,1004.9,1417,1002.8,1413.1,1000.9z"/>
			<path class="st0" d="M1396.9,1037.6c12.4,7.1,21.3,12.5,18.7,28.2c-2,12.1-11.4,18.8-23.8,22.4c-5.9,1.7-14.3,3.1-21.5,2.9
				c-15.9-0.5-30.4-2.9-45.5-9.2c-6.3-2.6-12.5-7.1-17.9-11.4c-2.7-23.7-3.7-49.7,2.8-72.8c15.6,9.6,29.7,17.3,47.6,23
				C1370.1,1024.7,1385.2,1030.8,1396.9,1037.6z"/>
		</g>
		<g>
			<path class="st0" d="M1070.8,225.1l-2.8-12.9c2.4-7.5,3.2-18.4-3.9-31.6c-0.2-0.4-0.4-0.7-0.6-1.1c-7.8-13.7-17.8-18.8-25.8-20.6
				l-9.7-9c-13.8-12.9-30.1-15.5-44.7-7.3c-16.7,9.5-29.2,20.8-37.2,33c0,0,0,0,0,0c0,0,0,0,0,0c-3.3,5-5.8,10.1-7.5,15.4
				c0,0,0,0,0,0l0,0c-18,29.9-144.9,222.4-148.9,229.2c-27.9,47.6-29.5,87.8-41.1,141.9c-2.7,12.6-2.5,27.8-0.3,44.3h117
				c6.8-114.1,104.5-283.6,128.6-331.5c0,0,0,0,0,0c2.8,0.6,5.8,1.1,8.8,1.4c22.3,2.3,41.8-3.4,51.6-9
				C1068.8,258.9,1074.8,243.6,1070.8,225.1z"/>
		</g>
		<g>
			<path d="M1033.9,1174.4c0.8-4.6,1.6-9.1,2.3-13.7c0.2-1.2,0.3-2.4,0.3-3.5c-5.9-1.8-9.7-2.9-10.3-3.2c1.6,6.6,4.1,13.4,7.2,20.4
				H1033.9z"/>
		</g>
		<g>
			<path class="st0" d="M1060.1,225.1l-2.8-12.9c2.4-7.5,3.2-18.4-3.9-31.6c-0.2-0.4-0.4-0.7-0.6-1.1c-7.8-13.7-17.8-18.8-25.8-20.6
				l-9.7-9c-13.8-12.9-30.1-15.5-44.7-7.3c-16.7,9.5-29.2,20.8-37.2,33c0,0,0,0,0,0c0,0,0,0,0,0c-3.3,5-5.8,10.1-7.5,15.4
				c0,0,0,0,0,0l31-22.5c-18,29.9-176,245-179.9,251.7c-27.9,47.6-29.5,87.8-41.1,141.9c-1.4,6.5-2,13.7-2,21.4h129.9
				c14.8-113.3,95-264.1,117.3-308.6c0,0,0,0,0,0c2.8,0.6,3,0.7,5.9,1.6c22.2,6.9,55.7,1.7,68.4-10.1
				C1069.7,255,1064.1,243.6,1060.1,225.1z"/>
			<path d="M886.8,680.5c-61.7-94,73.7-347.2,103.7-407.2c0,0,0,0,0,0c2.8,0.6,5.8,1.1,8.8,1.4c22.3,2.3,41.8-3.4,51.6-9
				c14.5-8.3,20.6-23.6,16.6-42.1l-2.8-12.9c2.4-7.5,3.2-18.4-3.9-31.6c-0.2-0.4-0.4-0.7-0.6-1.1c-7.8-13.7-17.8-18.8-25.8-20.6
				l-9.7-9c-13.8-12.9-30.1-15.5-44.7-7.3c-16.7,9.5-29.2,20.8-37.2,33c0,0,0,0,0,0c0,0,0,0,0,0c-3.3,5-5.8,10.1-7.5,15.4
				c0,0,0,0,0,0l0,0c-18,29.9-144.9,222.4-148.9,229.2c-27.9,47.6-29.5,87.8-41.1,141.9c-11.7,54.8,31.1,158.1,55.3,205.1
				C824.6,745.4,874.8,693.4,886.8,680.5z"/>
			<path class="st0" d="M955.7,229.5c9.5,16.7,24.6,24.6,39.8,27.4c18.9,3.5,38.1-1,47-6.1c9.8-5.6,10.1-15.7,8.4-23.7
				c-5.9,4.9-11.4,7.5-11.8,7.7c-4.5,2-9.3,0.6-10.9-3.2c-1.6-3.8,0.7-8.5,5.1-10.6c0.1-0.1,10.8-5.2,14.7-14.3
				c2.6-6,1.7-12.9-2.6-20.4c-4.3-7.5-9.7-11.8-16.2-12.7c-9.8-1.3-19.7,5.2-19.7,5.3c-4,2.8-9.3,2.4-11.8-0.9
				c-2.5-3.3-1.2-8.2,2.8-11c0.4-0.3,5.3-3.6,12.6-6.2c-6-5.6-14.8-10.5-24.6-4.9c-8.8,5-24.1,15.3-32.7,29.7
				C948.6,197.6,946,212.4,955.7,229.5z"/>
		</g>
		<g>
			<g>
				<path d="M875.4,1214.6c-10,34.3-77.3,27.5-87.4,61.7c-0.2,108.2,142.7,170.9,70,255.3c-18.3,5.5-30.2,14.1-42.7,30.1
					c-7,8.9-7.1,24.4,3,33.4c1.8,1.6,5.1,4.6,7.1,6.2c2.8,9.3,8.1,13.8,16.7,17.8c0.2,0.1,0.6,0.3,0.9,0.3
					c10.1,2.3,19.2,1.9,29.2-0.8c3.4,0,8.5,1.2,11.7,0.9c17.8-1.7,41-0.7,51.9-15.6c3.7-5,6.1-12.3,7.7-18.3
					c7.8-9.7,13.5-16,19.6-27.9c10-19.4,1-57.5,0.7-80.3C963.5,1432.9,925.8,1228.8,875.4,1214.6z"/>
				<path class="st0" d="M918.4,1578.8c-0.7,6.9-3.5,12.4-6.4,17c-6.6,10.5-12.5,8.4-22.6,10.7c1.4-1,6.9-8.1,7.1-8.5
					c2.1-4.3,2.9-7.2-1.9-8.3c-4.8-1-6.8,1-11.2,6.1c-0.1,0.1-9,10.5-14.1,10.8c-3.4,0.2-13.2,1.5-17.9-0.1s-8.5-7.9-10.1-10.9
					c-2.5-4.6,5.2-14.8,5.2-14.9c3.3-4.5,4.9-6.9,1-9.2c-3.9-2.3-6.8-0.5-10.7,2.9c-0.4,0.3-5.7,7.5-6.1,9.4
					c-2.9-8.7-9.9-9.2-0.9-19.1c12.8-14.1,29.1-25.3,50.3-24.9c3.3,0.1,7.7,0.5,11.1,1.5C909.9,1546.7,920.2,1559.5,918.4,1578.8z"
					/>
			</g>
			<path d="M815.1,1023.4c0,0-125.4,303.3,69.6,383.3c0,0,19-120.4,19.7-128.8c0.7-8.3-7.8-189.9-7.8-189.9L815.1,1023.4z"/>
		</g>
		<path class="st0" d="M830.4,813.7c-1.1,0.9-14.4-18.1-24.3-31.7c-10-13.8-18.5-28.6-25.5-44.1c-17.2-38.5-36.2-90.5-41.3-133.1
			c2,0.8,4,1.5,6,2C753,661,812,777.7,830.4,813.7z"/>
		<path d="M869.7,227.3c-0.5,1.2-1.1,2.3-1.6,3.5c-10.4,22.8-28.3,51.2-41.5,82.1h-0.1c13.5-33.1,27.1-63.2,38.2-86.7
			C866.4,226.6,868,226.9,869.7,227.3z"/>
		<g>
			<path d="M746.6,247.8c-14.1,25.5-27.1,49.3-36.3,66.1h-0.1c8-15.9,16.4-37.9,29.6-61.7C742.1,250.7,744.4,249.2,746.6,247.8z"/>
		</g>
		<g>
			<path d="M860.7,225.5c-0.1,0.2-0.2,0.5-0.4,0.7c-11.1,23.6-24.8,53.6-38.2,86.7c-0.1,0.3-0.3,0.6-0.4,1H710.4
				c9.2-16.9,22.2-40.6,36.3-66.1c2.5-1.5,4.9-2.9,7.4-4.1c1.1-0.6,2.2-1.1,3.3-1.6C785.9,229.3,822.6,219,860.7,225.5z"/>
			<path d="M943,179.1c-8.2,4.9-23.1,10.1-40.9,10.5c-3.4,0.1-6.9,0-10.5-0.3c-1.3-0.1-2.7-0.2-4-0.4c-1.6-0.2-3.2-0.5-4.8-0.7
				c0,0,0,0,0,0c-4.2,8.9-10.5,22-18.1,38.1c-11.1,23.6-24.8,53.6-38.2,86.7c-0.8,1.9-1.5,3.7-2.3,5.6H707.9c0.8-1.5,1.6-3,2.5-4.6
				h111.3c0.1-0.3,0.3-0.6,0.4-1c13.5-33.1,27.1-63.2,38.2-86.7c0.1-0.2,0.2-0.5,0.4-0.7c-38-6.5-74.8,3.8-103.3,16.6
				c-1.1,0.5-2.2,1-3.3,1.6c-2.4,1.2-4.9,2.6-7.4,4.1c32-58.1,69.4-125.5,79-142.2l0,0c0,0,0,0,0,0c1.6-5.3,4-10.5,7.2-15.5
				c7.7-12.4,20-24,36.4-33.9c6.5-3.9,13.5-5.6,20.4-5.1c8.3,0.6,16.7,4.4,24.4,11.3l9.9,8.8c8,1.6,18.2,6.5,26.3,20
				c0.2,0.4,0.4,0.7,0.6,1.1c7.4,13,6.9,23.9,4.7,31.5l3.1,12.9C963,155,957.4,170.5,943,179.1z"/>
			<path class="st0" d="M847,145.2c9.9,16.5,25.2,24,40.4,26.4c19,3,38-1.9,46.9-7.2c9.7-5.8,9.7-16,7.8-23.9
				c-5.8,5.1-11.2,7.8-11.6,7.9c-4.4,2.1-9.3,0.8-11-2.9c-1.7-3.7,0.5-8.5,4.9-10.7c0.1-0.1,10.7-5.4,14.3-14.6
				c2.4-6.1,1.4-12.9-3.1-20.4c-4.5-7.4-10-11.6-16.5-12.3c-9.8-1.1-19.5,5.7-19.6,5.7c-4,2.9-9.3,2.6-11.8-0.6
				c-2.5-3.2-1.4-8.2,2.6-11.1c0.4-0.3,5.2-3.8,12.5-6.5c-6.1-5.4-15.1-10.2-24.8-4.3c-8.7,5.2-23.7,15.9-32,30.5
				C839.1,113.4,836.9,128.4,847,145.2z"/>
		</g>
	</g>
</g>
</svg>
