<?xml version="1.0" encoding="utf-8"?>
<!-- Generator: Adobe Illustrator 22.0.0, SVG Export Plug-In . SVG Version: 6.00 Build 0)  -->
<svg version="1.1" id="Layer_1" xmlns="http://www.w3.org/2000/svg" xmlns:xlink="http://www.w3.org/1999/xlink" x="0px" y="0px"
	 viewBox="0 0 2000 1672" style="enable-background:new 0 0 2000 1672;" xml:space="preserve">
<style type="text/css">
	.st0{fill:#FFFFFF;}
	.st1{fill:#E894AD;}
	.st2{fill:url(#SVGID_1_);}
	.st3{fill:url(#SVGID_2_);}
	.st4{fill:url(#SVGID_3_);}
</style>
<g>
	<path class="st0" d="M744,266.3l1.4,14.3c0,0-96,44-154,134.7l6.3,17l-2.5,31.7l-5.4,2.4c0,0,25.3,69.1,77,68S718,713.6,718,713.6
		s-23.5,182.6-19,187.1c4.5,4.5,93,154.6,118.5,57.8s37.6-161.2,51.5-208.5c13.8-47.3,60.1-248.3,52.3-278.3S744,266.3,744,266.3z"
		/>
	<g>
		<g>
			<g>
				<path d="M1017.7,134.9c-11.4,79-40.2,93.7-40.2,93.7c19.4-70-26.4-127.8-26.4-127.8c13.5,85.6-51.6,120.3-51.6,120.3
					c-54.7-25.1-108-7.2-145,14.1c-25.5,14.7-52.3,47.7-70.3,80.4c-6.4,11.6-11.7,23-15.4,33.6c-9.8,27.7,17.2,113.5,62.7,161.6
					c15.8,16.7,33.8,28.8,53.3,32.4c6.4,1.2,12.9,1.4,19.5,0.6c0.2,0,0.5,0,0.7-0.1c1.6-0.2,3.1-0.4,4.7-0.6c0.1,0,0.2,0,0.3,0
					c19.4-1.9,34.3,1.3,45.8,7.3c-2.3,1.8-4.6,3.4-6.9,5.1c-8.1,5.7-47.6,30.9-52.6,35.6c0,0,0,0,0,0c33.2-7.8,67.9-5.9,99.3,7.6
					c32.5,13.9,68,29.1,68,29.1c37.1-56.6,75.3-152.7,79.7-231.1c1.4-24.6-10.3-90.9-4.5-104.3
					C1069.2,221.1,1017.7,134.9,1017.7,134.9z"/>
				<path d="M613.1,485c0.5,0.3,1.1,0.5,1.6,0.8c0.5,0.3,1.1,0.5,1.6,0.8c0.6,0.3,1.1,0.5,1.7,0.8c0.5,0.2,1,0.5,1.5,0.7
					c0.6,0.2,1.1,0.5,1.7,0.7c0.5,0.2,1,0.4,1.5,0.6c0.6,0.2,1.1,0.4,1.7,0.6c0.5,0.2,1,0.4,1.5,0.5c0.5,0.2,1.1,0.3,1.6,0.5
					c0.5,0.2,1.1,0.3,1.6,0.5c0.5,0.1,1,0.3,1.6,0.4c0.6,0.1,1.1,0.3,1.6,0.4c0.5,0.1,1,0.2,1.4,0.3c0.6,0.1,1.2,0.2,1.8,0.3
					c0.5,0.1,0.9,0.1,1.3,0.2c0.6,0.1,1.2,0.2,1.8,0.2c0.5,0.1,1,0.1,1.5,0.1c0.5,0,1.1,0.1,1.6,0.1c0.6,0,1.2,0,1.7,0
					c0.4,0,0.9,0,1.3,0c0.6,0,1.1,0,1.7-0.1c0.4,0,0.9,0,1.3,0c0.5,0,1-0.1,1.4-0.1c0.5,0,1-0.1,1.5-0.1c0.5-0.1,0.9-0.1,1.4-0.2
					c0.5-0.1,1-0.1,1.5-0.2c0.5-0.1,1-0.2,1.4-0.3c0.5-0.1,0.9-0.2,1.4-0.3c0.5-0.1,0.9-0.3,1.4-0.4c0.4-0.1,0.9-0.3,1.3-0.4
					c0.5-0.2,0.9-0.4,1.4-0.5c0.4-0.2,0.8-0.3,1.2-0.5c0.5-0.2,0.9-0.4,1.3-0.6c0.4-0.2,0.8-0.3,1.1-0.5c0.4-0.2,0.8-0.4,1.1-0.7
					c0.4-0.2,0.8-0.5,1.2-0.7c0.4-0.2,0.7-0.5,1-0.7c0.4-0.3,0.8-0.5,1.2-0.8c0.3-0.3,0.6-0.5,1-0.8c0.4-0.3,0.8-0.6,1.1-0.9
					c0.3-0.3,0.6-0.6,1-0.9c0.3-0.3,0.7-0.6,1-1c0.3-0.4,0.6-0.7,0.9-1.1c0.3-0.3,0.6-0.7,0.9-1c0.2-0.3,0.5-0.7,0.7-1
					c0.3-0.4,0.6-0.9,0.9-1.3c0.5-0.8,1-1.6,1.5-2.5c-17.7,11.4-35.3,13.8-53.9,7.2c-13.4-4.7-21.6-14.2-23.8-29.1
					c-2.1-13.6,8.4-17.4,16.2-23.1c5.1-3.8,11.5-6.7,9.5-18.2c-9.6,4.2-24.6,4.9-34.4,2.9c-1.1,7.7-1,17.8,2.8,29.6
					c0,0-4.9,9.2-6.3,22.2c0,0,1.5-0.6,1.8-0.7c0.4,0.5,2.2,2.4,2.7,2.9c0.4,0.4,0.9,0.9,1.3,1.3c0.5,0.5,1,1,1.4,1.4
					c0.4,0.4,0.9,0.8,1.3,1.2c0.5,0.5,1,0.9,1.5,1.4c0.5,0.4,0.9,0.8,1.4,1.2c0.5,0.4,1,0.8,1.5,1.2c0.5,0.4,0.9,0.7,1.4,1.1
					c0.5,0.4,1,0.8,1.6,1.2c0.5,0.3,1,0.7,1.5,1c0.5,0.4,1,0.7,1.6,1.1c0.5,0.3,1.1,0.7,1.6,1c0.5,0.3,1,0.6,1.5,0.9
					c0.5,0.3,1,0.6,1.5,0.9C612,484.4,612.6,484.7,613.1,485z"/>
			</g>
			<path class="st1" d="M1027.5,289.8c10.8-30.5,6.9-80.7-1.7-104.5c-12.3,42-30.5,52.6-33,53.9l-9.5,4.9
				C1005.7,251.7,1018.5,284.3,1027.5,289.8z"/>
			
				<radialGradient id="SVGID_1_" cx="351.802" cy="-228.6845" r="33.8768" gradientTransform="matrix(0.9877 0.1561 -0.1561 0.9877 378.6534 525.8902)" gradientUnits="userSpaceOnUse">
				<stop  offset="0" style="stop-color:#767E59"/>
				<stop  offset="1" style="stop-color:#F4C256"/>
			</radialGradient>
			<path class="st2" d="M750,379.8c-2.4-4.2-0.8-15.4,4.3-27.2c5.9-13.6,14.1-22.9,18.3-20.7c4.3,2.2,3,15-2.9,28.7
				c-1.6,3.7-3.4,7.1-5.2,10c11.5-1.8,26.4-12.1,28.1-23.3c0.5-3,0.4-5.9-0.1-8.7c-0.6-3.2-1.8-6.3-3.6-9c0,0,0,0,0,0
				c-3.8-5.9-10-10.2-17.4-11.3c-4.4-0.7-8.7-0.2-12.7,1.2c0,0-0.1,0-0.1,0c-7.1,1.8-13.7,6.5-18.2,13.7
				c-16.3,25.6-6.6,55.9-6.6,55.9C740.2,386,745,383.2,750,379.8z"/>
		</g>
		<g>
			<path d="M1203.5,694.6C1203.5,694.6,1203.5,694.6,1203.5,694.6C1203.5,694.6,1203.5,694.6,1203.5,694.6
				c-4.8-3.7-9.9-6.7-15.1-8.9c0,0,0,0,0,0l0,0c-29.1-20.7-90.4-70.1-97-74.6c-46.5-32.2-87.4-36.9-141.8-52.9c-9-2.7-18.1-5-27.2-7
				l65.4,133.5c44.6,13.7,84.1,35.2,110.7,51.1c0,0,0,0,0,0c-0.8,2.9-1.5,5.8-2.1,8.8c-4.1,22.6,0.2,42.9,5.2,53.4
				c7.3,15.5,22.5,22.9,41.7,20.2l13.4-1.9c7.5,3.1,18.5,4.7,32.6-1.6c0.4-0.2,0.8-0.4,1.2-0.5c14.6-6.9,20.6-16.8,23-24.8l10-9.2
				c14.2-13.2,18.2-29.6,10.9-45.1C1226,717.3,1215.4,703.7,1203.5,694.6z"/>
			<path class="st0" d="M1145.9,703.4c-17.8,8.4-27,23.2-31,38.5c-5,19.1-1.9,39,2.6,48.5c4.9,10.5,15.3,11.5,23.6,10.4
				c-4.6-6.4-6.8-12.2-6.9-12.6c-1.7-4.7,0.1-9.5,4.1-10.9c4-1.3,8.7,1.4,10.5,6.1c0,0.1,4.5,11.4,13.4,16.1c6,3.1,13,2.7,21.1-1.1
				c8-3.8,12.8-9,14.2-15.6c2.1-9.9-3.8-20.5-3.9-20.5c-2.5-4.3-1.7-9.7,1.9-12c3.5-2.3,8.5-0.6,11.1,3.8c0.2,0.4,3.3,5.7,5.4,13.4
				c6.1-5.7,11.9-14.3,6.9-24.8c-4.4-9.4-13.8-25.8-27.9-35.7C1179,698.6,1164.1,694.8,1145.9,703.4z"/>
		</g>
		<g>
			<path d="M1372.2,1198.5c-10.7-9.1-26.7-19.9-39.9-28c-29.2-17.8-50.1-44.4-74.1-67.5c-21.6-20.8-47.8-36-75.8-43.3
				c-55.1-14.3-181.3,15.6-220.1,55.2c-16.3,16.6-29,35.1-41,55.5l104.5,22.2c11-12.5,38.2-38.1,53.1-47.3
				c45.7-28.5,137-14.8,159.2,34.7c6.3,14.1,14,28.6,24.1,41.4c5.2,6.6,10.4,14,18.9,19.2c22,13.3,44.2,22.8,71.6,21.3
				c14.8-0.9,29.8-7.7,35.4-23.8C1393.8,1221.2,1386.6,1210.8,1372.2,1198.5z"/>
			<path d="M1393,1197c-4.3-5.4-8.6-9.7-14-14.2c-5.4-4.5-11.4-7.8-18.3-10.8c-6.9-2.9-15.3-4.6-22.7-6.3c8.6-1.3,18-1.6,26.3,0.4
				s15.7,5.4,21.9,10.5c6.1,5.1,10.1,10.4,13.6,17.1c3.4,6.8,4.2,13.4,4.3,20.8C1400.7,1208.4,1397.3,1202.4,1393,1197z"/>
			<path d="M1300.9,1272.5c-7.3-4.7-13.1-10.6-18.3-17.5c7,4.1,14.3,8.2,21.6,11.5c7.4,3.3,14.5,6,22.3,7.7c7.8,1.7,15.2,2.4,23.2,2
				c8-0.4,16-2.4,23.8-4.3c-7,5.3-14.2,9.3-22.9,11.1c-8.7,1.8-17.4,1.7-26-0.3C1315.9,1280.8,1308.2,1277.3,1300.9,1272.5z"/>
			<path d="M1391.7,1168.1c-3.7-2.9-7.3-4.9-11.5-7c-4.2-2.1-9.2-3.4-13.7-5c5.2-1.7,10.3-2.6,15.7-1.6c5.5,1.1,10.5,3.2,14.8,6.6
				c4.4,3.4,7.7,7.4,10.4,12.1c2.7,4.7,4,9.6,4.6,15c-3.3-3.6-6.7-7.5-10-10.9C1398.6,1173.9,1395.4,1171,1391.7,1168.1z"/>
			<path class="st0" d="M1366.9,1202.7c11.3,10.1,19.4,17.7,13.2,33.4c-4.8,12.2-16,17-29.7,18c-6.5,0.4-15.6,0-22.9-1.8
				c-16.4-4-31-9.8-45.2-19.6c-5.9-4.1-11.4-10.1-16-15.8c2.4-25.2,7.2-52.5,19-75c14.1,13.4,27,24.5,44.4,34.4
				C1341.8,1183.3,1356.1,1193,1366.9,1202.7z"/>
		</g>
		<g>
			<g>
				<path d="M999.8,1490.8c-1.9,4.8-5.9,7-10.3,8.3c-21.6,6.5-42.8,16-64,22.6c-12.9,4-24.3,5.6-37.3,8.2c-5.3,3.8-12,8.4-18,10.6
					c-17.7,6.7-30,3.9-47.4-2.4c-3-1.1-7-4-10.2-5.3c-5.5-0.8-10.6-2.1-15.7-4.4c-0.5-0.2-1-0.5-1.5-0.7c-3.4-1.8-6.5-3.9-9.5-6.3
					c-0.2-0.2-0.5-0.5-0.7-0.7c-5.8-6.8-8.5-12.7-7-21.7c-1-2.4-2.9-5.8-3.6-8.1c-4.2-13.4,0.9-22.7,12.3-29.5c3-1.8,5.8-3,8.8-4.2
					c12.3-5.1,24.6-8.4,37.8-9.4c5.4-0.4,10.5,0,15.9,0.5c8.4-1.3,17-0.3,25.3-3.3c-6.7-41.7-7.6-109-9.1-145.4
					c-1.5-36.4-2.7-65.5-3.4-83.9c-0.8-18.4-0.1-2.8-0.4-9.6c-0.3-6.8,0,0-0.2-4.9c1.5,0.5,2.6,0,4.1,0.2c0.4,0,0.5,0,1.3,0
					c48.8-0.1,98.2,0.5,147,2.7c-17.4,34.5-31.4,66-41.7,104.6c-1.1,4-2.9,12.1-4.1,19.1c-5.4,32.2-8.1,66.5,0.5,99.2
					c8.6,5,17.2,9.9,23.6,17.5C1004.6,1458.9,1006.4,1473.5,999.8,1490.8z"/>
				<path class="st0" d="M865.5,1465.5c-22-11.4-48.7-6.2-68.1,3.3c-13.7,6.6-6.6,7.4-8.6,17.5c1.5-1.4,9.5-5.7,9.9-5.9
					c4.8-1.7,8.8-3.2,11.6,0.6s-1,5.7-5.5,8.4c-0.1,0-11.7,6.1-11.6,11c0,3.2,0.8,9.8,4.3,13s13.1,6.1,16.2,7.1
					c4.8,1.5,18.3-3.9,18.4-3.9c6.7-2.5,9.9-3.5,14-0.4c4.1,3.1,1.5,5.4-2.6,8c-0.4,0.2-9.3,4.1-11.2,4.3c10.7,2.7,15.3,6.8,27,1.5
					c5.1-2.3,10.9-5.3,16.2-10.6c14.7-14.7,14.8-30.3,0.1-46.2C872.9,1470.3,868.9,1467.3,865.5,1465.5z"/>
			</g>
			<g>
				<path d="M819.5,1500.6c-0.7,4.8-2.5,9.1-4.8,13.5c-2.3,4.4-6.6,6.6-11.3,7.8c-1.9,0.5-3.8,0.7-5.7,1.2
					c-12.7,3.2-25.8,7.6-37.9,11.9c-7.3,2.6-14.9,5.4-21.5,7.9c-11.7,4.3-21.9,7.5-33.6,11.1c-4.7,4.3-10.9,9.6-16.4,12.2
					c-16.4,7.7-28,5.9-44.7,0.5c-2.9-0.9-6.7-3.7-9.8-4.9c-10-1.3-17.9-4.4-26-10.6c-0.2-0.2-0.5-0.5-0.7-0.7
					c-5.8-6.9-8.5-12.7-6.9-21.8c-1-2.5-2.7-6-3.5-8.3c-1.2-3.3-2.1-6.3-1.8-9.4c1-9.5,6.1-16.3,14.4-20.6
					c19.9-10.4,39.7-16.3,62.2-16.5c7.9-1.2,15.7-2.6,23.6-4c0.5-0.1,1.1-0.3,1.6-0.2c-5.5-33.5-6.7-61-6.3-97.1
					c0.1-8.5,1.1-28.8,2.7-42.2c1.1-8.8,1.9-18.5,4.1-30.7c16.6-92.5,57.9-179.4,129.9-243c9.6-8.4,23.4-19.2,34.4-26.7
					c-14.1,66.8-28.3,133.8-42.7,200.6c0.2-0.1,0,0.1,0.1,0c5.4-1.8,3.3,1.5,10.5-1.4c9.5-3.9,24.8-20.4,33.3-29
					c1.2-1.3,3.1-3,3.9-3.8c0.8-0.8,2.1-2.3,2.3-2.1c0.2,0.2-0.5,0.9-1,2.2c-0.5,1.3-1.8,3.6-2.9,5.8c-0.5,1.1-0.9,1.9-2.1,4.3
					c-10.5,22-21,45.4-30.7,68.4c-0.5,1.2-1.2,3-1.9,4.6c-16.6,41-31.8,83.1-39.1,126.9c0,0.2-0.1,0.6-0.1,0.8
					c-1.8,13.8-2.5,27.1-0.6,40.8c2.1,1.3,4,2.7,6,4.1c0.5,0.3,0.9,0.7,1.4,1.1c4.8,4.1,9.6,8.3,13.3,13.5
					C819,1477.4,821.6,1487.6,819.5,1500.6z"/>
				<g>
					<path class="st0" d="M685.1,1495.5c-22.1-10.1-47.7-1.8-66.6,7.6c-13.3,6.6-6.8,7.6-8.6,17.7c1.4-1.4,9.4-5.8,9.9-5.9
						c4.8-1.7,8.8-3.1,11.5,0.7c2.7,3.9-0.9,5.8-5.6,8.6c-0.1,0-11.7,6.2-11.6,11.1c0,3.3,0.8,9.8,4.2,13c3.5,3.3,12.6,5.6,15.8,6.6
						c4.8,1.4,17.6-4.7,17.7-4.8c6.2-2.8,9.2-4.2,13.2-1.3c4,2.9,1.1,5.4-2.6,8.1c-0.3,0.2-8.8,4.7-10.6,5
						c10.3,2.1,14.5,5.6,25.3-0.5c4.7-2.6,10.4-6.6,14.9-12c12.5-15,15.6-30.9,2.2-46.9C691.9,1499.6,688.5,1497.1,685.1,1495.5z"/>
				</g>
			</g>
		</g>
		<g>
			<path d="M927.6,1237.1c22.4-4.8,44.4-11.5,65.8-20c34.9-13.9,50.6-31.8,60.9-66.6c5.2-17.5,10.4-35,14.7-52.7
				c8.7-35.4,14.6-71.7,13.5-108.2c-2.4-77.8-35-149.7-81.5-211.1c-0.1-0.1-0.2-0.3-0.3-0.4c-0.6-0.7-18.8-82.5-26.1-118.1
				c0,0,0-0.1,0-0.1c0,0,0-0.1,0-0.1c-0.7-5.3-1.6-10.7-2.7-16.1c0-0.1-0.1-0.1-0.1-0.2c-1.7-4.4-4.4-33.7-3.1-69.1
				c0,0-5.6-39.6-23.7-40.2c-56.3-1.7-114.3,72-133.9,124.8c-0.1,0.4-0.3,0.7-0.4,1.1c-30.3,81.3-70.4,178.7-98.3,214.5
				c-0.1-1.2,3.1-79.2,5.8-161.2c-7.5,44.1-22.4,111.8-24.4,124.1c-2.9,17.1-5.6,33.2-7.8,48.9c-15.9,112.2,20.7,226.5,93.8,312.4
				c13.4,15.8,28.6,30.9,47.7,38.9c21.1,8.7,44.9,7.8,67.5,4.9C905.8,1241.3,916.7,1239.5,927.6,1237.1z"/>
		</g>
		<g>
			<path class="st0" d="M1226.7,873.4c-1.8-6.7-3.8-14.5-6.2-17.3c0,0,0,0,0,0l0,0c-17.1-31.4-50.4-102.7-54.3-109.7
				c-27.6-49.4-62.3-71.6-104.1-109.9c-37.7-34.5-86.3-58.6-133.2-66.1l5.4,110.6h128.3v49.8h52.6v102.7h67v40H1226.7z"/>
			<path d="M882.8,702.8c115-5.8,197.6,104.5,235,162.2c0,0,0,0,0,0c-2,2.2-3.9,4.5-5.7,7c-13.6,18.5-18.7,38.6-18.8,50.3
				c-0.2,17.1,10.2,30.5,28.6,36.5l12.9,4.2c5.3,6,14.6,12.4,29.9,12.9c0.4,0,0.9,0,1.3,0c16.1,0.2,25.9-6,31.6-12.1l13-3.9
				c18.6-5.5,29.4-18.6,29.6-35.7c0.3-19.6-3.2-36.5-9.9-50c0,0,0,0,0,0c0,0,0,0,0,0c-2.7-5.5-5.9-10.4-9.7-14.6c0,0,0,0,0,0l0,0
				c-17.1-31.4-50.4-102.7-54.3-109.7c-27.6-49.4-62.3-71.6-104.1-109.9c-42.3-38.8-90.2-67.6-144.2-70.6
				C923.4,601,877.6,685.5,882.8,702.8z"/>
			<path class="st0" d="M1174.5,856.9c-19.7-0.3-34.5,9-44.8,20.9c-12.9,14.9-18.9,34.1-19,44.7c-0.2,11.6,8.7,17.1,16.6,19.7
				c-1.3-7.8-0.7-13.9-0.7-14.4c0.5-5,4.3-8.5,8.5-8c4.2,0.6,7.2,5.1,6.7,10c0,0.1-1,12.2,5,20.3c4,5.4,10.5,8.2,19.4,8.3
				c8.9,0.1,15.5-2.5,19.6-7.8c6.3-8,5.6-20.1,5.6-20.1c-0.4-5,2.7-9.5,6.9-9.9c4.2-0.5,7.9,3.2,8.3,8.2c0,0.4,0.4,6.6-1.1,14.4
				c8-2.4,17-7.7,17.1-19.2c0.1-10.4-1-29.2-9.3-44.3C1206.4,867.1,1194.6,857.2,1174.5,856.9z"/>
		</g>
	</g>
</g>
</svg>
