<?xml version="1.0" encoding="utf-8"?>
<!-- Generator: Adobe Illustrator 22.0.0, SVG Export Plug-In . SVG Version: 6.00 Build 0)  -->
<svg version="1.1" id="Layer_1" xmlns="http://www.w3.org/2000/svg" xmlns:xlink="http://www.w3.org/1999/xlink" x="0px" y="0px"
	 viewBox="0 0 2000 1672" style="enable-background:new 0 0 2000 1672;" xml:space="preserve">
<style type="text/css">
	.st0{fill:#FFFFFF;}
	.st1{fill:none;}
	.st2{fill:url(#SVGID_1_);}
	.st3{fill:url(#SVGID_2_);}
	.st4{fill:#EA95AE;}
	.st5{fill:#E894AD;}
	.st6{fill:url(#SVGID_3_);}
	.st7{fill:url(#SVGID_4_);}
	.st8{fill:url(#SVGID_5_);}
	.st9{fill:url(#SVGID_6_);}
	.st10{fill:url(#SVGID_7_);}
	.st11{fill:url(#SVGID_8_);}
	.st12{fill:url(#SVGID_9_);}
	.st13{fill:url(#SVGID_10_);}
	.st14{fill:url(#SVGID_11_);}
	.st15{fill:url(#SVGID_12_);}
	.st16{fill:url(#SVGID_13_);}
	.st17{fill:url(#SVGID_14_);}
	.st18{fill:url(#SVGID_15_);}
	.st19{fill:url(#SVGID_16_);}
	.st20{fill:url(#SVGID_17_);}
	.st21{fill:url(#SVGID_18_);}
	.st22{fill:url(#SVGID_19_);}
	.st23{fill:url(#SVGID_20_);}
	.st24{fill:url(#SVGID_21_);}
	.st25{fill:url(#SVGID_22_);}
	.st26{fill:url(#SVGID_23_);}
	.st27{fill:url(#SVGID_24_);}
	.st28{fill:url(#SVGID_25_);}
	.st29{fill:url(#SVGID_26_);}
	.st30{fill:url(#SVGID_27_);}
	.st31{fill:url(#SVGID_28_);}
	.st32{fill:url(#SVGID_29_);}
	.st33{fill:url(#SVGID_30_);}
	.st34{fill:url(#SVGID_31_);}
	.st35{fill:url(#SVGID_32_);}
	.st36{fill:url(#SVGID_33_);}
	.st37{fill:url(#SVGID_34_);}
	.st38{fill:url(#SVGID_35_);}
	.st39{fill:url(#SVGID_36_);}
	.st40{fill:url(#SVGID_37_);}
	.st41{fill:url(#SVGID_38_);}
	.st42{fill:url(#SVGID_39_);}
	.st43{fill:url(#SVGID_40_);}
	.st44{fill:url(#SVGID_41_);}
	.st45{fill:url(#SVGID_42_);}
	.st46{fill:url(#SVGID_43_);}
	.st47{fill:url(#SVGID_44_);}
	.st48{fill:url(#SVGID_45_);}
	.st49{fill:url(#SVGID_46_);}
	.st50{fill:url(#SVGID_47_);}
	.st51{fill:url(#SVGID_48_);}
	.st52{fill:url(#SVGID_49_);}
	.st53{fill:url(#SVGID_50_);}
	.st54{fill:url(#SVGID_51_);}
	.st55{fill:url(#SVGID_52_);}
	.st56{fill:url(#SVGID_53_);}
	.st57{fill:url(#SVGID_54_);}
	.st58{fill:url(#SVGID_55_);}
	.st59{fill:url(#SVGID_56_);}
	.st60{fill:url(#SVGID_57_);}
	.st61{fill:url(#SVGID_58_);}
	.st62{fill:url(#SVGID_59_);}
	.st63{fill:url(#SVGID_60_);}
	.st64{fill:url(#SVGID_61_);}
	.st65{fill:url(#SVGID_62_);}
	.st66{fill:url(#SVGID_63_);}
	.st67{fill:url(#SVGID_64_);}
	.st68{fill:url(#SVGID_65_);}
	.st69{fill:url(#SVGID_66_);}
	.st70{fill:url(#SVGID_67_);}
	.st71{fill:url(#SVGID_68_);}
	.st72{fill:url(#SVGID_69_);}
	.st73{fill:url(#SVGID_70_);}
	.st74{fill:url(#SVGID_71_);}
	.st75{fill:url(#SVGID_72_);}
	.st76{fill:url(#SVGID_73_);}
	.st77{fill:url(#SVGID_74_);}
	.st78{fill:url(#SVGID_75_);}
	.st79{fill:url(#SVGID_76_);}
	.st80{fill:url(#SVGID_77_);}
	.st81{fill:url(#SVGID_78_);}
	.st82{fill:url(#SVGID_79_);}
	.st83{fill:url(#SVGID_80_);}
	.st84{fill:url(#SVGID_81_);}
	.st85{fill:url(#SVGID_82_);}
	.st86{fill:url(#SVGID_83_);}
	.st87{fill:url(#SVGID_84_);}
	.st88{fill:url(#SVGID_85_);}
	.st89{fill:url(#SVGID_86_);}
	.st90{fill:url(#SVGID_87_);}
	.st91{fill:url(#SVGID_88_);}
	.st92{fill:url(#SVGID_89_);}
	.st93{fill:url(#SVGID_90_);}
	.st94{fill:url(#SVGID_91_);}
	.st95{fill:url(#SVGID_92_);}
	.st96{fill:url(#SVGID_93_);}
	.st97{fill:url(#SVGID_94_);}
	.st98{fill:url(#SVGID_95_);}
	.st99{fill:url(#SVGID_96_);}
	.st100{fill:url(#SVGID_97_);}
	.st101{fill:url(#SVGID_98_);}
	.st102{fill:url(#SVGID_99_);}
	.st103{fill:url(#SVGID_100_);}
	.st104{fill:url(#SVGID_101_);}
	.st105{fill:url(#SVGID_102_);}
	.st106{fill:url(#SVGID_103_);}
	.st107{fill:url(#SVGID_104_);}
	.st108{fill:url(#SVGID_105_);}
	.st109{fill:url(#SVGID_106_);}
	.st110{fill:url(#SVGID_107_);}
	.st111{fill:url(#SVGID_108_);}
	.st112{fill:url(#SVGID_109_);}
	.st113{fill:url(#SVGID_110_);}
	.st114{fill:url(#SVGID_111_);}
	.st115{fill:url(#SVGID_112_);}
	.st116{fill:url(#SVGID_113_);}
	.st117{fill:url(#SVGID_114_);}
	.st118{fill:url(#SVGID_115_);}
	.st119{fill:url(#SVGID_116_);}
	.st120{fill:url(#SVGID_117_);}
	.st121{fill:url(#SVGID_118_);}
	.st122{fill:url(#SVGID_119_);}
	.st123{fill:url(#SVGID_120_);}
	.st124{fill:url(#SVGID_121_);}
	.st125{fill:url(#SVGID_122_);}
	.st126{fill:url(#SVGID_123_);}
	.st127{fill:url(#SVGID_124_);}
	.st128{fill:url(#SVGID_125_);}
	.st129{fill:url(#SVGID_126_);}
	.st130{fill:url(#SVGID_127_);}
	.st131{fill:url(#SVGID_128_);}
	.st132{fill:url(#SVGID_129_);}
	.st133{fill:url(#SVGID_130_);}
	.st134{fill:url(#SVGID_131_);}
	.st135{fill:url(#SVGID_132_);}
	.st136{fill:url(#SVGID_133_);}
	.st137{fill:url(#SVGID_134_);}
	.st138{fill:url(#SVGID_135_);}
	.st139{fill:url(#SVGID_136_);}
	.st140{fill:url(#SVGID_137_);}
	.st141{fill:url(#SVGID_138_);}
	.st142{fill:url(#SVGID_139_);}
	.st143{fill:url(#SVGID_140_);}
	.st144{fill:url(#SVGID_141_);}
	.st145{fill:url(#SVGID_142_);}
	.st146{fill:url(#SVGID_143_);}
	.st147{fill:url(#SVGID_144_);}
	.st148{fill:url(#SVGID_145_);}
	.st149{fill:url(#SVGID_146_);}
	.st150{fill:url(#SVGID_147_);}
	.st151{fill:url(#SVGID_148_);}
	.st152{fill:url(#SVGID_149_);}
	.st153{fill:url(#SVGID_150_);}
	.st154{fill:url(#SVGID_151_);}
	.st155{fill:url(#SVGID_152_);}
	.st156{fill:url(#SVGID_153_);}
	.st157{fill:url(#SVGID_154_);}
	.st158{fill:url(#SVGID_155_);}
	.st159{fill:url(#SVGID_156_);}
	.st160{fill:url(#SVGID_157_);}
	.st161{fill:url(#SVGID_158_);}
	.st162{fill:url(#SVGID_159_);}
	.st163{fill:url(#SVGID_160_);}
	.st164{fill:url(#SVGID_161_);}
	.st165{fill:url(#SVGID_162_);}
	.st166{fill:url(#SVGID_163_);}
	.st167{fill:url(#SVGID_164_);}
	.st168{fill:url(#SVGID_165_);}
	.st169{fill:url(#SVGID_166_);}
	.st170{fill:url(#SVGID_167_);}
	.st171{fill:url(#SVGID_168_);}
	.st172{fill:url(#SVGID_169_);}
	.st173{fill:url(#SVGID_170_);}
	.st174{fill:url(#SVGID_171_);}
	.st175{fill:url(#SVGID_172_);}
	.st176{fill:url(#SVGID_173_);}
	.st177{fill:url(#SVGID_174_);}
	.st178{fill:url(#SVGID_175_);}
	.st179{fill:url(#SVGID_176_);}
	.st180{fill:url(#SVGID_177_);}
	.st181{fill:url(#SVGID_178_);}
	.st182{fill:url(#SVGID_179_);}
	.st183{fill:url(#SVGID_180_);}
	.st184{fill:url(#SVGID_181_);}
	.st185{fill:url(#SVGID_182_);}
	.st186{fill:url(#SVGID_183_);}
	.st187{fill:url(#SVGID_184_);}
	.st188{fill:url(#SVGID_185_);}
	.st189{fill:url(#SVGID_186_);}
	.st190{fill:url(#SVGID_187_);}
	.st191{fill:url(#SVGID_188_);}
	.st192{fill:url(#SVGID_189_);}
	.st193{fill:url(#SVGID_190_);}
	.st194{fill:url(#SVGID_191_);}
	.st195{fill:url(#SVGID_192_);}
	.st196{fill:url(#SVGID_193_);}
	.st197{fill:url(#SVGID_194_);}
	.st198{fill:url(#SVGID_195_);}
	.st199{fill:url(#SVGID_196_);}
	.st200{fill:url(#SVGID_197_);}
	.st201{fill:url(#SVGID_198_);}
	.st202{fill:url(#SVGID_199_);}
	.st203{fill:url(#SVGID_200_);}
	.st204{fill:url(#SVGID_201_);}
	.st205{fill:url(#SVGID_202_);}
	.st206{fill:url(#SVGID_203_);}
	.st207{fill:url(#SVGID_204_);}
	.st208{fill:url(#SVGID_205_);}
	.st209{fill:url(#SVGID_206_);}
	.st210{fill:url(#SVGID_207_);}
	.st211{fill:url(#SVGID_208_);}
	.st212{fill:url(#SVGID_209_);}
	.st213{fill:url(#SVGID_210_);}
	.st214{fill:url(#SVGID_211_);}
	.st215{fill:url(#SVGID_212_);}
	.st216{fill:url(#SVGID_213_);}
	.st217{fill:url(#SVGID_214_);}
	.st218{fill:url(#SVGID_215_);}
	.st219{fill:url(#SVGID_216_);}
	.st220{fill:url(#SVGID_217_);}
	.st221{fill:url(#SVGID_218_);}
	.st222{fill:url(#SVGID_219_);}
	.st223{fill:url(#SVGID_220_);}
	.st224{fill:url(#SVGID_221_);}
	.st225{fill:url(#SVGID_222_);}
	.st226{fill:url(#SVGID_223_);}
	.st227{fill:url(#SVGID_224_);}
	.st228{fill:url(#SVGID_225_);}
	.st229{fill:url(#SVGID_226_);}
	.st230{fill:url(#SVGID_227_);}
	.st231{fill:url(#SVGID_228_);}
	.st232{fill:url(#SVGID_229_);}
	.st233{fill:url(#SVGID_230_);}
	.st234{fill:url(#SVGID_231_);}
	.st235{fill:url(#SVGID_232_);}
	.st236{fill:url(#SVGID_233_);}
	.st237{fill:url(#SVGID_234_);}
	.st238{fill:url(#SVGID_235_);}
	.st239{fill:url(#SVGID_236_);}
	.st240{fill:url(#SVGID_237_);}
	.st241{fill:url(#SVGID_238_);}
</style>
<g>
	<path class="st0" d="M886.2,522.4c-13.4-9.4-26.9-18.3-40.9-25.1c-0.6-0.3-1.3-0.6-1.9-0.9c-0.2-0.1-0.4-0.2-0.6-0.3h0
		c-9.2-4.3-18.6-7.8-28.3-9.9c-1.6-2.7-3.1-5.5-4.5-8.3c12.1,1.9,24.7,6.4,36.5,12.9c1.2,0.6,2.3,1.3,3.5,2c0.4,0.2,0.8,0.4,1.2,0.7
		h0C864.4,501.1,876.5,511.1,886.2,522.4z"/>
	<path class="st0" d="M907.4,586.9c5.5,14.5,10,29.1,12.1,41.5l-26.4-32.3l-15.6-26.5l-10.8-13.3
		C879.3,568.1,892.8,578.4,907.4,586.9L907.4,586.9z"/>
	<path class="st0" d="M1050.7,544.6c-12.8,21.2-44.6,19.4-69,0.4c-5.1-4-9.9-8.7-14.1-14.2c-7.6,2.2-14.9,3.6-21.9,4.1
		c-30.4,2.3-54.3-11.2-58.7-35.5c3.5,2,4.4,4.5,6.4,6.8c12.6,15.5,28.1,24.9,47.8,23.2c20.5-1.8,28.4-19.3,18.1-37.9
		c-2.5-4.6-6.4-9-5.6-15.6c0.3-2.4,1.2-5.2,3.1-8.3c13,17,29.6,20.7,48.1,13.9c1.2,11-5,13.4-10.1,16.7c-6.9,4.4-15.6,7.3-16.7,16.8
		c-0.1,1.3-0.2,2.7,0,4.2c1.3,14.3,8.5,23.7,21,29C1016.4,555.7,1033.3,554.5,1050.7,544.6z"/>
	<path class="st0" d="M1153.6,546.7c-2.1,2.3-4.3,4.6-6.5,6.8c-6.2-3-12.5-5.6-18.9-8c-1.2-0.4-2.4-0.8-3.5-1.3
		c-7.6-2.6-15.2-4.7-23-6.2h0c-19.8-3.8-40.4-3.8-62.4,1.6c-1.7,0.4-3.4,0.9-5.1,1.3c1-0.8,2.1-1.5,3.1-2.2
		c12.1-8.2,26.2-12.2,41.3-12.7c3.6-0.1,7.3-0.1,11,0.2c0.1,0,0.3,0,0.4,0c4.1,0.3,8.4,0.8,12.6,1.6c2.1,0.4,4.2,0.8,6.4,1.3
		c14.3,3.3,28.7,8.9,42.6,16.4C1152.2,545.9,1152.9,546.3,1153.6,546.7z"/>
	<g>
		<path class="st0" d="M1128.8,554.9c-0.2-0.1-0.4-0.3-0.6-0.4c-0.9-0.6-1.8-1.2-2.7-1.8c-0.5-0.3-1-0.6-1.5-0.9
			c-1.7-1.1-3.3-2.1-5-3.2c-0.7-0.4-1.4-0.9-2.1-1.3c-2-1.3-4-2.5-6-3.7c-1.1-0.7-2.3-1.4-3.4-2c-1.1-0.7-2.2-1.3-3.3-1.9
			c-0.8-0.5-1.6-0.9-2.3-1.3c-0.1-0.1-0.2-0.1-0.3-0.1h0c-1.6-0.9-3.2-1.8-4.8-2.7c-1.9-1.1-3.8-2.1-5.8-3.1c0,0,0,0,0,0
			c-0.1-0.1-0.2-0.1-0.4-0.2c0,0,0,0,0,0c-2.6-1.4-5.1-2.7-7.7-3.9c-1.7-0.8-3.4-1.7-5.2-2.5c-0.6-0.3-1.3-0.6-1.9-0.9
			c-1.3-0.6-2.5-1.1-3.8-1.7c-1-0.5-2-0.9-3.1-1.3c-1-0.4-2-0.9-3.1-1.3c-0.4-0.2-0.8-0.3-1.2-0.5c-1.7-0.7-3.4-1.3-5.1-2
			c-0.1,0-0.2-0.1-0.3-0.1c-1.2-0.4-2.4-0.9-3.6-1.3c-0.7-0.3-1.5-0.5-2.2-0.8c-0.5-0.2-1-0.3-1.5-0.5c-1.1-0.4-2.2-0.7-3.3-1.1
			c-0.2-0.1-0.4-0.1-0.7-0.2c0,0,0,0-0.1,0c-0.1,0-0.1,0-0.2-0.1c-2.4-0.7-4.8-1.4-7.2-2.1c-1-0.3-2-0.5-3-0.8c-1-0.3-2-0.5-3-0.8
			c-1.6-0.4-3.2-0.7-4.8-1.1c-0.4-0.1-0.8-0.2-1.2-0.2c0,0,0,0-0.1,0c-1.9-0.4-3.7-0.7-5.6-1.1c-0.2,0-0.4-0.1-0.6-0.1
			c-3.1-0.5-6.3-1-9.5-1.3c-1-0.1-1.9-0.2-2.9-0.3c-0.1,0-0.2,0-0.3,0c-1.9-0.2-3.8-0.3-5.8-0.4c-0.2,0-0.3,0-0.5,0
			c-2-0.1-4-0.2-5.9-0.2c-0.6,0-1.1,0-1.7,0c-1.6,0-3.2,0-4.8,0c-1.5,0-3,0.1-4.5,0.2c-0.7,0-1.4,0-2.1,0.1c0,0,0,0-0.1,0
			c-0.4,0-0.7,0-1.1,0.1c0,0,0,0,0,0c-0.8,0-1.6,0.1-2.4,0.2c-0.7,0.1-1.5,0.1-2.2,0.2c-1.8,0.1-3.7,0.4-5.6,0.6c0,0-0.1,0-0.1,0
			c-1.2,0.1-2.3,0.3-3.5,0.5c-0.3,0-0.5,0.1-0.8,0.1c-1.6,0.2-3.2,0.5-4.9,0.8c-1.1,0.2-2.2,0.4-3.3,0.6c-1.1,0.2-2.1,0.4-3.2,0.7
			c-0.1,0-0.2,0-0.3,0.1c-1.5,0.3-3.1,0.7-4.6,1.1c-1.5,0.4-3.1,0.8-4.6,1.2c0,0-0.1,0-0.1,0c0,0,0,0,0,0c0.8-0.6,1.6-1.2,2.4-1.8
			c0.3-0.2,0.5-0.4,0.8-0.6c0,0,0.1-0.1,0.1-0.1c0.1-0.1,0.2-0.1,0.3-0.2c1-0.7,2-1.3,3-1.9c0.3-0.2,0.6-0.3,0.8-0.5
			c0.8-0.5,1.6-0.9,2.4-1.4c0.5-0.3,0.9-0.5,1.4-0.8c0.6-0.3,1.3-0.7,1.9-1c0.5-0.2,1-0.5,1.5-0.7c0.3-0.1,0.6-0.3,0.8-0.4
			c0.1,0,0.1-0.1,0.2-0.1c0.3-0.2,0.7-0.3,1-0.4c0.5-0.2,1-0.4,1.5-0.6c0.1-0.1,0.3-0.1,0.4-0.2c0.1-0.1,0.2-0.1,0.3-0.1
			c0.4-0.2,0.8-0.3,1.2-0.4c0.6-0.2,1.2-0.5,1.8-0.7c0.1,0,0.2-0.1,0.3-0.1c0.6-0.2,1.3-0.4,1.9-0.7c0.4-0.1,0.8-0.3,1.2-0.4
			c0.1,0,0.2-0.1,0.3-0.1c1.2-0.4,2.3-0.7,3.5-1c-5-5.6-9.9-11.5-14.6-17.5c0,0,0,0,0,0c-2.1,0.4-4.2,0.9-6.2,1.4
			c-0.6,0.1-1.1,0.3-1.7,0.4c-2.2,0.6-4.5,1.1-6.7,1.8c1-0.7,1.9-1.4,2.9-2.1c0.2-0.1,0.3-0.2,0.5-0.3c0.8-0.6,1.6-1.1,2.5-1.7
			c0,0,0,0,0.1,0c0.3-0.2,0.6-0.4,0.9-0.5c1.6-1,3.2-2,4.8-2.9c0,0,0,0,0,0c-1-1.3-2-2.7-3-4c-0.4-0.5-0.8-1-1.2-1.6
			c-1.7-2.4-3.4-4.8-5.1-7.3c-0.5-0.7-1-1.5-1.5-2.2c-0.8-1.3-1.6-2.5-2.5-3.8c-3-4.7-5.8-9.4-8.5-14.2c-0.7-1.2-1.3-2.4-1.9-3.6
			c-0.2-0.3-0.4-0.7-0.6-1c-0.1-0.1-0.1-0.2-0.2-0.4c-0.4-0.8-0.8-1.6-1.2-2.4c-0.4-0.8-0.9-1.7-1.3-2.5c-0.4-0.9-0.9-1.8-1.3-2.7
			c-0.3-0.6-0.6-1.1-0.8-1.7c-0.5-1-0.9-1.9-1.4-2.9c-1.4-3.1-2.8-6.2-4.1-9.4c-1.2-2.9-2.3-5.7-3.3-8.6c-0.1-0.3-0.2-0.7-0.3-1
			c-0.5-1.4-1-2.7-1.4-4.1c-0.5-1.4-0.9-2.9-1.4-4.3c-0.4-1.2-0.7-2.4-1.1-3.6c-0.8-2.8-1.6-5.6-2.3-8.4c-0.3-1.2-0.6-2.5-0.9-3.7
			c-0.3-1.2-0.5-2.4-0.8-3.6c-0.3-1.6-0.7-3.3-1-4.9c-0.2-1.3-0.5-2.7-0.7-4c0,0-1.1,1.1-3.1,3.2l-0.8,0.8c-3,3-7.7,7.6-13.7,13.3
			c-0.9,0.9-1.9,1.8-2.9,2.7c-0.5,0.5-1,0.9-1.5,1.4c-1,1-2.1,1.9-3.2,2.9c-1.8,1.6-3.6,3.3-5.5,5c-0.8,0.7-1.7,1.5-2.5,2.3
			c-2.9,2.6-5.9,5.3-9.1,8.1c-1.1,1-2.2,1.9-3.4,2.9c-3.4,2.9-6.9,5.9-10.6,8.9c-1.8,1.5-3.6,3-5.5,4.5c-0.9,0.7-1.9,1.5-2.8,2.3
			c-8.5,6.9-17.7,14-27.3,20.9c-1.1,0.8-2.1,1.6-3.2,2.3c-1.1,0.8-2.1,1.6-3.2,2.3c-1.1,0.8-2.2,1.5-3.3,2.3
			c-1.1,0.8-2.2,1.5-3.3,2.3c0.5,0.3,1,0.6,1.4,1c1,0.6,1.9,1.3,2.9,2c0.3,0.2,0.6,0.4,0.9,0.6c0.5,0.3,0.9,0.7,1.4,1
			c0.1,0,0.1,0.1,0.2,0.1c1.7,1.3,3.5,2.5,5.2,3.9c1,0.8,2.1,1.6,3.1,2.5c0.1,0.1,0.2,0.2,0.3,0.2c0.5,0.4,1,0.8,1.4,1.2
			c0.3,0.2,0.6,0.5,0.9,0.7c0.3,0.2,0.6,0.5,0.9,0.7c0.6,0.5,1.3,1.1,1.9,1.6c0.6,0.6,1.2,1.1,1.9,1.7c1.6,1.4,3.2,2.9,4.8,4.3
			c0.1,0.1,0.1,0.1,0.2,0.2c0.5,0.5,1.1,1,1.6,1.6c1.9,1.9,3.8,3.8,5.7,5.7c0.3,0.3,0.5,0.5,0.8,0.8c0,0,0,0,0,0
			c0.3,0.3,0.5,0.6,0.8,0.8c0,0,0,0,0,0c0.4,0.5,0.9,0.9,1.3,1.4c0.1,0.1,0.1,0.2,0.2,0.2c1,1,1.9,2.1,2.8,3.2c0,0,0,0,0,0
			c0,0,0,0,0,0c-2.8-2-5.7-4-8.5-5.9c-0.5-0.3-1-0.7-1.4-1c-2.2-1.5-4.4-3-6.7-4.5c-1-0.6-1.9-1.3-2.9-1.9c-2.3-1.5-4.5-2.9-6.8-4.4
			c-0.4-0.3-0.9-0.5-1.3-0.8c-2.9-1.8-5.8-3.6-8.7-5.3c-3.8-2.3-7.6-4.5-11.5-6.5c-5.4,3.6-11,7.2-16.6,10.6
			c2.2,1.4,4.4,2.7,6.5,4.2c8.4,5.6,16.3,11.8,23.7,18.6c2.3,2.1,4.6,4.3,6.8,6.5c2.7,2.7,5.4,5.6,7.9,8.5c0,0,0,0,0,0c0,0,0,0,0,0
			c-3.3-2.3-6.5-4.5-9.8-6.8c-2.6-1.8-5.3-3.6-7.9-5.3c-9.8-6.5-19.8-12.6-29.9-18c-1.8-1-3.6-1.9-5.5-2.8c-0.8-0.4-1.6-0.8-2.4-1.2
			c-11.4-5.6-22.9-10.2-34.8-13.4c-5.1-1.4-10.2-2.5-15.4-3.4c-2.6-0.4-5.2-0.8-7.9-1.1c-2.6-0.3-5.3-0.5-7.9-0.6
			c-0.4,0-0.8,0-1.2-0.1c-1.2-0.1-2.5-0.1-3.8-0.1c2.2,6,5,12.2,8.2,18.4c12.1,1.9,24.7,6.4,36.5,12.9c1.2,0.6,2.3,1.3,3.5,2
			c0.4,0.2,0.8,0.4,1.2,0.7h0c13.1,7.8,25.2,17.8,35,29c0,0,0,0,0,0c0,0,0,0,0,0c-13.4-9.4-26.9-18.3-40.9-25.1
			c-0.6-0.3-1.3-0.6-1.9-0.9c-0.2-0.1-0.4-0.2-0.6-0.3h0c-9.2-4.3-18.6-7.8-28.3-9.9c20.6,36.2,52,70.3,52,70.3
			c12.7,11.8,26.3,22,40.8,30.5v0c5.5,14.5,10,29.1,12.1,41.5c0.4,2.3,0.7,4.5,0.9,6.6c2,19.1,3.6,39.2,4.8,59.9
			c1.9,32.9,2.9,67.3,2.7,101.6c0,0,0,0,0,0c-0.1,13.9-0.4,27.7-0.8,41.4c0,0,0,0,0,0c0,0,0,0,0,0.1c-2.5,44.7-5.5,85.7-9.6,115.2
			c0,0.1,0,0.2,0,0.3c-0.1,0.9-0.3,1.9-0.4,2.8c-0.1,1-0.3,2-0.4,3c-0.1,0.9-0.3,1.9-0.4,2.8c0,0,0,0,0,0c0,0,0,0,0,0c0,0,0,0,0,0
			c0,0,0,0,0.1-0.1c0,0,0,0,0,0c0,0,0,0,0,0c62.5-79.4,122-161.9,171-250.4c9.2-16.6,17.9-33.4,26.2-50.5c2.1-4.2,4.1-8.4,6.1-12.7
			c6.6-14,18-32.8,20.8-48.1c0,0,0,0,0,0c0,0,0,0,0,0c0.3-0.1,0.5-0.1,0.8-0.2c1.4-0.3,2.8-0.7,4.2-1c1.8-0.4,3.6-0.9,5.4-1.3
			c1.6-0.4,3.3-0.8,4.9-1.2c3.5-0.9,7-1.8,10.5-2.8c2.1-0.6,4.1-1.1,6.2-1.7c5.6-1.6,16.8-5.5,18.8-5.8h0c1.7-0.8,3.8-1.8,6.3-3.1
			c-1.8-1.2-3.6-2.4-5.4-3.6c-1.3-0.8-2.5-1.7-3.8-2.5c-9-5.9-18.1-11.5-27.4-16.6c-0.3-0.2-0.7-0.3-1-0.5
			c-3.4-1.9-6.9-3.6-10.3-5.3c-4.9-2.4-9.8-4.6-14.8-6.6c-0.8-0.3-1.5-0.6-2.3-0.9c-1.5-0.6-2.9-1.2-4.4-1.7c-1.7-0.6-3.3-1.2-5-1.7
			c-0.4-0.1-0.8-0.3-1.3-0.4c-1.4-0.4-2.7-0.9-4.1-1.3c-0.2,0-0.3-0.1-0.5-0.1c-1.4-0.4-2.9-0.8-4.3-1.2c-0.4-0.1-0.8-0.2-1.2-0.3
			c-1.8-0.5-3.6-0.9-5.4-1.3c-0.5-0.1-1-0.2-1.6-0.3c-1.4-0.3-2.9-0.6-4.4-0.9c-0.2,0-0.4-0.1-0.6-0.1c-1.1-0.2-2.2-0.4-3.3-0.6
			c-1.1-0.2-2.2-0.3-3.3-0.5c-0.8-0.1-1.6-0.2-2.5-0.3c-1-0.1-2-0.2-3-0.3c-1.4-0.1-2.7-0.3-4.1-0.3c-0.5,0-1-0.1-1.6-0.1
			c-1.4-0.1-2.9-0.1-4.3-0.2c-0.4,0-0.9,0-1.3,0c-1.7,0-3.4,0-5.2,0c-0.5,0-0.9,0-1.4,0c-1.5,0-3.1,0.1-4.6,0.2c-0.2,0-0.4,0-0.6,0
			c-1.9,0.1-3.8,0.3-5.7,0.5c-0.1,0-0.2,0-0.4,0c-1.8,0.2-3.7,0.4-5.5,0.7c-0.2,0-0.4,0.1-0.6,0.1c-1.8,0.3-3.6,0.6-5.5,0.9
			c-0.6,0.1-1.2,0.2-1.8,0.4c-1.6,0.3-3.1,0.6-4.7,1c-0.1,0-0.3,0.1-0.4,0.1c-2.1,0.5-4.2,1-6.3,1.6c0,0,0,0,0,0
			c1.1-0.8,2.2-1.6,3.3-2.3c0.4-0.2,0.7-0.5,1.1-0.7c1-0.7,2.1-1.3,3.1-1.9c0.4-0.2,0.8-0.4,1.2-0.7c0.9-0.5,1.8-1,2.7-1.4
			c0.9-0.5,1.9-0.9,2.8-1.3c0.5-0.2,1.1-0.5,1.6-0.7c0.5-0.2,0.9-0.4,1.4-0.5c1.1-0.4,2.2-0.8,3.3-1.2c0.3-0.1,0.6-0.2,0.9-0.3
			c1.2-0.4,2.4-0.7,3.6-1.1c0.2-0.1,0.5-0.1,0.7-0.2c1.3-0.3,2.5-0.6,3.8-0.9c0.4-0.1,0.8-0.2,1.2-0.2c1.2-0.2,2.5-0.4,3.7-0.6
			c0.2,0,0.5-0.1,0.7-0.1c1.3-0.2,2.7-0.3,4.1-0.5c0.3,0,0.6,0,0.9-0.1c1.2-0.1,2.4-0.2,3.6-0.2c0.4,0,0.8,0,1.2-0.1
			c1.5,0,2.9-0.1,4.4,0c0.3,0,0.5,0,0.8,0c1.2,0,2.5,0.1,3.8,0.1c0.4,0,0.8,0,1.3,0.1c1.3,0.1,2.5,0.2,3.8,0.3c0.2,0,0.5,0,0.7,0.1
			c1.5,0.2,3.1,0.4,4.6,0.6c0.3,0,0.6,0.1,0.9,0.1c1.3,0.2,2.5,0.4,3.8,0.6c0.4,0.1,0.8,0.1,1.2,0.2c1.5,0.3,3.1,0.6,4.6,1
			c1.5,0.3,3,0.7,4.4,1.1c0.5,0.1,1,0.3,1.6,0.4c1.2,0.3,2.3,0.7,3.5,1c0.7,0.2,1.4,0.4,2.1,0.6c1.4,0.4,2.8,0.9,4.1,1.4
			c0.2,0.1,0.5,0.2,0.7,0.3c1.2,0.4,2.3,0.8,3.5,1.3c1.3,0.5,2.6,1,3.8,1.5c0.9,0.4,1.9,0.7,2.8,1.1c0.2,0.1,0.4,0.2,0.7,0.3
			c1.6,0.7,3.2,1.4,4.8,2.2c0,0,0,0,0.1,0c1.6,0.7,3.1,1.5,4.7,2.3c0.3,0.1,0.5,0.3,0.8,0.4c1.7,0.8,3.3,1.7,5,2.6
			c4.9,2.7,9.7,5.5,14.4,8.6c0,0,0,0,0,0c0,0,0,0,0.1,0c0,0,0,0,0,0c0,0,0,0,0,0c12.3,8.1,23.9,17.6,34.1,28
			c15.2-7.8,39-20.7,39-20.7c-0.1,0-0.1-0.1-0.2-0.1C1135.2,559.1,1132,557,1128.8,554.9z"/>
		<path class="st1" d="M860.1,519.2c-0.3,0.4-0.6,0.8-0.9,1.2c-0.2,0.3-0.4,0.6-0.7,0.9c-0.5,0.6-1,1.2-1.6,1.7
			C858.2,521.8,859.2,520.6,860.1,519.2z"/>
		<path class="st1" d="M853.5,475c-0.1,0.3-0.1,0.6-0.1,0.9c0.1-0.5,0.2-1,0.3-1.5C853.6,474.6,853.5,474.9,853.5,475z"/>
		<path class="st1" d="M1215.9,379C1215.9,379,1215.9,379,1215.9,379c0,0.1,0,0.2,0,0.2c0.1,0.9,0.2,1.8,0.2,2.6c0,0,0,0.1,0,0.1
			c0,0.1,0,0.1,0,0.2C1216.1,381.1,1216,380,1215.9,379C1215.9,379,1215.9,379,1215.9,379z"/>
		<path class="st1" d="M854.1,472.5c-0.2,0.5-0.3,1-0.4,1.4c0.1-0.5,0.3-1.1,0.5-1.6C854.2,472.4,854.2,472.5,854.1,472.5z"/>
		<path class="st1" d="M859.6,492.8c0.2,0.3,0.3,0.6,0.5,1c-0.3-0.6-0.6-1.1-0.9-1.7C859.3,492.3,859.4,492.6,859.6,492.8z"/>
		<path class="st1" d="M855.1,470.2c-0.2,0.5-0.5,1-0.7,1.5c0,0.1,0,0.1-0.1,0.2c0.2-0.6,0.5-1.2,0.8-1.8
			C855.1,470.2,855.1,470.2,855.1,470.2z"/>
		<path class="st1" d="M793,506.3c12.6,15.5,28.1,24.9,47.8,23.2c0.1,0,0.2,0,0.3,0c-0.1,0-0.2,0-0.3,0
			C821.1,531.2,805.6,521.8,793,506.3c-1.9-2.3-2.8-4.8-6.4-6.8c0,0,0,0,0,0C790.2,501.5,791.1,504,793,506.3z"/>
		<path class="st1" d="M860.7,495.2c0.1,0.3,0.3,0.6,0.4,0.9c0,0,0.1,0.1,0.1,0.1c0.2,0.4,0.3,0.7,0.4,1.1c-0.4-1.1-0.8-2.2-1.4-3.3
			C860.3,494.4,860.5,494.8,860.7,495.2z"/>
		<path class="st1" d="M862.8,512.7c0.2-0.8,0.3-1.6,0.4-2.4C863.2,511.2,863,512,862.8,512.7z"/>
		<path class="st1" d="M861.9,498.6c0.2,0.7,0.4,1.5,0.6,2.2c0.1,0.5,0.2,1,0.3,1.5c0.1,0.5,0.2,1,0.3,1.5c0.1,0.5,0.1,1,0.2,1.5
			c0.1,0.7,0.1,1.3,0.1,2l0,0c0-3-0.6-6.2-1.7-9.4C861.8,498.1,861.9,498.3,861.9,498.6z"/>
		<path class="st1" d="M866.7,477.9c0,0,0.1,0.1,0.1,0.1C866.8,478,866.8,478,866.7,477.9z"/>
		<path class="st1" d="M1191.9,487.9c-0.1,0.3-0.2,0.5-0.4,0.8c0.2-0.4,0.4-0.8,0.5-1.1C1192,487.7,1191.9,487.8,1191.9,487.9z"/>
		<path class="st1" d="M862.3,514.5c0.2-0.5,0.3-1.1,0.5-1.7C862.7,513.4,862.5,514,862.3,514.5z"/>
		<path class="st1" d="M863.4,507.6c0,0.8,0,1.5-0.1,2.3C863.4,509.2,863.4,508.4,863.4,507.6z"/>
		<path class="st1" d="M861.6,473.6c-0.2-0.2-0.3-0.3-0.5-0.5C861.3,473.3,861.4,473.5,861.6,473.6z"/>
		<path class="st1" d="M869,479.4c0.6,0.4,1.3,0.8,1.9,1.1C870.3,480.2,869.6,479.8,869,479.4z"/>
		<path class="st1" d="M872.2,481.3c0.1,0.1,0.2,0.1,0.3,0.2C872.5,481.4,872.4,481.3,872.2,481.3z"/>
		<path class="st1" d="M855.3,469.7c0.3-0.6,0.7-1.3,1.1-2C856,468.4,855.6,469.1,855.3,469.7z"/>
		<path class="st1" d="M1216.5,389.2C1216.5,389.2,1216.5,389.2,1216.5,389.2c0-1.3-0.1-2.6-0.2-4
			C1216.4,386.5,1216.5,387.9,1216.5,389.2z"/>
		<path class="st1" d="M856.4,467.7C856.4,467.7,856.4,467.7,856.4,467.7c0,0,0.1,0.1,0.1,0.1C856.5,467.8,856.4,467.7,856.4,467.7z
			"/>
		<path class="st1" d="M858.7,470.6c0.1,0.1,0.2,0.2,0.3,0.3C858.9,470.8,858.8,470.7,858.7,470.6z"/>
		<path class="st1" d="M863.7,475.6c0.3,0.2,0.6,0.5,0.9,0.7C864.3,476,864,475.8,863.7,475.6z"/>
		<path class="st1" d="M1210.5,350.4c0,0.1,0.1,0.1,0.1,0.2c0,0.1,0.1,0.2,0.1,0.3c-0.1-0.3-0.2-0.6-0.2-0.8
			C1210.4,350.1,1210.4,350.3,1210.5,350.4z"/>
		<path class="st1" d="M1212.1,356.7c-0.2-1-0.5-2-0.7-3C1211.6,354.7,1211.9,355.7,1212.1,356.7z"/>
		<path class="st1" d="M1214.7,369.4c-0.3-2.2-0.7-4.4-1.2-6.6C1213.9,365.1,1214.3,367.2,1214.7,369.4z"/>
		<path class="st1" d="M1209.5,346.9c-0.1-0.3-0.2-0.6-0.3-0.9C1209.3,346.3,1209.4,346.6,1209.5,346.9z"/>
		<path class="st1" d="M1213.5,362.9c-0.1-0.6-0.3-1.3-0.4-1.9C1213.2,361.6,1213.4,362.2,1213.5,362.9z"/>
		<path class="st1" d="M1212.5,358.4C1212.5,358.4,1212.5,358.4,1212.5,358.4c0,0.1,0,0.1,0,0.2c-0.1-0.2-0.1-0.5-0.2-0.7
			C1212.5,358,1212.5,358.2,1212.5,358.4z"/>
		<path class="st1" d="M1202.6,323.4c0.1,0.3,0.1,0.7,0.2,1c0.1,0.4,0.1,0.8,0.2,1.3c0,0.2,0.1,0.5,0.2,0.7
			c-0.2-1.2-0.5-2.4-0.6-3.5C1202.6,323.1,1202.6,323.3,1202.6,323.4z"/>
		<path class="st1" d="M1202.3,321.1c0.1,0.6,0.2,1.1,0.2,1.7c-0.2-1.2-0.3-2.3-0.4-3.5C1202.1,319.9,1202.2,320.5,1202.3,321.1z"/>
		<path class="st1" d="M1204.9,333.4c0.1,0.2,0.2,0.5,0.2,0.7c-0.3-0.9-0.6-1.9-0.8-2.8C1204.5,332,1204.7,332.7,1204.9,333.4z"/>
		<path class="st1" d="M1203.4,327.7c0.2,0.7,0.4,1.5,0.5,2.3c0,0,0,0,0,0c0,0.1,0.1,0.2,0.1,0.3c-0.3-1.1-0.5-2.2-0.8-3.3
			C1203.4,327.3,1203.4,327.5,1203.4,327.7z"/>
		<path class="st1" d="M1206,336.8C1206,336.8,1206,336.8,1206,336.8c0.1,0.3,0.2,0.7,0.4,1c-0.3-0.8-0.5-1.5-0.8-2.3
			C1205.7,335.9,1205.9,336.3,1206,336.8z"/>
		<path class="st1" d="M1215.6,376.5C1215.6,376.5,1215.6,376.5,1215.6,376.5c-0.1-0.9-0.2-1.9-0.3-2.9
			C1215.4,374.6,1215.5,375.5,1215.6,376.5z"/>
		<path class="st1" d="M850.7,527c0.7-0.3,1.5-0.7,2.1-1.1C852.2,526.3,851.4,526.7,850.7,527z"/>
		<path class="st1" d="M853.1,525.8c0.7-0.4,1.4-0.9,2-1.3C854.5,524.9,853.8,525.4,853.1,525.8z"/>
		<path class="st1" d="M847.8,528.1c0.8-0.3,1.6-0.5,2.3-0.9C849.4,527.6,848.6,527.9,847.8,528.1z"/>
		<path class="st1" d="M860.5,518.6c0.2-0.3,0.3-0.5,0.4-0.8C860.8,518.1,860.7,518.3,860.5,518.6z"/>
		<path class="st1" d="M855.4,524.3c0.4-0.3,0.8-0.7,1.2-1C856.2,523.6,855.8,524,855.4,524.3z"/>
		<path class="st1" d="M844.8,528.9c0.9-0.2,1.9-0.4,2.7-0.7C846.6,528.5,845.7,528.7,844.8,528.9z"/>
		<path class="st1" d="M843.7,529.1c0.3-0.1,0.7-0.1,1-0.2C844.4,529,844,529,843.7,529.1z"/>
		<path class="st1" d="M861.2,517.2c0.2-0.3,0.3-0.7,0.5-1C861.6,516.5,861.4,516.9,861.2,517.2z"/>
		<path class="st1" d="M1215.9,378.7c-0.1-0.6-0.1-1.2-0.2-1.8C1215.7,377.5,1215.8,378.1,1215.9,378.7z"/>
		<path class="st1" d="M1214.8,370.2c0.1,0.4,0.1,0.7,0.2,1.1c-0.1-0.5-0.1-0.9-0.2-1.4C1214.8,370,1214.8,370.1,1214.8,370.2z"/>
		<path class="st1" d="M894.4,498.4C894.5,498.4,894.5,498.4,894.4,498.4c0.4-0.3,0.9-0.6,1.3-0.8
			C895.3,497.8,894.9,498.1,894.4,498.4C894.5,498.4,894.5,498.4,894.4,498.4z"/>
		<path class="st1" d="M1215.2,415.3c0.1-0.9,0.2-1.7,0.3-2.6C1215.4,413.6,1215.3,414.4,1215.2,415.3z"/>
		<path class="st1" d="M904.1,488.8c0,0,0-0.1,0-0.1c0,0.1-0.1,0.3-0.1,0.4C904,489.1,904,489,904.1,488.8z"/>
		<path class="st1" d="M1216.6,397.3c0-1.5,0-3,0-4.5c0-0.5,0-1.1,0-1.6C1216.6,393.2,1216.6,395.3,1216.6,397.3z"/>
		<path class="st1" d="M903.5,490.3c0-0.1,0.1-0.2,0.1-0.3c-0.1,0.1-0.1,0.3-0.2,0.4C903.5,490.4,903.5,490.4,903.5,490.3z"/>
		<path class="st1" d="M1215.7,410.9c0.1-0.7,0.1-1.4,0.2-2.1C1215.9,409.4,1215.8,410.2,1215.7,410.9z"/>
		<path class="st1" d="M1214.6,419.7c0.1-0.9,0.3-1.9,0.4-2.8C1214.9,417.8,1214.8,418.7,1214.6,419.7z"/>
		<path class="st1" d="M877.8,515.2c0,0,0-0.1,0-0.1C877.8,515.1,877.8,515.1,877.8,515.2C877.8,515.2,877.8,515.2,877.8,515.2z"/>
		<path class="st1" d="M1212.8,429.6c-0.1,0.3-0.1,0.5-0.2,0.8c0.4-1.7,0.7-3.4,1-5.2C1213.4,426.7,1213.1,428.2,1212.8,429.6z"/>
		<path class="st1" d="M1213.7,424.9c0.2-1.3,0.5-2.5,0.7-3.8C1214.2,422.4,1214,423.7,1213.7,424.9z"/>
		<path class="st1" d="M904.3,488c0.1-0.2,0.1-0.5,0.1-0.8c0,0,0-0.1,0-0.1c-0.1,0.4-0.1,0.8-0.2,1.1
			C904.3,488.2,904.3,488.1,904.3,488z"/>
		<path class="st1" d="M1216.5,397.8c0,0.5,0,0.9,0,1.4C1216.5,398.7,1216.6,398.3,1216.5,397.8
			C1216.6,397.8,1216.6,397.8,1216.5,397.8z"/>
		<path class="st1" d="M889.5,501.3c0.9-0.5,1.8-1,2.7-1.6c-1.5,0.9-3,1.7-4.4,2.6C888.3,502,888.9,501.7,889.5,501.3z"/>
		<path class="st1" d="M887.5,502.5c-0.8,0.5-1.5,0.9-2.2,1.4C886,503.4,886.7,503,887.5,502.5z"/>
		<path class="st1" d="M1216.2,406.2c0-0.5,0.1-1,0.1-1.5C1216.2,405.3,1216.2,405.7,1216.2,406.2z"/>
		<path class="st1" d="M1210.8,438.1c0.2-0.8,0.4-1.6,0.6-2.4C1211.2,436.6,1211,437.4,1210.8,438.1z"/>
		<path class="st1" d="M899.5,495.1c0.2-0.2,0.5-0.4,0.7-0.5c0,0,0,0,0,0C899.9,494.8,899.7,494.9,899.5,495.1
			C899.4,495.1,899.5,495.1,899.5,495.1z"/>
		<path class="st1" d="M880.8,508c0.1-0.2,0.3-0.3,0.4-0.5c-0.2,0.2-0.4,0.5-0.6,0.7C880.7,508.1,880.7,508,880.8,508z"/>
		<path class="st1" d="M880.1,508.8c-0.1,0.2-0.3,0.4-0.4,0.6C879.9,509.2,880,509,880.1,508.8z"/>
		<path class="st1" d="M878.1,513.4c0,0,0,0.1,0,0.1C878.1,513.5,878.1,513.4,878.1,513.4z"/>
		<path class="st1" d="M1216.4,402.5c0-0.9,0.1-1.9,0.1-2.8C1216.5,400.6,1216.4,401.5,1216.4,402.5z"/>
		<path class="st1" d="M878.5,511.9c0,0,0,0.1,0,0.1C878.5,512,878.5,511.9,878.5,511.9z"/>
		<path class="st1" d="M1208.5,446.3c0.1-0.4,0.2-0.8,0.4-1.2C1208.8,445.5,1208.6,445.9,1208.5,446.3z"/>
		<path class="st1" d="M1199,472.1c-0.3,0.7-0.6,1.4-0.9,2.1c0.4-0.9,0.8-1.8,1.1-2.7C1199.1,471.8,1199.1,471.9,1199,472.1z"/>
		<path class="st1" d="M897.4,483.7c-0.7,0.2-1.4,0.3-2,0.4c1-0.2,1.9-0.4,2.9-0.6C898,483.6,897.7,483.7,897.4,483.7z"/>
		<path class="st1" d="M900.8,482.8c0.2-0.1,0.4-0.1,0.6-0.2C901.2,482.7,901,482.8,900.8,482.8z"/>
		<path class="st1" d="M904.7,483.7c0,0.3,0,0.6,0,0.9C904.7,484.3,904.7,484,904.7,483.7z"/>
		<path class="st1" d="M894.9,484.2c-0.5,0.1-1.1,0.2-1.6,0.2C893.9,484.4,894.4,484.3,894.9,484.2
			C895,484.2,894.9,484.2,894.9,484.2z"/>
		<path class="st1" d="M1195.2,480.9c-0.1,0.1-0.1,0.2-0.2,0.4c0,0,0,0.1,0,0.1c0.1-0.2,0.2-0.5,0.3-0.7
			C1195.2,480.7,1195.2,480.8,1195.2,480.9z"/>
		<path class="st1" d="M881.5,484.3c-0.1,0-0.1,0-0.2,0c0.2,0,0.3,0.1,0.5,0.1C881.7,484.3,881.6,484.3,881.5,484.3z"/>
		<path class="st1" d="M890.7,484.7c0.3,0,0.7-0.1,1-0.1C891.4,484.7,891,484.7,890.7,484.7z"/>
		<path class="st1" d="M877.9,483.4c0.3,0.1,0.6,0.2,1,0.3C878.6,483.6,878.2,483.5,877.9,483.4z"/>
		<path class="st1" d="M884.4,484.7c0.1,0,0.3,0,0.4,0C884.6,484.7,884.5,484.7,884.4,484.7z"/>
		<path class="st1" d="M881.4,507.2c0.1-0.1,0.2-0.3,0.4-0.4c0.2-0.2,0.3-0.4,0.5-0.5c0.2-0.2,0.4-0.3,0.5-0.5
			c0.2-0.2,0.4-0.3,0.6-0.5c0.2-0.1,0.4-0.3,0.6-0.5c0.4-0.3,0.8-0.6,1.2-0.9c0,0,0,0,0,0C883.8,504.9,882.5,506,881.4,507.2z"/>
		<path class="st1" d="M1203.7,460.6c-0.2,0.4-0.3,0.8-0.5,1.3c0.7-1.8,1.4-3.6,2-5.4C1204.7,457.8,1204.2,459.2,1203.7,460.6z"/>
		<path class="st1" d="M904.6,482c0-0.1,0-0.3,0-0.4c0,0,0,0,0,0c0,0,0,0,0,0C904.5,481.8,904.5,481.9,904.6,482z"/>
		<path class="st1" d="M1206.1,453.9c0.1-0.4,0.3-0.7,0.4-1.1C1206.3,453.1,1206.2,453.5,1206.1,453.9z"/>
		<path class="st1" d="M1207.2,450.5c0.3-0.9,0.6-1.9,0.9-2.8C1207.8,448.6,1207.5,449.5,1207.2,450.5z"/>
		<path class="st1" d="M875.2,482.6c0.2,0.1,0.4,0.1,0.6,0.2C875.6,482.7,875.4,482.6,875.2,482.6z"/>
		<path class="st1" d="M1209.9,441.5c0.1-0.2,0.1-0.4,0.2-0.6C1210,441.1,1210,441.3,1209.9,441.5z"/>
		<path class="st1" d="M1201.8,316.5c0,0.6,0.1,1.3,0.1,1.9c0,0.1,0,0.3,0,0.4c0,0.1,0,0.2,0,0.3c-0.1-1-0.2-2-0.2-3.1
			C1201.8,316.1,1201.8,316.3,1201.8,316.5z"/>
		<path class="st1" d="M1216.5,389.9c0,0.1,0,0.1,0,0.2c0-0.1,0-0.2,0-0.3C1216.5,389.9,1216.5,389.9,1216.5,389.9z"/>
		<path class="st1" d="M904.6,485.9c0-0.1,0-0.2,0-0.2c0,0.3-0.1,0.6-0.1,0.9C904.6,486.3,904.6,486.1,904.6,485.9z"/>
		<path class="st1" d="M1202.2,464.4c-0.1,0.2-0.2,0.4-0.2,0.6c-0.1,0.2-0.1,0.3-0.2,0.5c0.1-0.2,0.1-0.3,0.2-0.5
			C1202,464.8,1202.1,464.6,1202.2,464.4z"/>
		<path class="st1" d="M816.6,956.5c0.1-0.9,0.3-1.9,0.4-2.8c0-0.1,0-0.2,0-0.3c0,0.1,0,0.2,0,0.3
			C816.9,954.6,816.7,955.5,816.6,956.5c-0.1,1-0.3,2-0.4,3c-0.1,0.9-0.3,1.9-0.4,2.8c0,0,0,0,0,0c0.1-0.9,0.3-1.9,0.4-2.8
			C816.3,958.4,816.5,957.5,816.6,956.5z"/>
		<path class="st1" d="M946.4,173.5c0.4,0,0.8,0,1.3,0C947.3,173.5,946.8,173.5,946.4,173.5z"/>
		<path class="st1" d="M846.5,193.8c-0.5,0.3-1,0.5-1.5,0.8C845.5,194.4,846,194.1,846.5,193.8z"/>
		<path class="st1" d="M850.7,191.7L850.7,191.7c-0.1,0-0.1,0.1-0.2,0.1C850.6,191.7,850.6,191.7,850.7,191.7z"/>
		<path class="st1" d="M835.3,200.3c0.1-0.1,0.2-0.1,0.3-0.2c0.2-0.1,0.4-0.2,0.6-0.4c-0.4,0.3-0.9,0.5-1.3,0.8
			C835,200.5,835.1,200.4,835.3,200.3z"/>
		<path class="st1" d="M826.6,838.1C826.6,838.1,826.6,838.1,826.6,838.1C826.6,838.1,826.6,838.1,826.6,838.1
			C826.6,838.1,826.6,838.1,826.6,838.1C826.6,838.1,826.6,838.1,826.6,838.1z"/>
		<path class="st1" d="M902.4,492.1c-0.1,0.1-0.1,0.2-0.2,0.3C902.3,492.3,902.4,492.2,902.4,492.1z"/>
		<path class="st1" d="M816.8,213.4c-0.4,0.3-0.7,0.6-1.1,0.9C816.1,214,816.5,213.7,816.8,213.4z"/>
		<path class="st1" d="M820.8,210.4C820.8,210.3,820.8,210.3,820.8,210.4c0.1-0.1,0.2-0.1,0.3-0.2c-0.2,0.2-0.4,0.3-0.6,0.5
			C820.6,210.5,820.7,210.4,820.8,210.4z"/>
		<path class="st1" d="M829.6,204c0.6-0.4,1.2-0.8,1.8-1.2c-0.8,0.5-1.6,1.1-2.4,1.6C829.2,204.3,829.4,204.2,829.6,204z"/>
		<path class="st1" d="M826.2,206.3c-0.5,0.4-1.1,0.8-1.6,1.1C825.2,207.1,825.7,206.7,826.2,206.3z"/>
		<path class="st1" d="M917.7,174.3c-1,0.1-1.9,0.1-2.9,0.2C915.8,174.4,916.7,174.3,917.7,174.3z"/>
		<path class="st1" d="M912.3,174.7c-1.7,0.1-3.4,0.3-5.1,0.5C908.9,175,910.6,174.8,912.3,174.7z"/>
		<path class="st1" d="M812.2,217.3c-0.6,0.5-1.2,1-1.8,1.6C811,218.3,811.6,217.8,812.2,217.3z"/>
		<path class="st1" d="M920.9,174.1c0.9,0,1.7-0.1,2.6-0.1c0.9,0,1.9-0.1,2.8-0.1c-0.9,0-1.9,0-2.8,0.1
			C922.6,174,921.8,174.1,920.9,174.1z"/>
		<path class="st1" d="M815.7,962.2C815.7,962.2,815.7,962.2,815.7,962.2C815.8,962.2,815.8,962.2,815.7,962.2
			C815.8,962.2,815.8,962.2,815.7,962.2C815.7,962.2,815.7,962.2,815.7,962.2z"/>
		<path class="st1" d="M941.8,173.6c-3.2,0-6.4,0.1-9.6,0.2C935.4,173.7,938.6,173.6,941.8,173.6z"/>
		<path class="st1" d="M903.4,175.6c0.3,0,0.6-0.1,0.9-0.1c-0.7,0.1-1.5,0.2-2.2,0.3C902.6,175.8,903,175.7,903.4,175.6z"/>
		<path class="st1" d="M867.9,184.3c-0.4,0.1-0.8,0.3-1.2,0.4C867.2,184.6,867.6,184.5,867.9,184.3z"/>
		<path class="st1" d="M856.1,189.1c1.8-0.8,3.6-1.6,5.5-2.4c0.3-0.1,0.6-0.2,0.9-0.4c-2.3,0.9-4.6,1.9-6.9,3
			C855.7,189.3,855.9,189.2,856.1,189.1z"/>
		<path class="st1" d="M872.8,182.6c3.9-1.3,7.8-2.4,11.8-3.4c2-0.5,4.1-1,6.1-1.4c2.1-0.4,4.1-0.8,6.3-1.2c0.1,0,0.3,0,0.4-0.1
			c-4.4,0.7-8.6,1.6-12.8,2.7c-4.2,1-8.3,2.2-12.3,3.6C872.5,182.7,872.7,182.7,872.8,182.6z"/>
		<path class="st1" d="M844.5,194.9c-1.8,1-3.5,2-5.2,3C841,196.9,842.7,195.9,844.5,194.9z"/>
		<path class="st1" d="M740.3,312.9c0.1-0.3,0.2-0.5,0.3-0.8c-0.1,0.2-0.2,0.4-0.3,0.6c-0.3,0.7-0.6,1.4-0.8,2.1
			c-0.2,0.5-0.4,1.1-0.6,1.6C739.4,315.2,739.8,314,740.3,312.9z"/>
		<path class="st1" d="M743.1,306.4c0.1-0.2,0.1-0.3,0.2-0.5c0,0,0,0,0,0c0,0,0,0.1,0,0.1c-0.3,0.6-0.5,1.2-0.8,1.8
			c0,0.1-0.1,0.1-0.1,0.2C742.6,307.5,742.8,307,743.1,306.4z"/>
		<path class="st1" d="M754.7,283.8c0-0.1,0.1-0.1,0.1-0.2C754.8,283.7,754.8,283.8,754.7,283.8
			C754.7,283.8,754.7,283.9,754.7,283.8C754.7,283.9,754.7,283.8,754.7,283.8z"/>
		<path class="st1" d="M1201.7,314.6c0,0.1,0,0.2,0,0.2c0-1-0.1-2.1-0.1-3.1C1201.7,312.7,1201.7,313.7,1201.7,314.6z"/>
		<path class="st1" d="M745.8,300.4c0,0.1-0.1,0.2-0.1,0.3c-0.1,0.3-0.2,0.5-0.4,0.8C745.5,301,745.7,300.7,745.8,300.4z"/>
		<path class="st1" d="M751.8,288.8C751.8,288.9,751.8,288.9,751.8,288.8c-0.3,0.5-0.5,1-0.8,1.4c0,0.1-0.1,0.2-0.1,0.3
			C751.2,290,751.5,289.4,751.8,288.8z"/>
		<path class="st1" d="M737.5,319.9c0.1-0.4,0.3-0.7,0.4-1.1c0.2-0.4,0.3-0.9,0.5-1.3c-0.1,0.2-0.1,0.3-0.2,0.5
			c-0.3,0.8-0.6,1.6-0.9,2.4c0,0.1-0.1,0.3-0.1,0.4L737.5,319.9z"/>
		<path class="st1" d="M748.2,295.7c0.2-0.4,0.4-0.9,0.7-1.3c0.1-0.2,0.2-0.5,0.4-0.7c-0.1,0.2-0.2,0.5-0.4,0.7
			C748.6,294.8,748.4,295.2,748.2,295.7c-0.1,0.2-0.2,0.5-0.4,0.7C747.9,296.2,748,295.9,748.2,295.7z"/>
		<path class="st1" d="M782.3,247.2c0.4-0.5,0.9-1,1.3-1.5c-1.3,1.5-2.7,3.1-4,4.6C780.5,249.3,781.4,248.3,782.3,247.2z"/>
		<path class="st1" d="M807.6,221.2c-0.3,0.3-0.6,0.6-1,0.9C807,221.8,807.3,221.5,807.6,221.2z"/>
		<path class="st1" d="M786.8,242.2c-0.4,0.5-0.9,1-1.3,1.5C785.9,243.2,786.3,242.7,786.8,242.2z"/>
		<path class="st1" d="M789.9,238.7c0.2-0.3,0.5-0.5,0.7-0.8c-0.7,0.7-1.4,1.5-2,2.2C789.1,239.6,789.5,239.2,789.9,238.7z"/>
		<path class="st1" d="M792.7,235.7c1.3-1.3,2.5-2.6,3.8-3.9c0.6-0.6,1.2-1.3,1.9-1.9c1.4-1.4,2.9-2.8,4.4-4.2
			C799.3,228.9,796,232.3,792.7,235.7z"/>
		<path class="st1" d="M778.7,251.5c-1.1,1.3-2.1,2.6-3.2,3.9c-0.5,0.6-1,1.2-1.4,1.8C775.6,255.3,777.1,253.4,778.7,251.5z"/>
		<path class="st1" d="M773.9,257.4c-1.5,1.8-2.9,3.7-4.4,5.6C770.9,261.1,772.4,259.2,773.9,257.4z"/>
		<path class="st1" d="M766.6,266.7c-0.6,0.8-1.2,1.7-1.9,2.5C765.3,268.4,766,267.5,766.6,266.7z"/>
		<path class="st1" d="M722.4,363.8c0-0.1,0.1-0.2,0.1-0.4c-0.3,0.9-0.6,1.7-0.9,2.6C721.9,365.3,722.1,364.6,722.4,363.8z"/>
		<path class="st1" d="M726.8,350.7c0.8-2.3,1.5-4.6,2.3-6.8c0.7-1.9,1.3-3.9,2-5.8c0-0.1,0-0.1,0.1-0.2c0.4-1.2,0.8-2.4,1.2-3.6
			c0.8-2.4,1.7-4.8,2.5-7.2c0.3-1,0.7-1.9,1-2.9c-0.5,1.3-0.9,2.6-1.4,3.9c-0.2,0.7-0.5,1.3-0.7,2c-0.4,1.2-0.8,2.3-1.2,3.5
			c-0.1,0.2-0.2,0.5-0.3,0.7c-2.4,6.9-4.7,13.8-7,20.7C725.8,353.6,726.3,352.1,726.8,350.7z"/>
		<path class="st1" d="M758.9,277.3c-0.1,0.1-0.1,0.2-0.2,0.2c-0.2,0.4-0.5,0.7-0.7,1.1C758.3,278.2,758.6,277.8,758.9,277.3z"/>
		<path class="st1" d="M1278.9,174.9c-0.2,0.2-0.3,0.3-0.5,0.5c0.5-0.5,0.9-1,1.4-1.5C1279.6,174.3,1279.2,174.6,1278.9,174.9z"/>
		<path class="st1" d="M1286.4,167.1c-0.3,0.3-0.5,0.5-0.8,0.8c1-1,2-2,3-3C1287.9,165.7,1287.2,166.4,1286.4,167.1z"/>
		<path class="st1" d="M1257.9,199.2c-0.3,0.4-0.7,0.9-1,1.3c0.5-0.7,1-1.3,1.6-2C1258.3,198.8,1258.1,199,1257.9,199.2z"/>
		<path class="st1" d="M1251.4,207.7c-0.2,0.2-0.4,0.5-0.5,0.7c0.4-0.6,0.9-1.2,1.3-1.8C1251.9,207,1251.6,207.3,1251.4,207.7z"/>
		<path class="st1" d="M1264.7,191c-0.2,0.3-0.5,0.6-0.7,0.9c0.3-0.3,0.6-0.7,0.8-1C1264.7,190.9,1264.7,190.9,1264.7,191z"/>
		<path class="st1" d="M1180.9,190.2c-0.6,0.1-1.2,0.2-1.8,0.3C1179.7,190.5,1180.3,190.3,1180.9,190.2z"/>
		<path class="st1" d="M1142.5,198.4C1142.5,198.4,1142.5,198.4,1142.5,198.4c-0.1,0-0.2,0-0.4,0.1
			C1142.3,198.5,1142.4,198.4,1142.5,198.4z"/>
		<path class="st1" d="M1143.7,198.2c0.1,0,0.1,0,0.2,0c-0.2,0-0.5,0.1-0.7,0.1C1143.4,198.3,1143.5,198.3,1143.7,198.2z"/>
		<path class="st1" d="M1159.7,194.9c0.1,0,0.2-0.1,0.3-0.1c2.3-0.6,4.7-1.1,7-1.6c3.9-0.9,7.8-1.8,11.6-2.5
			c-2.9,0.5-5.8,1.2-8.7,1.8c-3.6,0.8-7.1,1.7-10.7,2.5C1159.4,194.9,1159.5,194.9,1159.7,194.9z"/>
		<path class="st1" d="M1157.2,195.5c0.4-0.1,0.7-0.2,1.1-0.2v0c-0.5,0.1-0.9,0.2-1.4,0.3C1157,195.5,1157.1,195.5,1157.2,195.5z"/>
		<path class="st1" d="M1206,287.4c-0.2,0.4-0.3,0.9-0.4,1.3c0.2-0.8,0.5-1.5,0.8-2.3C1206.2,286.8,1206.1,287.1,1206,287.4z"/>
		<path class="st1" d="M1202,305.3C1202,305.4,1202,305.4,1202,305.3c0,0.1,0,0.2,0,0.3c0,0.1,0,0.1,0,0.2c0,0.2-0.1,0.5-0.1,0.7
			c0,0.3,0,0.6-0.1,0.9c0.1-1,0.2-2.1,0.3-3.1C1202.1,304.7,1202,305,1202,305.3z"/>
		<path class="st1" d="M1202.5,301.5c-0.1,0.7-0.2,1.5-0.3,2.2c0,0.1,0,0.2,0,0.3c0.1-1,0.3-2,0.4-3.1
			C1202.6,301.2,1202.5,301.4,1202.5,301.5z"/>
		<path class="st1" d="M1227.1,244.3C1227.1,244.3,1227.1,244.3,1227.1,244.3C1227.1,244.3,1227.2,244.3,1227.1,244.3
			C1227.2,244.2,1227.2,244.3,1227.1,244.3z"/>
		<path class="st1" d="M1203.1,298.4c0.1-0.4,0.2-0.9,0.3-1.3C1203.2,297.5,1203.1,298,1203.1,298.4z"/>
		<path class="st1" d="M1201.8,308.9c0,0.3,0,0.6,0,0.9c0,0.5,0,1,0,1.5c0-1,0-2.1,0.1-3.1C1201.8,308.5,1201.8,308.7,1201.8,308.9z
			"/>
		<path class="st1" d="M1215.1,266.8c-0.1,0.2-0.2,0.5-0.3,0.7c0.3-0.6,0.6-1.1,0.8-1.7C1215.4,266.1,1215.2,266.5,1215.1,266.8z"/>
		<path class="st1" d="M1207.8,282.7c-0.2,0.4-0.3,0.9-0.5,1.3c0.2-0.5,0.4-1,0.6-1.5C1207.8,282.6,1207.8,282.6,1207.8,282.7z"/>
		<path class="st1" d="M1140.4,198.7C1140.4,198.7,1140.4,198.7,1140.4,198.7C1140.4,198.7,1140.4,198.7,1140.4,198.7
			C1140.4,198.7,1140.4,198.7,1140.4,198.7z"/>
		<path class="st1" d="M1204.3,293.1c0.3-1.1,0.6-2.2,0.9-3.2C1204.9,290.9,1204.6,292,1204.3,293.1z"/>
		<path class="st1" d="M970.6,173.7c0.1,0,0.1,0,0.2,0c-0.1,0-0.3,0-0.4,0C970.4,173.7,970.5,173.7,970.6,173.7z"/>
		<path class="st1" d="M1072.4,186.4c0.8,0.2,1.6,0.4,2.5,0.6C1074,186.8,1073.1,186.6,1072.4,186.4
			C1072.3,186.4,1072.4,186.4,1072.4,186.4z"/>
		<path class="st1" d="M1015.7,176.6c0.6,0.1,1.1,0.1,1.7,0.2c-0.7-0.1-1.4-0.1-2-0.2C1015.5,176.6,1015.6,176.6,1015.7,176.6z"/>
		<path class="st1" d="M1006,175.7c-1.1-0.1-2.1-0.2-3.2-0.3C1003.9,175.5,1004.9,175.6,1006,175.7z"/>
		<path class="st1" d="M1085.4,189.8c-0.3-0.1-0.6-0.2-1-0.3C1084.8,189.6,1085.1,189.7,1085.4,189.8z"/>
		<path class="st1" d="M1050.8,181.7c0.2,0,0.4,0.1,0.5,0.1c-0.5-0.1-1-0.2-1.5-0.3C1050.2,181.6,1050.5,181.7,1050.8,181.7z"/>
		<path class="st1" d="M1028.7,178.2c-0.4-0.1-0.8-0.1-1.1-0.2C1027.9,178.1,1028.3,178.1,1028.7,178.2z"/>
		<path class="st1" d="M1040.1,179.9c0,0,0.1,0,0.1,0c-0.8-0.1-1.5-0.2-2.3-0.4C1038.7,179.6,1039.4,179.7,1040.1,179.9z"/>
		<path class="st1" d="M1062.5,184.1c0,0,0.1,0,0.1,0c-0.3-0.1-0.7-0.2-1-0.2C1061.9,184,1062.2,184,1062.5,184.1z"/>
		<path class="st1" d="M1139.6,198.9C1139.6,198.9,1139.7,198.9,1139.6,198.9C1139.6,198.9,1139.6,198.9,1139.6,198.9
			C1139.6,198.9,1139.6,198.9,1139.6,198.9z"/>
		<path class="st1" d="M957,173.5h1.4c0.3,0,0.5,0,0.8,0c-1,0-1.9,0-2.9,0C956.5,173.5,956.8,173.5,957,173.5z"/>
		<path class="st1" d="M979.8,174.1c0.1,0,0.3,0,0.4,0c0.3,0,0.7,0,1,0c-0.7,0-1.4,0-2.1-0.1C979.3,174,979.5,174,979.8,174.1z"/>
		<path class="st1" d="M992.1,174.7c1.1,0.1,2.1,0.1,3.2,0.2c0,0,0,0,0,0c-1.2-0.1-2.4-0.2-3.5-0.2
			C991.9,174.7,992,174.7,992.1,174.7z"/>
		<g>
			<path d="M1590.4,1010.7c16-9.8,22.6-22.6,18.8-39.2c-3.6-15.9-16.4-21.6-30.7-24.4c-26.5-5-52.1-1.3-76.9,8.7
				c-9.6,3.9-17.8,9.3-25.5,15.7c-15,12.2-27.4,27.2-37.3,43.8c-34.7,58.2-46.3,102.5-86.1,138.9c-20.9,19-43.6,35-71.3,41.4
				c-21.6,5-43.9,7.5-65.7-1c-7.3-2.8-14.3-6.3-19.2-12c-5.8-41.5-23.9-77.3-47.4-110.4c-22.9-32.2-38.5-66.9-45.9-106.1
				c-6-31.6-32.8-138.6-13.2-163.7c34.8-44.7,149.5,79.8,204,135.5c0,0,0,0,0,0c-1.8,2.2-3.6,4.5-5.3,6.9
				c-12.4,18.2-16.5,37.6-16.3,48.7c0.4,16.4,10.8,28.8,28.6,34l12.5,3.6c5.3,5.6,14.4,11.3,29.1,11.3c0.4,0,0.8,0,1.2,0
				c15.4-0.3,24.6-6.6,29.8-12.6l12.3-4.2c17.6-5.9,27.5-18.8,27.1-35.2c-0.4-18.8-4.3-34.9-11.1-47.5c0,0,0,0,0,0c0,0,0,0,0,0
				c-2.8-5.1-6-9.7-9.7-13.7c0,0,0,0,0,0v0c-17.4-29.5-51.7-96.6-55.7-103.1c-28.1-46.3-62-66.4-103.3-101.6
				c-47.8-40.8-102.2-69-163.2-61.5c-6.9,0.8,16.9-58,21-76.5h0c-2,0.4-13.2,4.2-18.8,5.8c-2.1,0.6-4.1,1.2-6.2,1.7
				c-3.5,1-7,1.9-10.5,2.8c-1.6,0.4-3.3,0.8-4.9,1.2c-1.8,0.4-3.6,0.9-5.4,1.3c-1.4,0.3-2.8,0.7-4.2,1c-0.3,0.1-0.5,0.1-0.8,0.2
				c0,0,0,0,0,0c-2.8,15.3-14.2,34.1-20.8,48.1c-2,4.2-4,8.4-6.1,12.7c-8.3,17.1-17,33.9-26.2,50.5c-49,88.5-108.5,171-171,250.4
				c0,0,0,0,0,0c0,0,0,0,0,0c0,0,0,0.1-0.1,0.1c0,0,0,0,0,0c0,0,0,0,0,0c0,0,0,0,0,0c0,0,0,0,0,0c0.1-0.9,0.3-1.9,0.4-2.8
				c0.1-1,0.3-2,0.4-3c0.1-0.9,0.3-1.9,0.4-2.8c0-0.1,0-0.2,0-0.3c4-29.5,7.1-70.5,9.6-115.2c0,0,0,0,0-0.1c0,0,0,0,0,0
				c0.5-13.7,0.7-27.6,0.8-41.4l0,0c0.2-34.3-0.7-68.7-2.7-101.6c-1.2-20.7-2.8-40.9-4.8-59.9c-0.2-2.1-0.5-4.3-0.9-6.6
				c-2.1-12.4-6.6-27-12.1-41.5v0c-14.5-8.5-28.1-18.7-40.8-30.5c20.9,32.1,39.9,76.3,32.2,124.3c-63.5-6.9-188.1,86.9-292.6,63.6
				c0,0,0,0,0,0c0,0,0,0,0,0c-0.9-0.7-1.8-1.4-2.8-2c-16.5-11.8-33.5-17.7-50.5-17.7c-13.8,0-26,3.9-36.2,9.8
				c-10.2,5.9-18.3,13.6-23.7,21.2c-10.2,14.3-8.5,31.9,4.7,48.3l1.6,2L408,817c0.3,1.9,0.8,4,1.5,6.2c2.4,7.4,7.8,16,18.8,23.9
				c4,2.9,8.1,5.1,12.1,6.8c5.4,2.2,10.7,3.3,16,3.3c2.3,0,4.7-0.2,6.9-0.7l15.9,5.7c3.3,1.2,6.6,2.1,9.7,2.6c0,0,0.1,0,0.1,0
				c1.7,0.3,3.4,0.5,5,0.6c1.1,0.1,2.2,0.1,3.3,0.1c7.8,0,14.9-2.2,20.7-6.3c0,0,0,0,0,0c0,0,0.1,0,0.1,0
				c23.1-11.5,39-45.1,145-38.3c58.7,3.8,108.6-1.8,129.2-3.6c0.7,0.8,11.4,83.3,7.7,121.7c-2.6,28.1-8.1,55.4-16.5,82.4
				c-9.2,29.7-7.9,60.5-4.2,91c3.2,26.2,6.4,52.4,18,76.7c7.8,16.3,16.3,32.2,26.1,46.6c-36,96.5-68.1,193.1-61.2,299.4
				c-2.7-1.8-22.8-15-41.5-28.7c0,0,0,0,0,0c0,0,0,0,0,0c-12.3-14.1-31.4-25.7-55.4-33c-14.3-4.4-25.3,0.2-29.9,12.4l-3.3,8.6
				c-5.1,2.6-10.3,8.2-10.2,20.1c0,0.3,0,0.7,0,1c0.4,11.5,5.7,19.9,10.7,25.5l3.5,10.6c5,15.2,16.1,26.4,30.5,30.7
				c5.2,1.6,12.5,2.8,20.5,2.7c0,0,0,0,0,0c9.9,5.5,20,10.6,30.3,15.4c16.9,7.9,38.7,16.4,60.1,30.6c4.4,2.9,8.6,3.6,13.4,2.3
				c17.2-4.4,29.7-18.4,31.2-36c0.9-9.9,1.1-20-1.7-29.8c-1.1-3.8-1-7.4,0.4-11.4c47.8-139.9,165.8-270.7,173.7-258.3
				c80.8,55.4,181.8,199.2,280.7,214.7c-8.6,7.7-3.2,2.1-8.9,7.2c0,0,0,0,0,0c-4.9-1-10.1-1.5-15.5-1.3
				c-17.1,0.6-31.2,7.1-38.1,12.4c-10.1,7.8-13,20.1-8,33.7l3.5,9.5c-1,5.9-0.4,14.3,6.4,23.5c0.2,0.3,0.4,0.5,0.6,0.8
				c7.4,9.5,15.5,12.3,21.7,12.8l8.3,5.8c11.9,8.3,24.5,8.5,34.6,0.7c10.4-8,18.1-16.8,23-25.8c0,0,0,0,0,0
				c4.8-7,9.4-14.3,15.2-20.3c22-22.8,56.4-39.9,57.3-69.2c0.8-27-18.4-36.1-45.3-38.1c-7.3-0.5-15.2,1.1-22.1-2.8
				c-18.2-10.4-32.9-24.4-43.2-42.9c-12.7-22.9-24.5-46.2-35.5-69.9c-6.7-14.3-12.2-29-16.2-44.1c2-2,4-1.5,5.9-1.4
				c20.9,0.7,41.4-1.4,61.8-6.6c27.4-6.9,53.8-16,78.9-28.9c47.7-24.6,80.1-62.5,95-113.9c7.6-26.1,16.9-51,31.2-74.2
				c15.8-25.6,36.6-44.4,66.6-51.9C1566,1024.2,1578.5,1018,1590.4,1010.7z"/>
			<path d="M1570.4,1049.5c-5.9,4.3-12.4,7.6-19.3,10c-6.9,2.8-14.4,3.6-22.3,5c7.5,2.2,15.9,3.2,23.9,1.5c8.1-1.5,16-4.7,22.6-9.6
				c6.7-4.8,12.4-10.8,16.9-17.5c4.4-6.7,8-14,9.5-21.9c-4.8,6.3-9.6,12.3-14.7,17.7C1581.8,1040.4,1576.3,1045.3,1570.4,1049.5z"/>
			<path d="M1523.4,911.5c7-2.8,14.4-4.6,22-5.3c7.6-0.8,15.4-0.2,23.6,0.7c-7-4.3-15.2-6.9-23.7-7.4c-8.5-0.5-17.1,0.9-25,4.1
				c-7.9,3.1-15.1,7.8-21.3,13.3c-6.1,5.6-11.5,12.1-15,19.6c6.3-5.2,12.6-10,19.1-14.3C1509.6,917.9,1516.3,914.2,1523.4,911.5z"/>
			<path d="M1590.8,1061.8c-3.3,3.2-6.7,6.1-10.3,8.6c-3.5,2.6-7.4,4.6-11.4,6.3c-4.1,1.9-8.6,2.8-13.6,4.3c4.6,2,10,3,15.2,2.2
				c5.2-0.7,10.4-2.7,14.7-5.9c4.3-3.1,7.9-7,10.6-11.4c2.6-4.4,4.6-9.3,4.9-14.4C1597.4,1055.2,1594.1,1058.6,1590.8,1061.8z"/>
			<path d="M863.3,510.4c-0.1,0.8-0.2,1.6-0.4,2.4c0,0,0,0.1,0,0.1c-0.1,0.6-0.3,1.1-0.5,1.7c-0.2,0.6-0.4,1.1-0.6,1.7
				c-0.1,0.3-0.3,0.7-0.5,1c-0.1,0.2-0.2,0.4-0.3,0.6c-0.1,0.3-0.3,0.5-0.4,0.8c-0.1,0.2-0.2,0.4-0.4,0.6c-0.9,1.4-2,2.7-3.2,3.8
				c-0.1,0.1-0.2,0.2-0.3,0.3c-0.4,0.4-0.8,0.7-1.2,1c-0.1,0.1-0.2,0.1-0.2,0.2c-0.6,0.5-1.3,0.9-2,1.3c-0.1,0.1-0.2,0.1-0.3,0.2
				c-0.7,0.4-1.4,0.7-2.1,1.1c-0.2,0.1-0.4,0.2-0.6,0.2c-0.8,0.3-1.5,0.6-2.3,0.9c-0.1,0-0.2,0-0.3,0.1c-0.9,0.3-1.8,0.5-2.7,0.7
				c0,0-0.1,0-0.1,0c-0.3,0.1-0.7,0.1-1,0.2c-0.8,0.1-1.6,0.3-2.5,0.3c-0.1,0-0.2,0-0.3,0c-19.7,1.7-35.2-7.7-47.8-23.2
				c-1.9-2.3-2.8-4.8-6.4-6.8c0,0,0,0,0,0c4.4,24.4,28.2,37.8,58.7,35.5c7-0.5,14.3-1.9,21.9-4.1c4.2,5.4,9,10.2,14.1,14.2
				c17.5,13.6,38.9,18.4,54.3,12.1c6-2.5,11.1-6.6,14.7-12.6c0,0,0,0,0,0c-0.8,0.4-1.6,0.9-2.3,1.3c0,0-0.1,0-0.1,0.1c0,0,0,0,0,0
				c-2.4,1.3-4.9,2.4-7.3,3.3c-14,5.4-27.8,5-41.8-0.9c-12.5-5.2-19.7-14.7-21-29c0,0,0-0.1,0-0.1c-0.1-0.6-0.1-1.3-0.1-1.8
				c0-0.2,0-0.5,0-0.7c0-0.5,0-1,0.1-1.5c0,0,0-0.1,0-0.1c0,0,0-0.1,0-0.1c0.1-0.5,0.2-1.1,0.3-1.5c0,0,0-0.1,0-0.1
				c0.1-0.5,0.3-0.9,0.4-1.4c0,0,0-0.1,0-0.1c0.3-0.9,0.7-1.7,1.2-2.4c0.1-0.2,0.3-0.4,0.4-0.6c0.2-0.2,0.3-0.4,0.5-0.6
				c0.2-0.2,0.4-0.5,0.6-0.7c0.1-0.1,0.1-0.2,0.2-0.2c1.1-1.2,2.4-2.3,3.8-3.3c0,0,0,0,0.1,0c0.7-0.5,1.5-1,2.2-1.4
				c0.1-0.1,0.2-0.1,0.3-0.2c1.5-0.9,3-1.7,4.4-2.6c0.8-0.4,1.5-0.9,2.3-1.4c0,0,0,0,0,0c0.4-0.3,0.8-0.5,1.3-0.8
				c0.9-0.6,1.8-1.1,2.7-1.7c0.1,0,0.1-0.1,0.2-0.1c0.2-0.1,0.4-0.3,0.7-0.5c0,0,0.1-0.1,0.1-0.1c0.3-0.2,0.5-0.4,0.8-0.6
				c0.3-0.2,0.5-0.5,0.8-0.7c0,0,0.1-0.1,0.1-0.1c0.4-0.4,0.8-0.8,1.2-1.3c0.1-0.1,0.1-0.2,0.2-0.3c0.4-0.5,0.7-1.1,1-1.7
				c0.1-0.1,0.1-0.3,0.2-0.4c0.1-0.1,0.1-0.3,0.2-0.5c0.1-0.1,0.1-0.3,0.2-0.4c0-0.1,0.1-0.3,0.1-0.4c0.1-0.2,0.1-0.3,0.1-0.5
				c0.1-0.4,0.2-0.7,0.2-1.1c0-0.2,0-0.4,0.1-0.5c0-0.3,0.1-0.6,0.1-0.9c0-0.3,0-0.7,0-1.1c0-0.3,0-0.6,0-0.9c0-0.5-0.1-1.1-0.1-1.6
				c0-0.1,0-0.3,0-0.4c0,0,0,0,0,0c-1,0.4-2.1,0.7-3.1,1c-0.2,0.1-0.4,0.1-0.6,0.2c-0.8,0.2-1.7,0.5-2.5,0.7c-1,0.2-2,0.4-2.9,0.6
				c-0.1,0-0.3,0.1-0.4,0.1c-0.6,0.1-1.1,0.2-1.7,0.2c-0.5,0.1-1.1,0.1-1.6,0.2c-0.3,0-0.7,0.1-1,0.1c-2,0.1-4,0.1-5.9,0
				c-0.1,0-0.3,0-0.4,0c-0.9-0.1-1.7-0.2-2.6-0.3c-0.2,0-0.3,0-0.5-0.1c-0.8-0.1-1.6-0.3-2.4-0.5c-0.3-0.1-0.6-0.2-1-0.3
				c-0.7-0.2-1.4-0.4-2.1-0.7c-0.2-0.1-0.4-0.1-0.6-0.2c-0.9-0.3-1.8-0.7-2.7-1.1c-0.1-0.1-0.2-0.1-0.3-0.2
				c-0.4-0.2-0.9-0.5-1.3-0.7c-0.7-0.4-1.3-0.7-1.9-1.1c-0.7-0.4-1.4-0.9-2.1-1.4c0,0-0.1-0.1-0.1-0.1c-0.7-0.5-1.4-1.1-2.1-1.7
				c-0.3-0.2-0.6-0.5-0.9-0.7c-0.7-0.6-1.4-1.3-2.1-1.9c-0.2-0.2-0.3-0.4-0.5-0.5c-0.7-0.7-1.4-1.4-2.1-2.2
				c-0.1-0.1-0.2-0.2-0.3-0.3c-0.8-0.9-1.5-1.8-2.2-2.7c0,0-0.1-0.1-0.1-0.1c0,0,0,0,0,0c0,0,0,0,0,0c-0.4,0.7-0.8,1.3-1.1,2
				c-0.1,0.1-0.1,0.3-0.2,0.4c-0.3,0.6-0.6,1.2-0.8,1.8c-0.1,0.1-0.1,0.3-0.1,0.4c-0.2,0.5-0.4,1.1-0.5,1.6c0,0.2-0.1,0.3-0.1,0.5
				c-0.1,0.5-0.2,1-0.3,1.5c0,0,0,0,0,0.1c-0.8,6.6,3,11,5.6,15.6c0.1,0.2,0.2,0.3,0.3,0.5c0.3,0.6,0.6,1.1,0.9,1.7
				c0,0.1,0.1,0.2,0.1,0.3c0.5,1.1,1,2.2,1.4,3.3c0.1,0.2,0.1,0.3,0.2,0.5c1.1,3.3,1.7,6.4,1.7,9.4c0,0.1,0,0.3,0,0.4
				c0,0.8,0,1.5-0.1,2.3C863.3,510.1,863.3,510.2,863.3,510.4z"/>
			<path d="M952.8,536.9c1.8-0.3,3.7-0.5,5.5-0.7c0.1,0,0.2,0,0.4,0c1.9-0.2,3.8-0.4,5.7-0.5c0.2,0,0.4,0,0.6,0
				c1.5-0.1,3.1-0.1,4.6-0.2c0.5,0,0.9,0,1.4,0c1.7,0,3.4,0,5.2,0c0.4,0,0.9,0,1.3,0c1.4,0,2.9,0.1,4.3,0.2c0.5,0,1,0.1,1.6,0.1
				c1.4,0.1,2.7,0.2,4.1,0.3c1,0.1,2,0.2,3,0.3c0.8,0.1,1.6,0.2,2.5,0.3c1.1,0.1,2.2,0.3,3.3,0.5c1.1,0.2,2.2,0.3,3.3,0.6
				c0.2,0,0.4,0.1,0.6,0.1c1.5,0.3,2.9,0.6,4.4,0.9c2.3,0.5,4.7,1,7,1.6c0.4,0.1,0.8,0.2,1.2,0.3c1.6,0.4,3.2,0.9,4.8,1.4
				c1.4,0.4,2.7,0.8,4.1,1.3c0.4,0.1,0.8,0.3,1.3,0.4c1.7,0.6,3.3,1.1,5,1.7c1.5,0.5,3,1.1,4.4,1.7c0.8,0.3,1.5,0.6,2.3,0.9
				c2.5,1,4.9,2.1,7.3,3.1c0.1,0,0.1,0.1,0.2,0.1c2.4,1.1,4.9,2.2,7.3,3.4c3.5,1.7,6.9,3.5,10.3,5.3c0.3,0.2,0.7,0.4,1,0.5
				c9.2,5.1,18.4,10.7,27.4,16.6c1.3,0.8,2.5,1.6,3.8,2.5c1.8,1.2,3.6,2.4,5.4,3.6c0.5,0.3,1,0.6,1.4,1c2.9,1.9,5.7,4,8.6,6
				c-2-2.3-4-4.5-6.1-6.7h0c-0.5-0.5-0.9-1-1.4-1.4c-10.1-10.4-21.7-19.9-34.1-28c0,0,0,0,0,0c0,0,0,0-0.1,0c0,0,0,0,0,0
				c-4.7-3.1-9.5-6-14.4-8.6c-1.7-0.9-3.3-1.8-5-2.6c-0.3-0.1-0.5-0.3-0.8-0.4c-1.6-0.8-3.1-1.5-4.7-2.3c0,0,0,0-0.1,0
				c-1.6-0.7-3.2-1.5-4.8-2.2c-0.2-0.1-0.4-0.2-0.7-0.3c-0.9-0.4-1.9-0.8-2.8-1.1c-1.3-0.5-2.6-1-3.8-1.5c-1.2-0.4-2.3-0.9-3.5-1.3
				c-0.1,0-0.2-0.1-0.4-0.1c-0.1,0-0.2-0.1-0.4-0.1c-1.4-0.5-2.8-0.9-4.1-1.4c-0.7-0.2-1.4-0.4-2.1-0.6c-1.2-0.3-2.3-0.7-3.5-1
				c-0.5-0.1-1-0.3-1.6-0.4c-1.5-0.4-3-0.8-4.4-1.1c-1.6-0.4-3.1-0.7-4.6-1c-0.4-0.1-0.8-0.1-1.2-0.2c-1.3-0.2-2.5-0.4-3.8-0.6
				c-0.3,0-0.6-0.1-0.9-0.1c-1.5-0.2-3.1-0.4-4.6-0.6c-0.2,0-0.5,0-0.7-0.1c-1.3-0.1-2.6-0.2-3.8-0.3c-0.4,0-0.8-0.1-1.3-0.1
				c-1.3-0.1-2.5-0.1-3.8-0.1c-0.3,0-0.5,0-0.8,0c-1.5,0-2.9,0-4.4,0c-0.4,0-0.7,0-1.1,0.1c0,0,0,0-0.1,0c-1.2,0.1-2.4,0.1-3.6,0.2
				c-0.3,0-0.6,0-0.9,0.1c-1.4,0.1-2.7,0.3-4.1,0.5c-0.2,0-0.5,0.1-0.7,0.1c-1.2,0.2-2.5,0.4-3.7,0.6c-0.4,0.1-0.8,0.2-1.2,0.2
				c-1.3,0.3-2.5,0.6-3.8,0.9c-0.2,0.1-0.5,0.1-0.7,0.2c-1.2,0.3-2.4,0.7-3.6,1.1c-0.3,0.1-0.6,0.2-0.9,0.3
				c-1.1,0.4-2.2,0.8-3.3,1.2c-0.5,0.2-0.9,0.4-1.4,0.5c-0.5,0.2-1.1,0.5-1.6,0.7c-0.9,0.4-1.9,0.8-2.8,1.3
				c-0.9,0.4-1.8,0.9-2.7,1.4c-0.4,0.2-0.8,0.4-1.2,0.7c-1,0.6-2.1,1.2-3.1,1.9c-0.4,0.2-0.7,0.5-1.1,0.7c-1.1,0.8-2.2,1.5-3.3,2.3
				c0,0,0,0,0,0c2.1-0.6,4.2-1.1,6.3-1.6c0.1,0,0.3-0.1,0.4-0.1c1.6-0.4,3.1-0.7,4.7-1c0.6-0.1,1.2-0.2,1.8-0.4
				c1.8-0.3,3.6-0.7,5.5-0.9C952.4,537,952.6,536.9,952.8,536.9z"/>
			<path d="M750.9,493.3L750.9,493.3c-0.4-0.2-0.8-0.5-1.2-0.7c-1.2-0.7-2.3-1.3-3.5-2c-11.9-6.4-24.4-11-36.5-12.9
				c-17.2-2.7-33.6-0.2-46.5,9.6c18.1-5.1,35-5,51-1.4c0,0,0,0,0,0c9.7,2.2,19.1,5.6,28.3,9.9h0c0.2,0.1,0.4,0.2,0.6,0.3
				c0.6,0.3,1.3,0.6,1.9,0.9c14,6.9,27.5,15.7,40.9,25.1c0,0,0,0,0,0C776.1,511.1,764,501.1,750.9,493.3z"/>
			<path d="M685.7,453.1c-8.7,2.3-16.8,6.2-24.1,11.7c10.4-2.9,20.3-4.5,30.1-5.1c1.5-0.1,3-0.1,4.5-0.2c1.7,0,3.4,0,5,0h0h0.2
				c0,0,0,0,0,0c1.3,0,2.5,0,3.8,0.1c0.4,0,0.8,0,1.2,0.1c1.3,0.1,2.6,0.1,3.9,0.2c1,0.1,2.1,0.2,3.1,0.3c0.3,0,0.6,0.1,1,0.1
				c2.6,0.3,5.3,0.6,7.9,1.1c5.2,0.9,10.3,2,15.4,3.4c11.9,3.2,23.5,7.8,34.8,13.4c0.8,0.4,1.6,0.8,2.4,1.2c1.8,0.9,3.6,1.9,5.5,2.8
				c10.1,5.4,20.1,11.5,29.9,18c2.6,1.7,5.3,3.5,7.9,5.3c3.3,2.2,6.5,4.5,9.8,6.8c0,0,0,0,0,0c0,0,0,0,0,0c-2.5-2.9-5.1-5.7-7.9-8.5
				c-2.2-2.2-4.4-4.4-6.8-6.5c-7.3-6.8-15.3-13-23.7-18.6c-2.1-1.4-4.3-2.8-6.5-4.2c5.6-3.4,11.1-7,16.6-10.6
				c3.8,2.1,7.6,4.3,11.5,6.5c2.9,1.7,5.8,3.5,8.7,5.3c0.4,0.3,0.9,0.5,1.3,0.8c2.3,1.4,4.5,2.9,6.8,4.4c1,0.6,1.9,1.3,2.9,1.9
				c2.2,1.5,4.4,3,6.7,4.5c0.5,0.3,1,0.6,1.4,1c2.8,1.9,5.7,3.9,8.5,5.9c0,0,0,0,0,0c0,0,0,0,0,0c-0.9-1.1-1.9-2.1-2.8-3.2
				c-0.1-0.1-0.1-0.2-0.2-0.2c-0.4-0.5-0.8-0.9-1.3-1.4c0,0,0,0,0,0c-0.2-0.3-0.5-0.6-0.8-0.8c0,0,0,0,0,0c-0.3-0.3-0.5-0.5-0.8-0.8
				c-0.4-0.4-0.8-0.8-1.2-1.2c-1-1-1.9-2-2.9-3c-0.5-0.5-1.1-1-1.6-1.6c-0.5-0.5-1.1-1-1.6-1.6c-0.1-0.1-0.1-0.1-0.2-0.2
				c-1.5-1.4-2.9-2.7-4.4-4.1c-0.1-0.1-0.2-0.2-0.3-0.3c-0.6-0.6-1.2-1.1-1.9-1.7c-0.6-0.5-1.3-1.1-1.9-1.6
				c-0.3-0.2-0.6-0.5-0.9-0.7c-0.3-0.2-0.6-0.5-0.9-0.7c-0.5-0.4-0.9-0.8-1.4-1.2c-0.1-0.1-0.2-0.2-0.3-0.2c-1-0.8-2.1-1.7-3.1-2.5
				c-1.7-1.3-3.4-2.6-5.2-3.9c-0.1,0-0.1-0.1-0.2-0.1c-0.5-0.3-0.9-0.7-1.4-1c-0.3-0.2-0.6-0.4-0.9-0.6c-1-0.7-1.9-1.3-2.9-2
				c-0.5-0.3-0.9-0.7-1.4-1c1.1-0.8,2.2-1.5,3.3-2.3c1.1-0.8,2.2-1.5,3.3-2.3c1.1-0.8,2.2-1.5,3.2-2.3c1.1-0.8,2.1-1.5,3.2-2.3
				c9.6-7,18.7-14,27.3-20.9c1-0.8,1.9-1.5,2.8-2.3c1.9-1.5,3.7-3,5.5-4.5c3.7-3,7.2-6,10.6-8.9c1.1-1,2.3-1.9,3.4-2.9
				c3.2-2.8,6.2-5.5,9.1-8.1c0.9-0.8,1.7-1.5,2.5-2.3c1.9-1.7,3.8-3.4,5.5-5c1.1-1,2.1-2,3.2-2.9c0.5-0.5,1-1,1.5-1.4
				c1-0.9,2-1.8,2.9-2.7c6-5.7,10.7-10.3,13.7-13.3l0.8-0.8c2-2.1,3.1-3.2,3.1-3.2c0.2,1.3,0.4,2.7,0.7,4c0.3,1.6,0.6,3.3,1,4.9
				c0.3,1.2,0.5,2.4,0.8,3.6c0.3,1.3,0.6,2.5,0.9,3.7c0.7,2.8,1.5,5.7,2.3,8.4c0.4,1.2,0.7,2.4,1.1,3.6c0.4,1.5,0.9,2.9,1.4,4.3
				c0.4,1.4,0.9,2.7,1.4,4.1c0.1,0.3,0.2,0.6,0.3,1c1,2.9,2.1,5.8,3.3,8.6c1.3,3.2,2.6,6.3,4.1,9.4c0.4,1,0.9,1.9,1.4,2.9
				c0.2,0.6,0.5,1.1,0.8,1.7c0.4,0.9,0.9,1.8,1.3,2.7c0.4,0.8,0.8,1.7,1.3,2.5c0.4,0.8,0.8,1.6,1.2,2.4c0.1,0.1,0.1,0.2,0.2,0.4
				c0.2,0.3,0.4,0.7,0.6,1c0.6,1.2,1.3,2.4,1.9,3.6c2.7,4.8,5.5,9.6,8.5,14.2c0.8,1.3,1.6,2.6,2.5,3.8c0.5,0.7,1,1.5,1.5,2.2
				c1.6,2.5,3.3,4.9,5.1,7.3c0.4,0.5,0.8,1.1,1.2,1.6c1,1.3,2,2.7,3,4c0,0,0,0,0,0c-1.6,0.9-3.2,1.9-4.8,2.9
				c-0.3,0.2-0.6,0.4-0.9,0.5c0,0,0,0-0.1,0c-0.8,0.5-1.6,1.1-2.5,1.7c-0.2,0.1-0.3,0.2-0.5,0.3c-1,0.7-1.9,1.4-2.9,2.1
				c2.3-0.6,4.5-1.2,6.7-1.8c0.6-0.1,1.1-0.3,1.7-0.4c2.1-0.5,4.2-1,6.2-1.4c0,0,0,0,0,0c4.7,6,9.6,11.9,14.6,17.5
				c-1.2,0.3-2.4,0.7-3.5,1c-0.1,0-0.2,0.1-0.3,0.1c-0.4,0.1-0.8,0.3-1.2,0.4c-0.6,0.2-1.3,0.4-1.9,0.7c-0.1,0-0.2,0.1-0.3,0.1
				c-0.6,0.2-1.2,0.4-1.8,0.7c-0.4,0.2-0.8,0.3-1.2,0.4c-0.1,0-0.2,0.1-0.3,0.1c-0.1,0.1-0.3,0.1-0.4,0.2c-0.5,0.2-1,0.4-1.5,0.6
				c-0.3,0.2-0.7,0.3-1,0.4c-0.1,0-0.2,0.1-0.2,0.1c-0.3,0.1-0.6,0.3-0.8,0.4c-0.5,0.2-1,0.5-1.5,0.7c-0.6,0.3-1.3,0.7-1.9,1
				c-0.5,0.2-0.9,0.5-1.4,0.8c-0.8,0.4-1.6,0.9-2.4,1.4c-0.3,0.2-0.6,0.3-0.8,0.5c-1,0.6-2,1.3-3,1.9c-0.1,0.1-0.2,0.1-0.3,0.2
				c0,0-0.1,0.1-0.1,0.1c-0.3,0.2-0.5,0.4-0.8,0.6c-0.8,0.6-1.6,1.2-2.4,1.8c0,0,0,0,0,0c0,0,0.1,0,0.1,0c1.6-0.4,3.2-0.9,4.8-1.3
				c0.9-0.2,1.8-0.4,2.8-0.7c0.7-0.2,1.5-0.4,2.2-0.5c0.6-0.1,1.2-0.3,1.8-0.4c1.1-0.2,2.1-0.4,3.2-0.6c0.4-0.1,0.8-0.2,1.1-0.2
				c1.6-0.3,3.3-0.6,4.9-0.8c0.3,0,0.5-0.1,0.8-0.1c1.2-0.2,2.3-0.3,3.5-0.5c0,0,0.1,0,0.1,0c1.9-0.3,3.7-0.5,5.6-0.6
				c0.3,0,0.6-0.1,0.9-0.1c1.2-0.1,2.3-0.2,3.4-0.3c0.1,0,0.1,0,0.2,0c0,0,0,0,0,0c0.4-0.1,0.8-0.1,1.1-0.1c0,0,0,0,0.1,0
				c0.7,0,1.4-0.1,2.1-0.1c1.5-0.1,3-0.2,4.5-0.2c1.6,0,3.2,0,4.8,0c0.6,0,1.1,0,1.7,0c2,0,4,0.1,5.9,0.2c0.2,0,0.3,0,0.5,0
				c1.9,0.1,3.9,0.3,5.8,0.4c1.1,0.1,2.1,0.2,3.2,0.4c3.2,0.4,6.3,0.8,9.5,1.3c0.2,0,0.4,0.1,0.6,0.1c1.9,0.3,3.7,0.7,5.6,1.1
				c0.4,0.1,0.8,0.2,1.2,0.3c1.6,0.3,3.2,0.7,4.8,1.1c1,0.2,2,0.5,3,0.8c1,0.3,2,0.5,3,0.8c2.4,0.7,4.8,1.4,7.2,2.1
				c0.1,0,0.1,0,0.2,0.1c0,0,0.1,0,0.1,0c0.2,0.1,0.4,0.1,0.7,0.2c1.1,0.4,2.2,0.7,3.3,1.1c1.2,0.4,2.5,0.9,3.7,1.3
				c1.2,0.4,2.4,0.8,3.6,1.3c0.1,0,0.2,0.1,0.3,0.1c1.7,0.6,3.4,1.3,5.1,2c0.4,0.2,0.8,0.3,1.2,0.5c1,0.4,2,0.9,3.1,1.3
				c1,0.4,2,0.9,3.1,1.3c1.3,0.6,2.5,1.1,3.8,1.7c0.6,0.3,1.3,0.6,1.9,0.9c1.7,0.8,3.4,1.6,5.2,2.5c2.6,1.3,5.2,2.6,7.7,3.9
				c0,0,0,0,0,0c0.1,0.1,0.2,0.1,0.4,0.2c0,0,0,0,0,0c1.9,1,3.9,2.1,5.8,3.1c1.6,0.9,3.2,1.8,4.8,2.7h0c0.1,0.1,0.2,0.1,0.3,0.1
				c2.2,1.2,4.4,2.5,6.5,3.8c0.6,0.3,1.2,0.7,1.7,1c2.3,1.4,4.5,2.8,6.8,4.2c0.7,0.4,1.4,0.9,2.1,1.3c1.7,1.1,3.3,2.1,5,3.2
				c0.5,0.3,1,0.6,1.5,0.9c0.9,0.6,1.8,1.2,2.7,1.8c0.2,0.1,0.4,0.3,0.6,0.4c3.2,2.1,6.4,4.2,9.6,6.4c0.1,0,0.1,0.1,0.2,0.1
				c4,2.7,8,5.5,12,8.3c0,0,0,0,0,0c0,0,0,0,0,0c-3.1-3.5-6.3-7-9.6-10.4c2.1-1.9,4.1-3.8,6.1-5.8c2.2-2.2,4.4-4.5,6.5-6.8
				c3.8-4.3,7.5-8.7,11-13.2c0.8,0.5,1.6,1,2.4,1.5c3.8,2.5,7.6,5,11.3,7.6c5.6,3.8,11.1,7.6,16.7,11.5c-4.6-5.3-9.5-10.5-14.5-15.5
				c-0.5-0.5-1-1-1.6-1.5l0,0c46.2,7.8,68.2-31.8,68.8-33c0,0,0,0,0,0h0l0,0c0,0,0,0,0,0h0l0,0c0,0,0,0,0,0
				c-9.1,1.9-18.2,4.8-27.2,7.5c0,0,0,0,0,0c0,0,0,0,0,0c-14.6-0.6-23.9-15.6-18.6-29c0.1-0.1,0.1-0.3,0.2-0.4
				c0.4-0.9,0.8-1.9,1.2-2.9c0.9-2.1,1.8-4.3,2.7-6.4c0.2-0.5,0.4-1,0.6-1.5c1.1-2.5,2.2-5,3.4-7.6c0.1-0.2,0.2-0.3,0.2-0.5
				c0.4-0.8,0.8-1.7,1.2-2.5c0.2-0.4,0.3-0.7,0.5-1.1c0.3-0.7,0.7-1.4,1-2.2c0.2-0.5,0.5-1,0.7-1.5c0.3-0.6,0.6-1.3,0.9-1.9
				c0.3-0.6,0.6-1.2,0.9-1.8c0.3-0.6,0.6-1.1,0.9-1.7c0.4-0.7,0.7-1.4,1.1-2.1c0.3-0.5,0.5-1,0.8-1.5c0.4-0.8,0.9-1.6,1.3-2.4
				c0.2-0.4,0.4-0.8,0.6-1.2c0.5-1,1.1-1.9,1.6-2.9c0.2-0.3,0.3-0.5,0.5-0.8c0.7-1.2,1.4-2.4,2.1-3.7c0,0,0-0.1,0.1-0.1
				c1.5-2.6,3.2-5.3,4.9-8c2.3-3.7,4.1-7.1,6-10.2c1.6-2.5,3.3-4.8,5.6-7c18.3-17.3,36.3-34.9,48.8-56.9c0.8-1.4,1.6-2.8,2.3-4.3
				c7.4-14.3,13.9-28.9,19.7-43.7c0.3-0.9,0.7-1.8,1.1-2.7c0.6-1.6,1.2-3.2,1.8-4.8c0.9-2.3,1.7-4.7,2.6-7
				c12-34,20.4-69.2,26.8-104.8c1.8-10.1,3.5-20.1,5-30.3c1-6.3,1.3-13.1-3-18.3c-0.8-1-1.8-1.9-2.9-2.8c-5.3-2.8-10.5-2-15.7-0.7
				c-1.1,0.3-2.2,0.6-3.3,0.9c-3.3,1-6.6,1.9-9.9,2.8c-20.1,5.7-40.1,11.4-60.2,17.3c-37.2,11-74.6,20.6-112.4,23
				c-23.7,1.5-47.5,0.2-71.7-5.3c-5.4-1.2-10.8-2.7-16.2-4.3c-1.8-0.6-3.7-1-5.5-1.5c-5-1.1-10-1.9-15.1-2.6
				c-10.6-1.4-21.3-2.7-31.4-7.5c-0.6-4.6-1.2-9.1-1.7-13.7c-3.2-28.6-5.1-57.2-14.1-84.7c-0.6-1.9-1.2-3.7-2-5.4
				c-2.9-7.1-7.5-13.2-19.9-15.8c-18.7,17.5-38.8,33.7-59.1,50c-32.2,25.8-64.9,51.8-93.2,83.2c-4,4.4-7.9,8.9-11.6,13.5
				c-21.7,26.4-48.5,53.3-63.9,83.6c-7,13.8-11.7,28.3-12.4,43.8c-0.1,2.2-0.3,4.5-0.4,6.6c0,0.4-0.1,0.8-0.1,1.1
				c-0.1,1.7-0.3,3.4-0.5,5.1c-0.1,0.6-0.1,1.2-0.2,1.8c-0.2,1.5-0.3,2.9-0.5,4.4c-0.1,0.7-0.2,1.3-0.3,2c-0.2,1.4-0.4,2.8-0.6,4.2
				c-0.1,0.6-0.2,1.2-0.3,1.8c-0.2,1.6-0.5,3.1-0.8,4.7c-0.1,0.4-0.1,0.8-0.2,1.2c-0.3,1.9-0.7,3.7-1,5.5c-0.2,0.8-0.3,1.6-0.5,2.4
				c-0.2,0.8-0.3,1.7-0.5,2.5c-1.5,6.8-10.4,8.9-14.6,3.3c-0.4-0.5-0.8-1-1.1-1.6c-0.1-0.2-0.2-0.3-0.3-0.5
				c-0.3-0.4-0.5-0.8-0.8-1.3c-0.1-0.2-0.2-0.3-0.3-0.5c-0.3-0.6-0.6-1.2-0.9-1.8c0,0,0-0.1-0.1-0.1c-0.3-0.6-0.5-1.2-0.8-1.9
				c-0.1-0.2-0.2-0.5-0.3-0.7c-0.2-0.5-0.3-1-0.5-1.5c-0.1-0.3-0.2-0.5-0.2-0.8c-0.2-0.7-0.4-1.4-0.6-2.1c0-0.2-0.1-0.4-0.1-0.5
				c-0.2-0.7-0.3-1.4-0.4-2.2c-0.1-0.3-0.1-0.6-0.2-1c-0.1-0.6-0.2-1.2-0.2-1.8c0-0.3-0.1-0.7-0.1-1c-0.1-0.8-0.1-1.6-0.2-2.5
				c0-0.3,0-0.6,0-0.9c0-0.8,0-1.7,0-2.6c0-0.4,0-0.8,0-1.2c0-0.7,0-1.4,0.1-2.2c0-0.4,0-0.9,0.1-1.3c0.1-1,0.1-2,0.2-3
				c0-0.2,0-0.3,0-0.5c0,0,0,0,0,0c0,0,0,0,0,0c0,0-8.7,19.1-8.8,40.3c0,2.1,0.1,4.3,0.2,6.4l0,0c0,0,0.6,32.6,6.3,61.7
				c-7.7,2.5-14.9,6.1-21.4,11.1c7.8-2.2,15.4-3.7,22.8-4.6c0.9,3.8,1.9,7.5,2.9,11c-2.9,0.3-5.8,0.7-8.6,1.3
				C688.4,452.4,687.1,452.8,685.7,453.1z"/>
		</g>
		
			<radialGradient id="SVGID_1_" cx="837.0226" cy="22.5904" r="42.7465" gradientTransform="matrix(0.9694 0.2559 -0.2458 1.0323 19.8774 82.3946)" gradientUnits="userSpaceOnUse">
			<stop  offset="0" style="stop-color:#767E59"/>
			<stop  offset="1" style="stop-color:#F4C256"/>
		</radialGradient>
		<path class="st2" d="M841.3,285.9c1.7,21.7-1.4,41.6-16.2,57.9c-5.1-11.8-5.5-20.2-2-34.4c4.9,0.5,9.8-4,11.4-10.6
			c1.2-5.1,0.1-10.2-2.6-13.1c-0.4-2-0.4-4,0.3-6.3c-17.9-4.1-33.9,1.5-48.7,15.6c-5.1,22.3,1,43.3,15.7,55.5
			c19.7,16.3,49.5,13.3,69-7C871.6,315.8,858.5,287.5,841.3,285.9z"/>
		
			<radialGradient id="SVGID_2_" cx="1046.8452" cy="23.5425" r="42.3419" gradientTransform="matrix(0.9694 0.2559 -0.2458 1.0323 19.8774 82.3946)" gradientUnits="userSpaceOnUse">
			<stop  offset="0" style="stop-color:#767E59"/>
			<stop  offset="1" style="stop-color:#F4C256"/>
		</radialGradient>
		<path class="st3" d="M1039.8,414.4c17.8-3.9,32.1-19.7,36.9-41.2c-6.9-19.4-18-32.4-36-37.5c0,2.1-0.4,3.7-1,4.9
			c-4.4,0.2-8.8,4.5-10.2,10.7c-1.7,7.1,1.1,14,6.2,15.4c0.2,0.1,0.4,0.1,0.7,0.1c0.1,0.2,0.1,0.3,0.1,0.4
			c-3.3,11.6-8,21.8-17.3,29.1c-5.7-22.3,0.4-41.4,12.4-60.6c-20-3.2-40,12.8-50.1,38.7C989.5,402.6,1014.7,419.9,1039.8,414.4z"/>
		<path class="st4" d="M1245.4,281.7c-2.6,5.9-5.3,12.2-4,18.7c2.9,13.8,7.9,27.2,8.3,42c25.6-15.1,61.3-104.1,53.8-131.7
			c-2.3-0.4-3.8,1.1-5.4,2.3C1274.3,231.1,1257.6,254.7,1245.4,281.7z"/>
		<path class="st4" d="M947.7,76c-25.4,28.5-107.6,92.1-114.5,107.7c38.8-25.6,80.5-34.6,126-32.5C958.9,125.6,955.7,102.3,947.7,76
			z"/>
		<g>
			<path class="st0" d="M1602.7,972.9c-2.4-10.5-10-16.3-25.4-19.2c-7.4-1.4-14.9-2.1-22.3-2.1c-16.5,0-33.7,3.5-50.9,10.4
				c-7.2,2.9-14.1,7-21.4,12.7c0,25.9,9.8,48.8,25.3,68.4c12.6-10.6,26.8-17.9,42.8-21.9c11.4-2.9,22.8-8,36.1-16.2
				C1600.9,996.4,1605.8,986.5,1602.7,972.9z"/>
			<path class="st0" d="M493.4,755.9c-6.3-4.5-12.3-7.7-18.2-10.1c-33.4-13.3-58.9,5.4-68.8,19.4c-7.1,10-1.9,20.6,4.1,28.2
				c3.5-7.6,7.7-12.6,8-13c3.5-4,9.2-4.5,12.9-1.3c3.7,3.3,3.8,9.2,0.4,13.2c-0.1,0.1-8.3,9.9-7.4,21c0.6,7.3,5.2,14.1,13.6,20.2
				c8.4,6,16.4,8.2,23.5,6.3C472.3,837,478.9,826,479,826c2.7-4.6,8.3-6.4,12.6-4c0.9,0.5,1.7,1.2,2.4,2c0.3,0.3,0.5,0.7,0.7,1.1
				c1.6,2.8,1.7,6.4-0.1,9.6c-0.2,0.4-3.5,6-9.6,11.8c8.3,3,18.9,4.4,26-3c0.7-0.7,1.3-1.4,1.9-2.3
				C524.6,824.8,535.5,785.9,493.4,755.9z"/>
			<path class="st0" d="M1347.9,928.2c-18.9,0.4-32.7,9.7-42.2,21.6c-11.8,14.7-16.9,33.3-16.7,43.4c0.2,11.1,8.9,16,16.6,18.3
				c-1.5-7.4-1.2-13.3-1.1-13.7c0.3-4.8,3.8-8.3,7.8-7.9c4,0.4,7,4.6,6.8,9.4c0,0.1-0.6,11.7,5.5,19.3c4,5,10.3,7.5,18.8,7.3
				c8.5-0.2,14.7-2.9,18.5-8.1c5.7-7.8,4.6-19.4,4.6-19.5c-0.5-4.8,2.3-9.2,6.3-9.7c4-0.6,7.7,2.8,8.2,7.6c0,0.4,0.6,6.3-0.5,13.8
				c7.6-2.6,16-7.9,15.7-19c-0.2-9.9-2-27.9-10.4-42.1C1378.8,936.9,1367.2,927.8,1347.9,928.2z"/>
			<path class="st0" d="M1243.7,1532.5C1243.7,1532.5,1243.7,1532.5,1243.7,1532.5c-7.2,1.2-13.7,3.5-18.4,6c-1.8,1-3.4,1.9-4.6,2.9
				c-6.8,5.3-5.9,13-3.8,18.8c4-4.4,7.8-6.9,8.1-7.1c3.1-2,7-1.4,8.6,1.2c1.6,2.7,0.4,6.5-2.7,8.6c-0.1,0-7.6,5.1-9.5,12.4
				c-1.3,4.8,0.1,9.9,4.2,15.2c4.1,5.2,8.7,7.9,13.7,7.8c3.5,0,6.7-1.3,9.3-2.7c3-1.6,5-3.4,5.1-3.4c2.8-2.6,6.8-2.8,9-0.6
				c1,0.9,1.4,2.2,1.4,3.6c0,1.8-0.8,3.7-2.3,5.1c-0.2,0.2-3.6,3.3-8.9,6.1c5.1,3.6,12.4,6.3,19.2,1.1c1.6-1.2,3.4-2.7,5.3-4.5
				c2.7-2.4,5.6-5.4,8.3-8.7c0.1-0.1,0.2-0.2,0.2-0.3c0.6-0.7,1.1-1.4,1.7-2.1c1.8-2.4,3.4-5,4.8-7.7c0.1-0.1,0.1-0.2,0.2-0.3
				c1.9-4,3.3-8.2,3.7-12.7c0.6-7.2-1.2-15-7.4-22.9C1276.6,1532.4,1258.6,1530,1243.7,1532.5z"/>
			<path class="st0" d="M719.7,1527.8c-8.3-24.8-40.2-37.2-54.1-41.4c-9.7-2.9-14.1,2.3-16.1,7.6c6.5,0.9,11.6,2.9,12,3
				c4.2,1.6,7.3,5.3,6.9,8.3c-0.4,3-4.1,4.1-8.3,2.5c-0.1,0-10.2-3.7-16.9-1.2c-4.4,1.7-6.6,5.8-6.5,12.4c0.1,6.6,2.4,12.1,6.9,16.5
				c6.8,6.6,16.9,9,17,9.1c2.5,0.6,4.9,2.1,6.5,3.9c1,1.2,1.7,2.4,1.9,3.7c0.4,2.8-1.9,4.6-5.2,4.3c-0.5,0-1-0.1-1.5-0.2
				c-0.4-0.1-5.5-1.3-12-4.3c2.2,6.6,6.8,14.5,16.4,17.4c5.4,1.6,13.5,2.5,21.8,1.7c0,0,0,0,0.1,0c0.1,0,0.1,0,0.2,0
				c6.5-0.7,13.1-2.4,18.7-5.6c8.3-4.8,14.4-12.9,14.2-25.8C721.6,1535.4,720.9,1531.5,719.7,1527.8
				C719.7,1527.8,719.7,1527.8,719.7,1527.8z"/>
		</g>
	</g>
</g>
</svg>
