<?xml version="1.0" encoding="utf-8"?>
<!-- Generator: Adobe Illustrator 22.0.0, SVG Export Plug-In . SVG Version: 6.00 Build 0)  -->
<svg version="1.1" id="Layer_1" xmlns="http://www.w3.org/2000/svg" xmlns:xlink="http://www.w3.org/1999/xlink" x="0px" y="0px"
	 viewBox="0 0 2000 1672" style="enable-background:new 0 0 2000 1672;" xml:space="preserve">
<style type="text/css">
	.st0{fill:#FFFFFF;}
	.st1{fill:none;}
	.st2{fill:url(#SVGID_1_);}
	.st3{fill:url(#SVGID_2_);}
	.st4{fill:#EA95AE;}
	.st5{fill:#E894AD;}
	.st6{fill:url(#SVGID_3_);}
	.st7{fill:url(#SVGID_4_);}
	.st8{fill:url(#SVGID_5_);}
	.st9{fill:url(#SVGID_6_);}
	.st10{fill:url(#SVGID_7_);}
	.st11{fill:url(#SVGID_8_);}
	.st12{fill:url(#SVGID_9_);}
	.st13{fill:url(#SVGID_10_);}
	.st14{fill:url(#SVGID_11_);}
	.st15{fill:url(#SVGID_12_);}
	.st16{fill:url(#SVGID_13_);}
	.st17{fill:url(#SVGID_14_);}
	.st18{fill:url(#SVGID_15_);}
	.st19{fill:url(#SVGID_16_);}
	.st20{fill:url(#SVGID_17_);}
	.st21{fill:url(#SVGID_18_);}
	.st22{fill:url(#SVGID_19_);}
	.st23{fill:url(#SVGID_20_);}
	.st24{fill:url(#SVGID_21_);}
	.st25{fill:url(#SVGID_22_);}
	.st26{fill:url(#SVGID_23_);}
	.st27{fill:url(#SVGID_24_);}
	.st28{fill:url(#SVGID_25_);}
	.st29{fill:url(#SVGID_26_);}
	.st30{fill:url(#SVGID_27_);}
	.st31{fill:url(#SVGID_28_);}
	.st32{fill:url(#SVGID_29_);}
	.st33{fill:url(#SVGID_30_);}
	.st34{fill:url(#SVGID_31_);}
	.st35{fill:url(#SVGID_32_);}
	.st36{fill:url(#SVGID_33_);}
	.st37{fill:url(#SVGID_34_);}
	.st38{fill:url(#SVGID_35_);}
	.st39{fill:url(#SVGID_36_);}
	.st40{fill:url(#SVGID_37_);}
	.st41{fill:url(#SVGID_38_);}
	.st42{fill:url(#SVGID_39_);}
	.st43{fill:url(#SVGID_40_);}
	.st44{fill:url(#SVGID_41_);}
	.st45{fill:url(#SVGID_42_);}
	.st46{fill:url(#SVGID_43_);}
	.st47{fill:url(#SVGID_44_);}
	.st48{fill:url(#SVGID_45_);}
	.st49{fill:url(#SVGID_46_);}
	.st50{fill:url(#SVGID_47_);}
	.st51{fill:url(#SVGID_48_);}
	.st52{fill:url(#SVGID_49_);}
	.st53{fill:url(#SVGID_50_);}
	.st54{fill:url(#SVGID_51_);}
	.st55{fill:url(#SVGID_52_);}
	.st56{fill:url(#SVGID_53_);}
	.st57{fill:url(#SVGID_54_);}
	.st58{fill:url(#SVGID_55_);}
	.st59{fill:url(#SVGID_56_);}
	.st60{fill:url(#SVGID_57_);}
	.st61{fill:url(#SVGID_58_);}
	.st62{fill:url(#SVGID_59_);}
	.st63{fill:url(#SVGID_60_);}
	.st64{fill:url(#SVGID_61_);}
	.st65{fill:url(#SVGID_62_);}
	.st66{fill:url(#SVGID_63_);}
	.st67{fill:url(#SVGID_64_);}
	.st68{fill:url(#SVGID_65_);}
	.st69{fill:url(#SVGID_66_);}
	.st70{fill:url(#SVGID_67_);}
	.st71{fill:url(#SVGID_68_);}
	.st72{fill:url(#SVGID_69_);}
	.st73{fill:url(#SVGID_70_);}
	.st74{fill:url(#SVGID_71_);}
	.st75{fill:url(#SVGID_72_);}
	.st76{fill:url(#SVGID_73_);}
	.st77{fill:url(#SVGID_74_);}
	.st78{fill:url(#SVGID_75_);}
	.st79{fill:url(#SVGID_76_);}
	.st80{fill:url(#SVGID_77_);}
	.st81{fill:url(#SVGID_78_);}
	.st82{fill:url(#SVGID_79_);}
	.st83{fill:url(#SVGID_80_);}
	.st84{fill:url(#SVGID_81_);}
	.st85{fill:url(#SVGID_82_);}
	.st86{fill:url(#SVGID_83_);}
	.st87{fill:url(#SVGID_84_);}
	.st88{fill:url(#SVGID_85_);}
	.st89{fill:url(#SVGID_86_);}
	.st90{fill:url(#SVGID_87_);}
	.st91{fill:url(#SVGID_88_);}
	.st92{fill:url(#SVGID_89_);}
	.st93{fill:url(#SVGID_90_);}
	.st94{fill:url(#SVGID_91_);}
	.st95{fill:url(#SVGID_92_);}
	.st96{fill:url(#SVGID_93_);}
	.st97{fill:url(#SVGID_94_);}
	.st98{fill:url(#SVGID_95_);}
	.st99{fill:url(#SVGID_96_);}
	.st100{fill:url(#SVGID_97_);}
	.st101{fill:url(#SVGID_98_);}
	.st102{fill:url(#SVGID_99_);}
	.st103{fill:url(#SVGID_100_);}
	.st104{fill:url(#SVGID_101_);}
	.st105{fill:url(#SVGID_102_);}
	.st106{fill:url(#SVGID_103_);}
	.st107{fill:url(#SVGID_104_);}
	.st108{fill:url(#SVGID_105_);}
	.st109{fill:url(#SVGID_106_);}
	.st110{fill:url(#SVGID_107_);}
	.st111{fill:url(#SVGID_108_);}
	.st112{fill:url(#SVGID_109_);}
	.st113{fill:url(#SVGID_110_);}
	.st114{fill:url(#SVGID_111_);}
	.st115{fill:url(#SVGID_112_);}
	.st116{fill:url(#SVGID_113_);}
	.st117{fill:url(#SVGID_114_);}
	.st118{fill:url(#SVGID_115_);}
	.st119{fill:url(#SVGID_116_);}
	.st120{fill:url(#SVGID_117_);}
	.st121{fill:url(#SVGID_118_);}
	.st122{fill:url(#SVGID_119_);}
	.st123{fill:url(#SVGID_120_);}
	.st124{fill:url(#SVGID_121_);}
	.st125{fill:url(#SVGID_122_);}
	.st126{fill:url(#SVGID_123_);}
	.st127{fill:url(#SVGID_124_);}
	.st128{fill:url(#SVGID_125_);}
	.st129{fill:url(#SVGID_126_);}
	.st130{fill:url(#SVGID_127_);}
	.st131{fill:url(#SVGID_128_);}
	.st132{fill:url(#SVGID_129_);}
	.st133{fill:url(#SVGID_130_);}
	.st134{fill:url(#SVGID_131_);}
	.st135{fill:url(#SVGID_132_);}
	.st136{fill:url(#SVGID_133_);}
	.st137{fill:url(#SVGID_134_);}
	.st138{fill:url(#SVGID_135_);}
	.st139{fill:url(#SVGID_136_);}
	.st140{fill:url(#SVGID_137_);}
	.st141{fill:url(#SVGID_138_);}
	.st142{fill:url(#SVGID_139_);}
	.st143{fill:url(#SVGID_140_);}
	.st144{fill:url(#SVGID_141_);}
	.st145{fill:url(#SVGID_142_);}
	.st146{fill:url(#SVGID_143_);}
	.st147{fill:url(#SVGID_144_);}
	.st148{fill:url(#SVGID_145_);}
	.st149{fill:url(#SVGID_146_);}
	.st150{fill:url(#SVGID_147_);}
	.st151{fill:url(#SVGID_148_);}
	.st152{fill:url(#SVGID_149_);}
	.st153{fill:url(#SVGID_150_);}
	.st154{fill:url(#SVGID_151_);}
	.st155{fill:url(#SVGID_152_);}
	.st156{fill:url(#SVGID_153_);}
	.st157{fill:url(#SVGID_154_);}
	.st158{fill:url(#SVGID_155_);}
	.st159{fill:url(#SVGID_156_);}
	.st160{fill:url(#SVGID_157_);}
	.st161{fill:url(#SVGID_158_);}
	.st162{fill:url(#SVGID_159_);}
	.st163{fill:url(#SVGID_160_);}
	.st164{fill:url(#SVGID_161_);}
	.st165{fill:url(#SVGID_162_);}
	.st166{fill:url(#SVGID_163_);}
	.st167{fill:url(#SVGID_164_);}
	.st168{fill:url(#SVGID_165_);}
	.st169{fill:url(#SVGID_166_);}
	.st170{fill:url(#SVGID_167_);}
	.st171{fill:url(#SVGID_168_);}
	.st172{fill:url(#SVGID_169_);}
	.st173{fill:url(#SVGID_170_);}
	.st174{fill:url(#SVGID_171_);}
	.st175{fill:url(#SVGID_172_);}
	.st176{fill:url(#SVGID_173_);}
	.st177{fill:url(#SVGID_174_);}
	.st178{fill:url(#SVGID_175_);}
	.st179{fill:url(#SVGID_176_);}
	.st180{fill:url(#SVGID_177_);}
	.st181{fill:url(#SVGID_178_);}
	.st182{fill:url(#SVGID_179_);}
	.st183{fill:url(#SVGID_180_);}
	.st184{fill:url(#SVGID_181_);}
	.st185{fill:url(#SVGID_182_);}
	.st186{fill:url(#SVGID_183_);}
	.st187{fill:url(#SVGID_184_);}
	.st188{fill:url(#SVGID_185_);}
	.st189{fill:url(#SVGID_186_);}
	.st190{fill:url(#SVGID_187_);}
	.st191{fill:url(#SVGID_188_);}
	.st192{fill:url(#SVGID_189_);}
	.st193{fill:url(#SVGID_190_);}
	.st194{fill:url(#SVGID_191_);}
	.st195{fill:url(#SVGID_192_);}
	.st196{fill:url(#SVGID_193_);}
	.st197{fill:url(#SVGID_194_);}
	.st198{fill:url(#SVGID_195_);}
	.st199{fill:url(#SVGID_196_);}
	.st200{fill:url(#SVGID_197_);}
	.st201{fill:url(#SVGID_198_);}
	.st202{fill:url(#SVGID_199_);}
	.st203{fill:url(#SVGID_200_);}
	.st204{fill:url(#SVGID_201_);}
	.st205{fill:url(#SVGID_202_);}
	.st206{fill:url(#SVGID_203_);}
	.st207{fill:url(#SVGID_204_);}
	.st208{fill:url(#SVGID_205_);}
	.st209{fill:url(#SVGID_206_);}
	.st210{fill:url(#SVGID_207_);}
	.st211{fill:url(#SVGID_208_);}
	.st212{fill:url(#SVGID_209_);}
	.st213{fill:url(#SVGID_210_);}
	.st214{fill:url(#SVGID_211_);}
	.st215{fill:url(#SVGID_212_);}
	.st216{fill:url(#SVGID_213_);}
	.st217{fill:url(#SVGID_214_);}
	.st218{fill:url(#SVGID_215_);}
	.st219{fill:url(#SVGID_216_);}
	.st220{fill:url(#SVGID_217_);}
	.st221{fill:url(#SVGID_218_);}
	.st222{fill:url(#SVGID_219_);}
	.st223{fill:url(#SVGID_220_);}
	.st224{fill:url(#SVGID_221_);}
	.st225{fill:url(#SVGID_222_);}
	.st226{fill:url(#SVGID_223_);}
	.st227{fill:url(#SVGID_224_);}
	.st228{fill:url(#SVGID_225_);}
	.st229{fill:url(#SVGID_226_);}
	.st230{fill:url(#SVGID_227_);}
	.st231{fill:url(#SVGID_228_);}
	.st232{fill:url(#SVGID_229_);}
	.st233{fill:url(#SVGID_230_);}
	.st234{fill:url(#SVGID_231_);}
	.st235{fill:url(#SVGID_232_);}
	.st236{fill:url(#SVGID_233_);}
	.st237{fill:url(#SVGID_234_);}
	.st238{fill:url(#SVGID_235_);}
	.st239{fill:url(#SVGID_236_);}
	.st240{fill:url(#SVGID_237_);}
	.st241{fill:url(#SVGID_238_);}
</style>
<g>
	<path class="st1" d="M722.7,465.7c-0.5-0.1-1.1-0.1-1.6-0.2C721.7,465.6,722.2,465.6,722.7,465.7z"/>
	<path class="st1" d="M732.1,466.2c-0.4,0-0.9,0-1.3,0C731.2,466.3,731.7,466.2,732.1,466.2z"/>
	<path class="st1" d="M726,466c-0.5,0-1-0.1-1.6-0.1C724.9,466,725.4,466,726,466z"/>
	<path class="st1" d="M729,466.2c-0.5,0-1,0-1.4,0C728.1,466.2,728.6,466.2,729,466.2z"/>
	<path class="st1" d="M735.4,466.1c-0.5,0-1,0.1-1.5,0.1C734.4,466.2,734.9,466.1,735.4,466.1z"/>
	<path class="st1" d="M741.6,465.3c-0.5,0.1-1.1,0.2-1.6,0.3C740.5,465.5,741.1,465.4,741.6,465.3z"/>
	<path class="st1" d="M744.3,464.7c-0.5,0.1-0.9,0.2-1.4,0.3C743.4,464.9,743.8,464.8,744.3,464.7z"/>
	<path class="st1" d="M747,463.9c-0.4,0.1-0.9,0.3-1.3,0.4C746.2,464.2,746.6,464,747,463.9z"/>
	<path class="st1" d="M738.7,465.8c-0.6,0.1-1.1,0.2-1.7,0.2C737.6,465.9,738.1,465.8,738.7,465.8z"/>
	<path class="st1" d="M699.6,458.7c-0.5-0.3-1-0.5-1.6-0.7C698.5,458.2,699.1,458.5,699.6,458.7z"/>
	<path class="st1" d="M703,460.3c-0.6-0.2-1.1-0.5-1.7-0.7C701.8,459.8,702.4,460,703,460.3z"/>
	<path class="st1" d="M696.3,457.1c-0.5-0.3-1-0.5-1.5-0.8C695.3,456.5,695.8,456.8,696.3,457.1z"/>
	<path class="st1" d="M693.1,455.3c-0.5-0.3-1-0.6-1.5-0.9C692.1,454.7,692.6,455,693.1,455.3z"/>
	<path class="st1" d="M706.2,461.5c-0.5-0.2-1.1-0.4-1.6-0.6C705.1,461.2,705.7,461.3,706.2,461.5z"/>
	<path class="st1" d="M712.9,463.7c-0.6-0.2-1.2-0.3-1.7-0.5C711.8,463.4,712.4,463.6,712.9,463.7z"/>
	<path class="st1" d="M709.5,462.7c-0.6-0.2-1.1-0.3-1.7-0.5C708.4,462.4,709,462.5,709.5,462.7z"/>
	<path class="st1" d="M689.9,453.3c-0.5-0.3-1-0.6-1.4-0.9C689,452.6,689.4,452.9,689.9,453.3z"/>
	<path class="st1" d="M719.5,465.2c-0.6-0.1-1.1-0.2-1.7-0.3C718.4,465,719,465.1,719.5,465.2z"/>
	<path class="st1" d="M932.9,683.2c-0.9,1.4-1.9,2.8-2.8,4.1c0,0-0.1,0.1-0.1,0.1c-29,47.2-65.8,98.7-97.1,141.3
		c-9.3,12.7-18.1,24.6-26.1,35.3c1.7,0.6,3.5,1.3,5.1,2.1c5.9-8.4,13-18.3,20.9-29.3C862.7,794.8,903.6,736.3,932.9,683.2z"/>
	<path class="st1" d="M769.2,443.1c-0.3,0.9-0.7,1.8-1,2.7C768.5,444.9,768.9,444,769.2,443.1z"/>
	<path class="st1" d="M1042.3,1460.8c2.7,0.7,5.3,1.5,7.9,2.4c8.1,1,16.3,1.9,24.5,2.7l-6.4-143.9c-4.2,18.6-8.9,37.9-14.1,58
		C1046.3,1409.4,1043,1436.7,1042.3,1460.8z"/>
	<path class="st1" d="M749.8,462.9c-0.4,0.2-0.9,0.4-1.3,0.5C748.9,463.3,749.3,463.1,749.8,462.9z"/>
	<path class="st1" d="M767.5,447.2c-0.2,0.4-0.3,0.7-0.5,1.1C767.1,447.9,767.3,447.5,767.5,447.2z"/>
	<path class="st1" d="M759.2,457.5c-0.3,0.3-0.7,0.6-1,0.8C758.5,458,758.8,457.8,759.2,457.5z"/>
	<path class="st1" d="M754.8,460.5c-0.4,0.2-0.8,0.5-1.3,0.7C754,461,754.4,460.7,754.8,460.5z"/>
	<path class="st1" d="M757.1,459c-0.4,0.3-0.8,0.6-1.2,0.8C756.3,459.6,756.7,459.3,757.1,459z"/>
	<path class="st1" d="M752.3,461.8c-0.4,0.2-0.8,0.4-1.3,0.6C751.5,462.2,751.9,462,752.3,461.8z"/>
	<path class="st1" d="M763,453.8c-0.3,0.3-0.5,0.6-0.8,0.9C762.4,454.5,762.7,454.1,763,453.8z"/>
	<path class="st1" d="M761.1,455.8c-0.3,0.3-0.6,0.6-0.9,0.8C760.5,456.3,760.8,456,761.1,455.8z"/>
	<path class="st1" d="M764.7,451.7c-0.3,0.4-0.5,0.7-0.8,1.1C764.2,452.4,764.4,452,764.7,451.7z"/>
	<path class="st1" d="M766.3,449.4c-0.2,0.4-0.5,0.8-0.7,1.2C765.8,450.2,766,449.8,766.3,449.4z"/>
	<path class="st1" d="M716.3,464.6c-0.6-0.1-1.2-0.3-1.8-0.4C715.1,464.3,715.7,464.4,716.3,464.6z"/>
	<path class="st1" d="M686.9,451.1c-0.5-0.3-1-0.7-1.4-1C685.9,450.5,686.4,450.8,686.9,451.1z"/>
	<path class="st1" d="M681.5,448.2c0.4-0.2,0.5-0.2,1-0.5c0.5,0.4,1,0.8,1.4,1.1c-0.5-0.4-1-0.8-1.5-1.2
		C682.1,447.9,681.8,448,681.5,448.2z"/>
	<g>
		<path d="M815.4,889.4C815.4,889.4,815.4,889.4,815.4,889.4C815.4,889.5,815.4,889.4,815.4,889.4
			C815.4,889.4,815.4,889.4,815.4,889.4z M815.4,889.4C815.4,889.4,815.4,889.4,815.4,889.4C815.4,889.5,815.4,889.4,815.4,889.4
			C815.4,889.4,815.4,889.4,815.4,889.4z"/>
		<path d="M1491.3,972.6c-2.9-30.5-14.4-60.4-32.4-86.6c-20-29-44.3-55.4-57.9-89c-6.2-15.2-14.7-33.8-22.4-46.5
			c-10.4-17.2-20.1-26.5-38.7-23.3c-17.8,3.1-27.5,17.6-30.9,33c-6.3,28.4-0.1,53.2,10.1,78.5c3.9,9.8,10.8,16.4,16.8,23
			c11.6,12.7,25.5,23.3,39.2,32.3c48,31.6,50.5,67.4,12.9,110.3c-19.7,22.5-41.2,39.3-70.3,49.5c-22.7,7.9-47.5,7.6-71.4,1.1
			c-8-2.2-15.8-7.6-22.2-13c-0.5-2.3-1.1-4.5-1.7-6.7c0,0,0,0,0,0s0,0,0,0c-2.3-132-49.3-190.8-94.4-216.8v0c-1.9-7.7-3.6-15.7-5-24
			c-2.4-13.6-7.3-42.9-10-58.7c-0.2-1-19.9-87.5-27.7-125.4c0,0,0-0.1,0-0.1c0,0,0-0.1,0-0.1c-0.8-5.7-1.7-11.3-2.9-17v0
			c0,0,0,0,0,0l0,0c0-0.1-0.1-0.1-0.1-0.2c-1.9-4.7-4.6-35.7-3.3-73.3c57.9-79.1-2.6-251.2,12.1-309.2
			c18.7-73.7-44.4-149.4-44.4-149.4c1,78.3-24.6,97-24.6,97c8-70.8-45.2-119.9-45.2-119.9c26.2,80.9-31.6,124.5-31.6,124.5
			c-56.8-15.9-105.8,9.5-138.5,35.9c-22.5,18.1-43.4,54.3-55.8,88.7c-4.4,12.2-7.8,24.1-9.8,35c-5.2,28.4,34.1,107.4,85.5,147
			c17.9,13.8,37.2,22.8,56.6,23.2c6.3,0.1,12.7-0.6,19-2.4c0.2-0.1,0.4-0.1,0.7-0.2c1.5-0.4,3-0.9,4.4-1.3c0.1,0,0.2,0,0.3-0.1
			c18.5-4.8,33.4-4,45.5,0.1c-1.9,2.1-3.9,4-5.9,6c-7,6.8-14.5,12.7-22.5,17.9c-6,3.9-12.3,7.5-19,10.7c-2.1,1-4.4,2.1-6.6,3
			c-3.5,1.6-7,3-10.7,4.5c-1.6,0.6-3.2,1.3-4.8,1.9c-4.2,1.6-8.6,3.3-13,5.1c6.9,1.5,14,1.8,21,1.3c2.5-0.2,4.9-0.5,7.4-0.9
			c1.2-0.2,2.4-0.4,3.6-0.6c0.4-0.1,0.9-0.2,1.3-0.3c10.2-2.2,20-6.3,28.9-12.1c4.3-2.8,8.3-6,12-9.5c-8.1,24.2-19.9,58-33.7,95
			c0,0,0,0,0,0c0,0,0,0,0,0C879,696.6,836.4,800,806.8,838c-0.1-1.3,3.3-84.1,6.1-171c-7.9,46.7-17.7,85.6-19.2,96.8
			c-3.3,25-13.9,62.3-20.9,95.3c-0.5,0-1,0-1.5,0.1c-23.9,1.5-43.4,10.9-52.8,18.6C704.7,889,701,906.2,708.5,925l5.2,13.1
			c-1,6.8-0.5,15.8,5.1,25.7c0,0,0,0,0,0.1c1.3,2.2,2.7,4.5,4.5,6.8c0.3,0.4,0.6,0.7,0.9,1.1c10.6,13,22.1,16.7,30.8,17.2l11.8,7.8
			c3.6,2.4,7.2,4.2,10.9,5.6c5,1.9,10,2.8,14.9,2.7c8.1-0.1,15.8-3,22.6-8.5c13.5-11,23.7-22.8,30.2-34.9c1.7-3.1,3.2-6.3,4.4-9.5
			c6.2-15.9,6.3-32.1,0.1-47.1c7.4,13.7,9.2,28.5,5.7,43.3c-0.6,2.7-1.4,5.4-2.4,8.1c-2.9,8-7.3,15.9-13.2,23.6
			c-5.9,7.7-13.3,15.2-22.1,22.4c-11.3,9.2-25.2,11-39,5.2c23.1,94.6,76.8,162.9,154.4,222.3c0,0,0,0,0,0l13.7,305.1
			c-8.2-0.8-16.4-1.7-24.5-2.7c-21.1-7.5-45.9-6.5-68.9-1.9c-12.8,2.5-23.5,12.1-21.8,27.1c0.3,2.6,0.8,7,1.3,9.8
			c-5,8.5-3.4,16,0.7,24.5c0.1,0.2,0.3,0.6,0.5,0.9c6.1,9,13.4,14.8,23.5,18.8c2.8,2.1,6.2,6.3,8.8,8.2c15,10.7,26,17.3,45.8,13.1
			c6.7-1.4,13.8-4,20.6-7.7c12,0.1,23.6-0.1,37.5-1.1c22.5-1.5,49.1-3.5,73-2.1c4.9,0.3,10.1-0.8,13.9-4.8
			c13.8-14.3,17.9-31.7,11.1-50.2c-1.4-3.8-3.1-7.6-5-11.1c11,0,21.9-0.2,34.7-1.1c22.6-1.5,49.1-3.5,73-2.1
			c4.9,0.3,10.1-0.8,13.9-4.8c13.8-14.3,17.9-31.7,11.1-50.2c-3.9-10.5-9.9-20.2-16.8-27.5c-1.5-1.6-3-4.6-4.1-7.1
			c-6.1-32.9-10.6-87.5,6.4-152.6c13.6-51.8,23.4-98.5,30-140.4c0,0,0,0,0,0c20.1,1.8,49.1,4.4,51.1,4.1
			c30.9-4.6,49.6-7.3,72.4-15.4c30.4-10.8,57.8-22.3,83-40.1C1466.2,1085.1,1496.9,1032.6,1491.3,972.6z M815.4,889.4
			C815.4,889.4,815.4,889.4,815.4,889.4C815.4,889.4,815.4,889.5,815.4,889.4C815.4,889.4,815.4,889.4,815.4,889.4z M832.8,836.9
			c-7.8,11-14.9,20.9-20.9,29.3c-1.7-0.8-3.4-1.5-5.1-2.1c8-10.7,16.8-22.6,26.1-35.3c31.3-42.6,68.1-94.1,97.1-141.3
			c0,0,0.1-0.1,0.1-0.1c1-1.4,1.9-2.8,2.8-4.1C903.7,736.3,862.8,794.8,832.8,836.9z"/>
		<path d="M1383.7,729c4.9,5.5,8.7,10.6,12.5,17.1c3.8,6.5,6.2,13.2,8.1,20.9c1.9,7.7,2.2,16.8,2.7,24.8c2.8-8.8,4.7-18.6,4-27.6
			c-0.7-9-3-17.4-7.3-24.7c-4.3-7.3-9.1-12.4-15.6-17.1c-6.5-4.7-13.3-6.6-21-8C1373,718.9,1378.8,723.5,1383.7,729z"/>
		<path d="M1289,812.4c3.7,8.5,8.9,15.5,15.2,22.2c-3.1-8-6.2-16.3-8.4-24.6c-2.2-8.2-3.8-16.2-4.3-24.7c-0.5-8.4,0.1-16.3,1.8-24.6
			c1.7-8.3,5.2-16.3,8.6-24.2c-6.7,6.4-12.2,13.3-15.5,22.1c-3.4,8.8-4.7,17.9-4.1,27.2C1282.9,795.2,1285.3,803.9,1289,812.4z"/>
		<path d="M1413.6,735.1c2.4,4.3,3.9,8.5,5.3,13.3c1.4,4.8,2,10.2,2.9,15.2c2.7-5.1,4.5-10.3,4.3-16.2c-0.2-5.9-1.6-11.5-4.4-16.6
			c-2.8-5.1-6.4-9.3-10.9-13c-4.5-3.6-9.4-5.8-14.9-7.3c3.2,4,6.7,8.3,9.7,12.3C1408.7,726.9,1411.3,730.8,1413.6,735.1z"/>
		<path d="M707.9,462.2c0.6,0.2,1.1,0.4,1.7,0.5c0.6,0.2,1.1,0.4,1.7,0.5c0.6,0.2,1.2,0.3,1.7,0.5c0.5,0.1,1.1,0.3,1.6,0.4
			c0.6,0.1,1.2,0.3,1.8,0.4c0.5,0.1,1,0.2,1.5,0.3c0.6,0.1,1.1,0.2,1.7,0.3c0.5,0.1,1.1,0.2,1.6,0.3c0.5,0.1,1.1,0.1,1.6,0.2
			c0.5,0.1,1.1,0.2,1.6,0.2c0.5,0.1,1,0.1,1.6,0.1c0.6,0,1.1,0.1,1.7,0.1c0.5,0,1,0,1.4,0c0.6,0,1.2,0,1.8,0.1c0.4,0,0.9,0,1.3,0
			c0.6,0,1.2,0,1.8,0c0.5,0,1-0.1,1.5-0.1c0.5,0,1.1-0.1,1.6-0.1c0.6-0.1,1.1-0.1,1.7-0.2c0.4-0.1,0.9-0.1,1.3-0.2
			c0.5-0.1,1.1-0.2,1.6-0.3c0.4-0.1,0.9-0.2,1.3-0.2c0.5-0.1,0.9-0.2,1.4-0.3c0.5-0.1,1-0.2,1.4-0.4c0.4-0.1,0.9-0.3,1.3-0.4
			c0.5-0.2,0.9-0.3,1.4-0.5c0.5-0.2,0.9-0.4,1.3-0.5c0.4-0.2,0.9-0.3,1.3-0.5c0.4-0.2,0.8-0.4,1.3-0.6c0.4-0.2,0.8-0.4,1.2-0.6
			c0.4-0.2,0.8-0.5,1.3-0.7c0.4-0.2,0.7-0.4,1.1-0.6c0.4-0.3,0.8-0.5,1.2-0.8c0.3-0.2,0.7-0.5,1-0.7c0.3-0.3,0.7-0.5,1-0.8
			c0.4-0.3,0.7-0.6,1.1-0.9c0.3-0.3,0.6-0.6,0.9-0.8c0.3-0.3,0.7-0.7,1-1c0.3-0.3,0.5-0.6,0.8-0.9c0.3-0.4,0.7-0.7,1-1.1
			c0.3-0.3,0.5-0.7,0.8-1.1c0.3-0.4,0.6-0.7,0.8-1.1c0.3-0.4,0.5-0.8,0.7-1.2c0.2-0.4,0.5-0.7,0.7-1.1c0.2-0.3,0.3-0.7,0.5-1.1
			c0.2-0.5,0.5-0.9,0.7-1.4c0.4-0.9,0.7-1.7,1-2.7c-15.4,13.8-32.1,18.8-51.1,15.3c-13.7-2.5-23.1-10.4-27.6-24.5
			c-4.1-12.9,5.4-18.1,12.2-24.9c4.4-4.4,10.1-8.3,6.4-19.1c-8.7,5.5-23.1,8.5-32.9,8.1c0.1,7.6,1.7,17.4,7.3,28.3
			c0,0-2.8,9.3-2.1,22.1c0,0,0,0,0,0c0,0,0,0,0,0c0,0,0.1-0.1,0.1-0.1c0.3-0.2,0.6-0.3,0.9-0.5c0.5,0.4,1,0.8,1.5,1.2
			c0.5,0.4,1,0.8,1.5,1.2c0.5,0.4,1,0.7,1.4,1c0.5,0.4,1.1,0.8,1.6,1.2c0.5,0.3,1,0.6,1.4,0.9c0.6,0.4,1.1,0.8,1.7,1.1
			c0.5,0.3,1,0.6,1.5,0.9c0.5,0.3,1.1,0.7,1.6,1c0.5,0.3,1,0.5,1.5,0.8c0.6,0.3,1.1,0.6,1.7,0.9c0.5,0.3,1,0.5,1.6,0.7
			c0.6,0.3,1.1,0.6,1.7,0.8c0.6,0.3,1.1,0.5,1.7,0.7c0.5,0.2,1.1,0.5,1.6,0.7c0.5,0.2,1.1,0.4,1.6,0.6
			C706.8,461.8,707.3,462,707.9,462.2z"/>
	</g>
	<g>
		<path class="st0" d="M1047.6,1532.5c1.1,2.5,2.6,5.5,4.1,7.1c0.7,0.8,1.5,1.6,2.2,2.5c7.5-9.1,12.7-19.5,13.3-32.2
			c0.5-9.3-1.7-17.3-5.4-24.6c-5.5-5.5-12.3-9.2-19.7-11.5C1042.2,1497.3,1044.7,1517.2,1047.6,1532.5z"/>
		<path class="st0" d="M1067.3,1509.9c-0.6,12.7-5.8,23.1-13.3,32.2c0.1,0.2,0.3,0.3,0.4,0.4c15.5-10,25.6-26.6,14.8-47.2
			c-2-3.9-4.5-7.2-7.3-10C1065.5,1492.6,1067.7,1500.6,1067.3,1509.9z"/>
		<path class="st0" d="M1371.2,755.3c-8.7-13.6-15.2-23.3-32.7-19.5c-13.5,3-20.6,13.9-23.8,28c-1.6,6.7-2.7,16.3-2,24.3
			c1.4,17.8,4.9,34,12.8,50.6c3.3,6.9,8.6,13.6,13.8,19.4c26.8,1.8,56.1,1.4,81.6-7.1c-11.6-17-21-32.5-28.5-52.3
			C1387.2,784.8,1379.4,768.1,1371.2,755.3z"/>
		<path class="st0" d="M806.8,838c29.6-38,72.2-141.4,104.4-227.6c0,0,0,0,0,0c0,0,0,0,0,0c13.8-37,25.6-70.9,33.7-95
			c-3.7,3.6-7.7,6.7-12,9.5c-8.9,5.8-18.7,9.9-28.9,12.1c-0.1,0.8-0.2,1.7-0.4,2.5l-4.5-1.6c-2.4,0.4-4.9,0.7-7.4,0.9
			c-7,0.5-14.1,0.2-21-1.3c4.4-1.8,8.8-3.4,13-5.1c1.6-0.6,3.2-1.3,4.8-1.9c3.6-1.4,7.2-2.9,10.7-4.5c2.2-1,4.4-2,6.6-3
			c6.6-3.2,12.9-6.7,19-10.7c8-5.2,15.5-11.2,22.5-17.9c2-1.9,4-3.9,5.9-6c-12.1-4.1-27-4.8-45.5-0.1c-0.1,0-0.2,0-0.3,0.1
			c-1.5,0.4-2.9,0.8-4.4,1.3c-0.2,0.1-0.4,0.1-0.7,0.2c-6.3,1.8-12.6,2.6-19,2.4c-19.4-0.4-38.7-9.4-56.6-23.2
			c-51.4-39.6-90.7-118.7-85.5-147c2-10.8,5.3-22.8,9.8-35c-1.3,3.1-2.7,6.3-4,9.6c-6.7,16.6-16.6,31.7-29,44.5
			c-13.5,13.9-30.4,31.5-39.5,41.7c0,0-2.2,5.9-2.1,15.2c9.8,0.5,24.2-2.5,32.9-8.1c3.7,10.8-2,14.7-6.4,19.1
			c-6.7,6.8-16.3,12-12.2,24.9c4.5,14.1,13.8,22,27.6,24.5c19,3.5,35.7-1.5,51.1-15.3c-0.3,0.9-0.7,1.8-1,2.7
			c-0.2,0.5-0.5,1-0.7,1.4c-0.2,0.4-0.3,0.7-0.5,1.1c-0.2,0.4-0.5,0.7-0.7,1.1c-0.2,0.4-0.5,0.8-0.7,1.2c-0.3,0.4-0.5,0.7-0.8,1.1
			c-0.3,0.4-0.5,0.7-0.8,1.1c-0.3,0.4-0.6,0.7-1,1.1c-0.3,0.3-0.5,0.6-0.8,0.9c-0.3,0.3-0.7,0.7-1,1c-0.3,0.3-0.6,0.6-0.9,0.8
			c-0.3,0.3-0.7,0.6-1.1,0.9c-0.3,0.3-0.7,0.6-1,0.8c-0.3,0.2-0.7,0.5-1,0.7c-0.4,0.3-0.8,0.6-1.2,0.8c-0.4,0.2-0.7,0.4-1.1,0.6
			c-0.4,0.2-0.8,0.5-1.3,0.7c-0.4,0.2-0.8,0.4-1.2,0.6c-0.4,0.2-0.8,0.4-1.3,0.6c-0.4,0.2-0.8,0.3-1.3,0.5c-0.4,0.2-0.9,0.4-1.3,0.5
			c-0.5,0.2-0.9,0.3-1.4,0.5c-0.4,0.1-0.9,0.3-1.3,0.4c-0.5,0.1-1,0.2-1.4,0.4c-0.5,0.1-0.9,0.2-1.4,0.3c-0.4,0.1-0.9,0.2-1.3,0.2
			c-0.5,0.1-1.1,0.2-1.6,0.3c-0.4,0.1-0.9,0.1-1.3,0.2c-0.6,0.1-1.1,0.2-1.7,0.2c-0.5,0.1-1.1,0.1-1.6,0.1c-0.5,0-1,0.1-1.5,0.1
			c-0.6,0-1.2,0-1.8,0c-0.4,0-0.9,0-1.3,0c-0.6,0-1.2,0-1.8-0.1c-0.5,0-1,0-1.4,0c-0.5,0-1.1-0.1-1.7-0.1c-0.5,0-1-0.1-1.6-0.1
			c-0.5-0.1-1.1-0.1-1.6-0.2c-0.5-0.1-1.1-0.1-1.6-0.2c-0.5-0.1-1-0.2-1.6-0.3c-0.6-0.1-1.1-0.2-1.7-0.3c-0.5-0.1-1-0.2-1.5-0.3
			c-0.6-0.1-1.2-0.3-1.8-0.4c-0.5-0.1-1.1-0.3-1.6-0.4c-0.6-0.2-1.2-0.3-1.7-0.5c-0.6-0.2-1.1-0.4-1.7-0.5c-0.6-0.2-1.1-0.3-1.7-0.5
			c-0.6-0.2-1.1-0.4-1.7-0.6c-0.5-0.2-1.1-0.4-1.6-0.6c-0.5-0.2-1.1-0.5-1.6-0.7c-0.6-0.2-1.1-0.5-1.7-0.7c-0.6-0.3-1.1-0.5-1.7-0.8
			c-0.5-0.3-1-0.5-1.6-0.7c-0.6-0.3-1.1-0.6-1.7-0.9c-0.5-0.3-1-0.5-1.5-0.8c-0.6-0.3-1.1-0.7-1.6-1c-0.5-0.3-1-0.6-1.5-0.9
			c-0.6-0.4-1.1-0.7-1.7-1.1c-0.5-0.3-1-0.6-1.4-0.9c-0.5-0.4-1.1-0.8-1.6-1.2c-0.5-0.3-1-0.7-1.4-1c-0.5-0.4-1-0.8-1.5-1.2
			c-0.5-0.4-1-0.7-1.4-1.1c-0.5,0.2-0.6,0.3-1,0.5c0,0-0.1,0.1-0.1,0.1c0.9,17.5,8.1,41.5,37.3,57.6c40.3,22.3,82.4,5.4,97.8-2.3
			c0.2,38.4-1.5,101.9-3.5,163.3c0,0,0,0.1,0,0.1c0,0,0,0,0,0.1v0C810.1,753.9,806.6,836.7,806.8,838z"/>
		<path class="st0" d="M899.1,537.8l4.5,1.6c0.1-0.8,0.2-1.7,0.4-2.5c-0.4,0.1-0.9,0.2-1.3,0.3C901.5,537.4,900.3,537.6,899.1,537.8
			z"/>
		<path class="st0" d="M766.4,908c-0.2-8.5,1-18.9,2.9-30.4c0,0,0,0,0,0c-17,1.7-32,8.4-39.3,14.3c-9.4,7.6-7.9,18.3-4.6,26.4
			c5.4-6.2,10.7-9.9,11.1-10.2c4.3-2.9,9.7-2.2,12,1.4c2.3,3.7,0.8,9.1-3.5,12.1c-0.1,0.1-10.5,7.3-12.9,17.6
			c-1.6,6.8,0.5,13.9,6.3,21.1c5.8,7.2,12.3,10.7,19.3,10.5c5.1-0.2,9.8-2.2,13.4-4.4c0,0,0,0,0,0
			C768.5,947.9,766.9,928.5,766.4,908z"/>
		<path class="st0" d="M768.5,917.9c3.3-6.1,13.1-19.7,26.9-38.4c-8.7-2.4-17.6-2.8-26.1-2c0,0,0,0,0,0c-1.9,11.5-3.1,21.9-2.9,30.4
			c0.5,20.5,2.1,40,4.7,58.5c0,0,0,0,0,0c3.9-2.3,6.4-4.6,6.4-4.7c3.8-3.7,9.4-4.1,12.6-1.1c3.2,3,2.7,8.5-1.1,12.1
			c-0.3,0.3-5,4.8-12.2,8.8c7.3,4.8,17.5,8.5,26.8,0.8c3.3-2.7,7.5-6.4,11.8-10.9C798.8,941.6,765.6,923.3,768.5,917.9z"/>
		<path class="st0" d="M817.4,969.5c-13.8-31.8-25.6-72.2-22.8-77.3c1.3-2.4,3.6-6,6.8-10.7c-2-0.8-3.9-1.4-5.9-2
			c-13.8,18.7-23.6,32.3-26.9,38.4c-2.9,5.4,30.3,23.7,47,53.6C816.1,970.8,816.7,970.2,817.4,969.5
			C817.4,969.5,817.4,969.5,817.4,969.5z"/>
		<path class="st0" d="M817.4,969.5C817.4,969.5,817.4,969.5,817.4,969.5c15.2-16.8,29.9-43.4,7.9-70.4c-7-8.6-15.2-14.2-23.9-17.6
			c-3.2,4.7-5.5,8.3-6.8,10.7C791.7,897.3,803.5,937.7,817.4,969.5z"/>
		<path class="st0" d="M862.2,1542.3c-14.9,2.7-10,6.9-13,15.7c2.1-1,12-3.2,12.5-3.2c5.2-0.3,9.8,0.1,11.3,4.3
			c1.5,4.2-2.1,5.7-7.5,6.9c-0.1,0-13.4,2.8-16,7.8c-1.7,3.3-2.5,9.9,0.4,15c2.9,5.1,11.2,10.2,14.7,11.9c5.3,2.5,20.2,0.2,20.4,0.2
			c6.7-1.2,10.2-0.9,13,2.7c2.8,3.6-0.1,5.9-4.7,7.5c-0.4,0.1-10.8,2.2-13.1,2c10,5.1,11.1,11.1,25.9,7.5c6.5-1.6,13.1-4.2,19-7.8
			c8.2-9.4,13.8-20.2,14.5-33.6c0.5-9.3-1.7-17.3-5.4-24.6C915.9,1536.1,883.4,1538.4,862.2,1542.3z"/>
		<path class="st0" d="M939.6,1579.1c-0.7,13.4-6.3,24.2-14.5,33.6c16.4-9.9,27.6-26.9,16.4-48.2c-2-3.9-4.5-7.2-7.3-10
			C937.8,1561.8,940.1,1569.7,939.6,1579.1z"/>
		<path class="st5" d="M1079.8,209.5c5.7-31.2-5.7-79.3-17.7-101c-5.5,42.6-21.5,55.7-23.7,57.3l-8.4,6.2
			C1052.7,175.9,1070.2,205.5,1079.8,209.5z"/>
		<radialGradient id="SVGID_1_" cx="832.1518" cy="313.333" r="33.2498" gradientUnits="userSpaceOnUse">
			<stop  offset="0" style="stop-color:#767E59"/>
			<stop  offset="1" style="stop-color:#F4C256"/>
		</radialGradient>
		<path class="st2" d="M824.5,339.3c-3-3.7-3.2-14.8,0-27.1c3.6-14.1,10.1-24.4,14.6-22.9c4.5,1.5,5.2,14.1,1.6,28.2
			c-1,3.8-2.2,7.4-3.5,10.5c10.9-3.5,23.7-15.7,23.7-26.9c0-3-0.5-5.8-1.5-8.4c-1.1-3-2.7-5.8-4.9-8.2c0,0,0,0,0,0
			c-4.6-5.1-11.2-8.3-18.6-8.3c-4.4,0-8.5,1.1-12.1,3.1c0,0-0.1,0-0.1,0c-6.6,2.8-12.2,8.4-15.6,16.1c-11.9,27.3,2.2,55.2,2.2,55.2
			C816,346.8,820.1,343.4,824.5,339.3z"/>
	</g>
</g>
</svg>
